<svg xmlns="http://www.w3.org/2000/svg" width="467.727" height="383.643" viewBox="0 0 467.727 383.643">
  <g id="banner-princiapal" transform="translate(-6548.614 3453.814)">
    <path id="Path_101135" data-name="Path 101135" d="M6958.2-3041.568a46.778,46.778,0,0,0,2.563-9.9l1.043.6q8.309,4.808,2.758,8.026l-33.873,19.589q-5.621,3.253-13.967-1.485l-12.517-7.248q-8.238-4.7-2.617-7.956l23.85-13.807q.1,3.8-.16,7.513a2.423,2.423,0,0,1-1.556,2.192l-1.1.106.106.531q-7.708-2.015-11.916,2.4a1.2,1.2,0,0,0-.07,1.556,2.209,2.209,0,0,1,.283.425,5.373,5.373,0,0,0,1.8,4.03,9.4,9.4,0,0,0,4.385,2.44,47.277,47.277,0,0,0,5.728.389,32,32,0,0,1,5.764.566v1.838q.813.106,3.146.637a25.483,25.483,0,0,0,3.465.636q3.855.389,5.411-3.854a5.833,5.833,0,0,0,1.378-3.146,3.743,3.743,0,0,1,.283-.637q-.708-8.274-1.45-16.618l5.339,4.986,1.167,2.122q2.156,9.123,10.005,5.339A1.286,1.286,0,0,0,6958.2-3041.568Zm-145.729-43.685,30.3-17.485a4.453,4.453,0,0,1,1.609,1.061,10.38,10.38,0,0,1,1.768,3.394,8.491,8.491,0,0,0,1.945,3.4,7.372,7.372,0,0,0,5.127,1.555,16.523,16.523,0,0,0,8.167-2.086,11.659,11.659,0,0,0,2.582-1.91,8.153,8.153,0,0,0,2.334-5.9q0-3.04-1.981-3.889a9.538,9.538,0,0,0-3.783-.318,5.531,5.531,0,0,0-.6.035,10.8,10.8,0,0,1-4.385-.354q-1.8-.777-1.945-3.359v-.141a2.64,2.64,0,0,1-.034-.424,5.533,5.533,0,0,1,.388-1.875l13.86-8.009,3.889,2.245,3.89-2.245,45.33,26.183q.518,7.331,1.626,14.6c.017.11.035.222.054.336l-50.9,29.4-22.947-13.26a3.767,3.767,0,0,1,1.521-2.334,10.593,10.593,0,0,1,3.643-1.273,16.869,16.869,0,0,0,2.757-.778,4.384,4.384,0,0,0,.884-.46,4.221,4.221,0,0,0,1.663-3.713q0-4.985-6.33-8.45a23.194,23.194,0,0,0-5.268-2.122,16.632,16.632,0,0,0-4.313-.707q-3.042,0-4.1,1.874a10.762,10.762,0,0,0-.778,4.137,10.2,10.2,0,0,1-.884,4.1,4.146,4.146,0,0,1-2.687,1.732Zm-24.7,14.266,3.89-2.245,22.312,12.852a4,4,0,0,0,2.652-1.7,9.619,9.619,0,0,0,.884-4.1,11.1,11.1,0,0,1,.778-4.172,2.692,2.692,0,0,1,.99-1.061,5.241,5.241,0,0,1,3.111-.813,16.607,16.607,0,0,1,4.314.707,24.465,24.465,0,0,1,5.268,2.157,18.717,18.717,0,0,1,2.9,1.945,9.869,9.869,0,0,1,2.688,3.289,7.239,7.239,0,0,1,.742,3.217,7.471,7.471,0,0,1-.071,1.061,3.724,3.724,0,0,1-1.591,2.617,6,6,0,0,1-.884.494,15.658,15.658,0,0,1-2.758.778,10.581,10.581,0,0,0-3.642,1.273,3.765,3.765,0,0,0-1.521,2.334l22.947,13.224-63.009,36.384-49.943-28.835q.192-1.069.3-1.962.283-1.91.636-5.87.318-3.854.6-5.834a.147.147,0,0,1,.035-.106,35.2,35.2,0,0,0,9.547-5.162q-.021-.121-.035-.248.952-.24,1.732-.424a17.017,17.017,0,0,1,2.97-.531,5.9,5.9,0,0,1,2.44.389,2.012,2.012,0,0,1,.424.318,2.883,2.883,0,0,1,.6,1.7,8.038,8.038,0,0,1,.071,1.131,3.122,3.122,0,0,1-.071.6,10.218,10.218,0,0,1-.99,2.652,14.4,14.4,0,0,0-1.061,2.4,5.036,5.036,0,0,0,.071.813,4.1,4.1,0,0,0,1.98,2.688c.024,0,.036.011.036.035a.1.1,0,0,1,.07.035,11.393,11.393,0,0,0,5.976,1.344,11.64,11.64,0,0,0,4.278-1.132,29.486,29.486,0,0,0,5.233-3.041,21.2,21.2,0,0,0,4.49-4.243,8.462,8.462,0,0,0,1.875-4.844v-.248a7.486,7.486,0,0,0-1.379-4.137q-1.45-2.121-3.217-2.121l-.99.035q-.778.035-2.157.107a12.521,12.521,0,0,1-2.864-.142,3.352,3.352,0,0,1-1.662-.813,4.219,4.219,0,0,1-1.131-2.829v-1.7l18.245-10.519Zm-51.481,60.852c-.046-.212-.094-.424-.142-.636q-.6-3.393-.671-3.819a13.611,13.611,0,0,1-.336-3.465,31.706,31.706,0,0,1,14.055,3.889q6.825,3.925,6.824,9.441,0,5.586-6.859,9.511-6.824,3.925-16.513,3.925t-16.512-3.925q-6.858-3.924-6.86-9.476.037-5.551,6.86-9.476a28.292,28.292,0,0,1,6.312-2.634,17.412,17.412,0,0,1-.973,1.468l-1.272,1.7a2.883,2.883,0,0,0-.637,2.086,2.366,2.366,0,0,0,.142.814,2.315,2.315,0,0,0,.919,1.52q.636.5,1.2,1.025c.118.142.248.284.389.425a3.167,3.167,0,0,1,.6,1.238,28.272,28.272,0,0,1,.459,3.819,2.642,2.642,0,0,0,.035.424v3.854a9.059,9.059,0,0,1,1.343-.105c-.047.306-.082.648-.106,1.025a8.7,8.7,0,0,0,1.026.106,6.2,6.2,0,0,0,1.061.071.976.976,0,0,0,1.1-.743v-1.061a5.713,5.713,0,0,0-.142-1.52v-4.279l.884.318a1.406,1.406,0,0,1,.283.106,10.052,10.052,0,0,1,2.864,1.733q.353.458,1.91,2.4a7.305,7.305,0,0,0,.707.742,10.238,10.238,0,0,0,.778,1.025,1.784,1.784,0,0,0,1.238.6,3.228,3.228,0,0,0,1.379-.248,10.04,10.04,0,0,0,3.43-2.263q.354-.353,1.308-1.414,3.431-3.961,0-4.986h-1.025q-.742,0-1.415-.035l-.955-.035q1.592-3.111-1.1-3.465Q6736.923-3010.276,6736.287-3010.135Zm-97.589-91.1v.336a2.441,2.441,0,0,0-.283,1.555,4.7,4.7,0,0,0,.743,3.324,9.6,9.6,0,0,0,2.439,2.581,7.41,7.41,0,0,1,1.379.354,9.386,9.386,0,0,1,1.344,2.087,10.248,10.248,0,0,0,1.272,2.122,12.716,12.716,0,0,0,4.208,3.536,17.692,17.692,0,0,0,5.233,1.661,18.019,18.019,0,0,0,2.829.212,5.521,5.521,0,0,0,2.687-.672,2.051,2.051,0,0,0,1.061-1.98,2.905,2.905,0,0,0-.071-.636.1.1,0,0,0,.035-.071.1.1,0,0,0,.036-.071,4.131,4.131,0,0,0,.177-1.167,4.317,4.317,0,0,0-.248-1.166c-.094-.189-.188-.389-.283-.6a19.074,19.074,0,0,0,4.915,1.061,7.537,7.537,0,0,0,5.056-1.1,2.053,2.053,0,0,0,.743-1.8,2.224,2.224,0,0,0-.106-.707,2.18,2.18,0,0,0,.035-.354,3.252,3.252,0,0,0-.071-.707,3.944,3.944,0,0,0-.389-.919,12.176,12.176,0,0,0-1.591-2.3,21.366,21.366,0,0,0-1.45-1.627c-.117-.141-.26-.294-.424-.46a16.724,16.724,0,0,0-4.879-3.182l-1.131-.53a28.679,28.679,0,0,0-2.617-2.051q-.53-.388-1.025-.742a3.793,3.793,0,0,0,.283-.318,1.182,1.182,0,0,0,.142-.318.4.4,0,0,0,.035-.177,4.158,4.158,0,0,0-.141-.424,11.757,11.757,0,0,1-.637-4.243q.064-.869.124-1.75l2.6-1.5q5.622-3.254,13.79,1.52l.813.459,36.1-20.844,3.89,2.246.053-.036c.016.073.033.143.053.213a32.369,32.369,0,0,0,1.838,5.551q.6,1.379,1.732,3.783l.919,2.192q.39.92.743,1.839.424.92.884,1.8a9.774,9.774,0,0,1,1.061,4l-1.379,2.51v.035a13.866,13.866,0,0,0-1.061,2.616v.141a4.677,4.677,0,0,0-1.237,1.626l-1.521,1.733a.032.032,0,0,0-.036.035l-.035.035a.1.1,0,0,0-.035.071l-.036.035a17.528,17.528,0,0,0-4.172,10.855v27.951l-40.769-23.531-16.406,9.476q-5.622,3.253-13.966-1.485l-12.517-7.248q-8.239-4.7-2.616-7.956Zm160.6-83.2,21.038,12.145-11.633,6.718v9.9l10.572,6.1a3.2,3.2,0,0,0-.99,1.078,11.1,11.1,0,0,0-.778,4.172,9.618,9.618,0,0,1-.884,4.1,4,4,0,0,1-2.652,1.7l-26.2-15.1-11.951,6.9a18.935,18.935,0,0,0-2.581-1.308,32.209,32.209,0,0,0-3.66-1.308l.018-2.865v-.283a7.605,7.605,0,0,0-1.379-4.137q-1.449-2.121-3.218-2.122c-.023,0-.354.011-.99.036l14.32-8.239v-9.865l13.189-7.619,3.889,2.245Zm-42.218,63.892v-5.18a3.126,3.126,0,0,0,.071-.6,8.041,8.041,0,0,0-.071-1.131,2.884,2.884,0,0,0-.6-1.7,1.831,1.831,0,0,0-.442-.318,17.833,17.833,0,0,0,1.962-.743q.8-.359,1.591-.778,2.935,2.111,2.935,4.809a8.626,8.626,0,0,1-.142,1.626,4.353,4.353,0,0,1-1.944,3.147,3,3,0,0,1-.778.354A10.88,10.88,0,0,1,6757.078-3120.541Zm-10.784-7.655c-.093-.094-.188-.188-.283-.282q-.459-.46-1.733-1.486-1.238-.991-1.838-1.52c-.121-.094-.25-.194-.389-.3a6.176,6.176,0,0,1,.5-1.432,3.134,3.134,0,0,1,.778-.884,4.647,4.647,0,0,1,2.263-.83v1.007a4.107,4.107,0,0,0,2.157,3.5,8.546,8.546,0,0,0,2.9,1.1Q6748.913-3128.916,6746.293-3128.2Zm102.469-5.763v1.414l4.243,2.439c0,.025,0,.048,0,.071v.813a6.757,6.757,0,0,1-.212,1.414,7.778,7.778,0,0,1-2.122,3.96,10.351,10.351,0,0,1-2.58,1.91,16.162,16.162,0,0,1-3.077,1.343l-8.415-4.844a.031.031,0,0,0,.035-.035,4.07,4.07,0,0,0,1.662-3.289l-.071-9.229a7.468,7.468,0,0,0,.071-1.061,7.221,7.221,0,0,0-.742-3.217,10.421,10.421,0,0,0,.884-4.1,11.1,11.1,0,0,1,.778-4.172q1.061-1.873,4.1-1.874h.247a17.462,17.462,0,0,1,4.066.707,25.686,25.686,0,0,1,2.722.937,22.792,22.792,0,0,1,2.546,1.22,21.346,21.346,0,0,1,2.033,1.273l-14.266,8.238a5.448,5.448,0,0,0-.39,1.839,5.945,5.945,0,0,0,.036.6q.14,2.582,1.945,3.359a5,5,0,0,0,.918.248,15.809,15.809,0,0,0,3.465.071h.6Q6848.08-3133.969,6848.762-3133.959Zm-103.1-9.123v.442l-.937-.53A7.294,7.294,0,0,1,6745.657-3143.082Zm1.5,68.984q.034-4.554.336-9.3.106-2.264.318-4.527.036-.53.106-1.1c-.023-.283-.035-.565-.035-.849v-.212a1.047,1.047,0,0,1-.036-.248q-.035-.883-.141-1.662v-.106a2.588,2.588,0,0,1-.036-.424l-.778-2.051,3.748,2.157c.059.072.118.143.177.211,0,.024.024.059.071.106a15.677,15.677,0,0,0,2.334,1.981v-.071q1.166.849,2.333,1.7h-.036q1.128.846,2.263,1.662l-1.591.919q-.034.5-.035,1.1,0,3.641,2.829,4.207a12.571,12.571,0,0,0,2.864.141q1.379-.035,2.157-.105c.636-.025.966-.036.99-.036q1.769,0,3.218,2.122a8.654,8.654,0,0,1,.99,1.962q.009.717,0,1.5a6.867,6.867,0,0,0,.389.6v.354a8.576,8.576,0,0,1-1.874,4.844,21.754,21.754,0,0,1-4.49,4.208,29.546,29.546,0,0,1-5.233,3.04,11.347,11.347,0,0,1-4.278,1.167,11.164,11.164,0,0,1-5.976-1.378.1.1,0,0,0-.071-.036l-.142-.088q-.254-3.465-.336-7.054a5.763,5.763,0,0,0,.513-2.051A4.822,4.822,0,0,0,6747.16-3074.1Zm197.99,15.31.07-1.184a.889.889,0,0,1,.088.035Q6945.248-3059.366,6945.15-3058.788Zm-1.079-1.556-3.306.389q-.052-.462-.106-.919A13.2,13.2,0,0,1,6944.071-3060.344Zm.726,8.133.777,2.723-.354-.848Zm-21.922,9.936a5.367,5.367,0,0,0,2.262,4.7q.459.389.955.813a5.517,5.517,0,0,1-3.253-4.88A5.466,5.466,0,0,1,6922.874-3042.275Z" transform="translate(-22.233 -78.884)" fill="#1d1e42" fill-rule="evenodd"/>
    <path id="Path_101136" data-name="Path 101136" d="M7099.985-3338.926a3.371,3.371,0,0,1,2.475,1.025,3.432,3.432,0,0,1,1.061,2.51,3.358,3.358,0,0,1-1.061,2.51,3.37,3.37,0,0,1-2.475,1.025,3.532,3.532,0,0,1-2.546-1.025,3.479,3.479,0,0,1-.99-2.51,3.558,3.558,0,0,1,.99-2.51A3.533,3.533,0,0,1,7099.985-3338.926Zm25.193,95.246a5.332,5.332,0,0,1-3.96,1.662,5.447,5.447,0,0,1-4-1.662,5.388,5.388,0,0,1-1.626-3.96,5.509,5.509,0,0,1,1.626-4,5.508,5.508,0,0,1,4-1.626,5.391,5.391,0,0,1,3.96,1.626,5.449,5.449,0,0,1,1.661,4A5.331,5.331,0,0,1,7125.179-3243.68ZM7007.55-3403.367a5.446,5.446,0,0,1,1.663,4,5.331,5.331,0,0,1-1.663,3.96,5.33,5.33,0,0,1-3.959,1.662,5.45,5.45,0,0,1-4-1.662,5.391,5.391,0,0,1-1.626-3.96,5.508,5.508,0,0,1,1.626-4,5.507,5.507,0,0,1,4-1.626A5.385,5.385,0,0,1,7007.55-3403.367Zm-72.891-28.733,1.945-3.819q2.193-4.313-2.122-6.541l-5.516-2.811,3.218-6.312q1.734-3.358,5.092-1.662l11.138,5.657q3.358,1.733,1.626,5.092l-5.657,11.138q-1.7,3.359-5.057,1.626Zm-3.041-1.556-3.43-1.733q-3.358-1.7-1.662-5.056l.884-1.75,5.516,2.811a1.266,1.266,0,0,1,.636,1.909Z" transform="translate(-110.499)" fill="#81c140" fill-rule="evenodd"/>
    <path id="Path_101137" data-name="Path 101137" d="M7122.038-3311.138a3.374,3.374,0,0,1,2.476,1.025,3.431,3.431,0,0,1,1.061,2.51,3.357,3.357,0,0,1-1.061,2.51,3.374,3.374,0,0,1-2.476,1.025,3.53,3.53,0,0,1-2.546-1.025,3.472,3.472,0,0,1-.989-2.51,3.549,3.549,0,0,1,.989-2.51A3.53,3.53,0,0,1,7122.038-3311.138Zm-89.5-24.2a3.552,3.552,0,0,1,.991-2.51,3.528,3.528,0,0,1,2.545-1.025,3.368,3.368,0,0,1,2.475,1.025,3.433,3.433,0,0,1,1.062,2.51,3.359,3.359,0,0,1-1.062,2.511,3.369,3.369,0,0,1-2.475,1.025,3.53,3.53,0,0,1-2.545-1.025A3.475,3.475,0,0,1,7032.537-3335.341Z" transform="translate(-141.708 -33.657)" fill="#ffc93c" fill-rule="evenodd"/>
    <path id="Path_101138" data-name="Path 101138" d="M6867.353-3352.462q-.565-.494-1.025-.955-.461-.672-.778-1.167a6.066,6.066,0,0,1-.071-.919c-.023-.212-.047-.424-.07-.636s-.047-.424-.07-.636c-.025-.235-.048-.459-.071-.672q-.07-.53-.105-1.061-.072-.565-.107-1.132c-.023-.189-.047-.377-.07-.566a7.35,7.35,0,0,0-.036-.742v-.071l.142-.141a4.3,4.3,0,0,0,.955-1.414,2.624,2.624,0,0,0,.105-1.521,12.952,12.952,0,0,0,.565-2.723l.106-.495a8.2,8.2,0,0,0,1.415-4.278,7.938,7.938,0,0,0-.531-3.5,6.967,6.967,0,0,0-.5-1.061q-.848-1.52-1.909-3.147a1.918,1.918,0,0,0-.177-.283q-.035-.849-.035-1.273v-.035a3.178,3.178,0,0,0-.318-1.2,1.275,1.275,0,0,0-.354-.46,3.05,3.05,0,0,0-.494-.46q-.672-.459-1.026-.707l.283-.318.248-.318a2.193,2.193,0,0,1,1.237-.849,2.209,2.209,0,0,1,1.557.071,3.238,3.238,0,0,1,.954.46,6.377,6.377,0,0,1,.6.531,17.627,17.627,0,0,1,4.137,8.026q.106.531.177,1.061a33.6,33.6,0,0,1-.141,8.734,48,48,0,0,1-2.086,8.557A25.9,25.9,0,0,1,6867.353-3352.462Zm87.759,107.419a5.58,5.58,0,0,0-1.343-3.783,7.864,7.864,0,0,0,7.531-1.415,19.483,19.483,0,0,0,2.758-3.288q.6-.884,1.272-1.8a14.257,14.257,0,0,1-1.626,1.521q-7.177,5.693-14.992,2.192a9.245,9.245,0,0,1,.849.672q.672.5,1.414.955a.1.1,0,0,1-.07-.035.326.326,0,0,1-.213,0,1.029,1.029,0,0,0-.14.106l.636,3.5q-.389-.461-.708-.884l-4.1-5.587a1.051,1.051,0,0,0-.106-.141q-.884-1.2-1.662-2.4a.456.456,0,0,1-.106-.177,13.511,13.511,0,0,1-.742-1.167,3.6,3.6,0,0,1-.282-.318,8.815,8.815,0,0,1-.5-.919,2.985,2.985,0,0,1-.565-.5.272.272,0,0,1-.106-.035.368.368,0,0,0-.07-.141,2.249,2.249,0,0,0-.177-.212l-.071-.071q-.177-.212-.318-.389a4.615,4.615,0,0,1-.707-1.52v-.283q2.121,1.238,5.021,3.253a12.367,12.367,0,0,0,4.95,3.712q5.093,2.016,10.537-2.333a11.727,11.727,0,0,0,3.606-4.243,13.363,13.363,0,0,1,.813,1.521,8.562,8.562,0,0,1,.708,2.546c-.141.189-.129.283.036.283a10.049,10.049,0,0,1-.673,4.172q-.07.424-.141.778a10.822,10.822,0,0,1-1.591,3.925q-.99.814-2.051,1.662l-.707.566a9.611,9.611,0,0,1-5.375.531A10.006,10.006,0,0,1,6955.112-3245.043Zm-305.355-69.974q-.389-.424-.813-.99a6.077,6.077,0,0,0-.707-.99,1.971,1.971,0,0,0-1.379-.424,1.085,1.085,0,0,0-.194.071.561.561,0,0,0-.088.035v.018c0,.012-.016.018-.035.018a14.015,14.015,0,0,1-1.237-2.935,11.591,11.591,0,0,1-.318-1.308,12.317,12.317,0,0,1-.142-3.218q.92,1.1,2.369,2.616l.708.707a34.939,34.939,0,0,0,4.243,3.748,5.364,5.364,0,0,0,.743.46,1.316,1.316,0,0,1,0,.424q-.531,2.476-2.687,2.122A4.813,4.813,0,0,1,6649.757-3315.018Zm-3.96-13.719a8.379,8.379,0,0,1,1.45-2.51,5.142,5.142,0,0,1,.6.954q.5.884.884,1.556a.1.1,0,0,1,.036.071,26.527,26.527,0,0,0,1.626,2.157,18.283,18.283,0,0,0,1.874,1.98q1.768,1.627,7.885,2.758a2.377,2.377,0,0,0,1.838-.248,2.592,2.592,0,0,0,.813-1.167,6.132,6.132,0,0,1,.637-1.167,1.366,1.366,0,0,1,1.308-.354,1.575,1.575,0,0,1,1.308,1.308,4.193,4.193,0,0,1,0,1.1,4.221,4.221,0,0,0,.99-1.733.774.774,0,0,0,.106-.248q.177-.565.672-2.086a6.424,6.424,0,0,1,.99-2.228,1.21,1.21,0,0,1,.247.247,3.985,3.985,0,0,1,.672,1.485q.636,2.546.071,3.5a4.136,4.136,0,0,1-1.308,1.344.905.905,0,0,0-.212.212,7.381,7.381,0,0,1-6.4,2.51q-1.8-.318-3.642-.778-1.131-.176-2.192-.318a6.236,6.236,0,0,0-1.874,0,12.3,12.3,0,0,1-3.5-1.8,20.294,20.294,0,0,1-3.041-3.465l-.566-.849A7.558,7.558,0,0,1,6645.8-3328.737Zm201.826-47.663a1.646,1.646,0,0,1,.318.035q1.661.141,2.581.318a5.1,5.1,0,0,1,1.061.248l.071.283a11.947,11.947,0,0,1-2.9,1.308q-1.485.424-3.394.778h-.071l.035-.035a.9.9,0,0,1,.106-.212Zm8.91-5.693q.39.955.743,1.98a1.14,1.14,0,0,1-.53.707,10.871,10.871,0,0,1-2.475-2.228,1.868,1.868,0,0,1,.389-.106A12.534,12.534,0,0,1,6856.533-3382.092Zm8.557,17.5a2.614,2.614,0,0,0-.812.248,3.557,3.557,0,0,0-1.451,1.8,24.547,24.547,0,0,0-1.378-2.687,51,51,0,0,0-3.042-4.526q-3.358-4.49-3.394-4.1,0-.849,2.37.919a32.233,32.233,0,0,1,5.2,5.056q.779.92,1.485,1.874c.213.26.424.531.637.813A5.276,5.276,0,0,1,6865.09-3364.59Zm-131.038,137.615a6.761,6.761,0,0,1,1.7,4.773,8.979,8.979,0,0,1-1.45,4.42,6.11,6.11,0,0,1-5.445,3.43,7.921,7.921,0,0,1-2.652-.425,6.516,6.516,0,0,1-3.536-3.43,11.5,11.5,0,0,1-.884-2.758,7.54,7.54,0,0,1-.177-1.379,6.291,6.291,0,0,1,2.228-5.021,7.336,7.336,0,0,1,4.844-1.733,6.879,6.879,0,0,1,4.879,1.663Q6733.8-3227.223,6734.052-3226.975Zm6.47-1.238a7.1,7.1,0,0,1,3.677,1.98q-.424.071-.919.177l-7,.955a1.276,1.276,0,0,1-.708-.46A34.185,34.185,0,0,1,6740.522-3228.213Zm1.626,24.716a1.923,1.923,0,0,1-.636.672h-.035l-.142.071a5.867,5.867,0,0,1-3.359.779h-.071a.377.377,0,0,0-.177-.036q-.883-1.414-1.378-2.4a13.832,13.832,0,0,1-.991-3.023,34.545,34.545,0,0,1-.636-7.2c0-.354.024-.531.071-.531v.142a36.582,36.582,0,0,1,4.049,5.6c.061.087.121.175.177.265q.209.332.424.69,1.26,2.019,2.775,4.614a.1.1,0,0,1,.035.071A.767.767,0,0,1,6742.149-3203.5Zm4.986-7.637c-.048.189-.094.389-.142.6a1.072,1.072,0,0,1-.035.248c-.071.329-.142.636-.212.919-.118-.26-.259-.542-.424-.849q-.211-.407-.46-.831-.292-.509-.636-1.043a.1.1,0,0,1-.035-.071q-.209-.334-.424-.689-.159-.232-.318-.478-.353-.566-.707-1.061-3.146-4.526-6.082-5.834v-.494h2.4a9.255,9.255,0,0,1,6.577,2.687,3.015,3.015,0,0,1,.389.389,10.9,10.9,0,0,1,1.308,1.591v.035q-.112.428-.389,1.326-.149.519-.354,1.185-.033.067-.407,2.121C6747.168-3211.3,6747.151-3211.22,6747.135-3211.135Zm199.739,99.569.036-1.238,4.243,3.643.354.848.707,1.732Zm-29.913,13.72a9.613,9.613,0,0,0,1.061,1.52,8.84,8.84,0,0,0,1.272,1.414q4.137,3.82,10.89,3.112a28.388,28.388,0,0,1,5.481.319q2.333.423,4.7.848a9.552,9.552,0,0,0,2.545.636,3.916,3.916,0,0,0,3.749-1.167q-1.556,4.243-5.411,3.854a25.483,25.483,0,0,1-3.465-.636q-2.332-.53-3.146-.637v-1.838a32,32,0,0,0-5.764-.566,47.277,47.277,0,0,1-5.728-.389,9.4,9.4,0,0,1-4.385-2.44A5.373,5.373,0,0,1,6916.961-3097.846Zm47.167-2.546a1.286,1.286,0,0,1-.743,1.273q-7.848,3.784-10.005-5.339a5.923,5.923,0,0,0,.742.813c0,.024.024.059.071.106l1.98,1.591a2.411,2.411,0,0,0,.248.213A10.21,10.21,0,0,0,6964.129-3100.392Z" transform="translate(-28.165 -20.06)" fill="#9e2f4a" fill-rule="evenodd"/>
    <path id="Path_101139" data-name="Path 101139" d="M6873.008-3321.18l-.636-.707a9.733,9.733,0,0,1-1.98-4,4.754,4.754,0,0,1,.141-2.9,79.441,79.441,0,0,1,4.35-8.592,4.525,4.525,0,0,0,.46-.884q.282-.777.354-.955.67-1.308,1.979-4a40.437,40.437,0,0,1,2.228-3.854h.036q.423.849,1.1,2.051a9.029,9.029,0,0,0,.531.919,2.112,2.112,0,0,0,.459.46.1.1,0,0,0-.035.071,9.765,9.765,0,0,0-1.061,3.43,6.465,6.465,0,0,0-.071,1.344,4.5,4.5,0,0,0,.884-.248,13.619,13.619,0,0,0,1.557-.672q.282-.141.565-.318a15.844,15.844,0,0,1-.6,2.015,26.147,26.147,0,0,1-1.167,2.581l-2.51,4.7q-1.415,2.688-2.228,4.526.425.424,1.379,1.238,2.158-4.243,6.293-12.411l.567-1.131q.21.708.317,1.167a4.38,4.38,0,0,0,.213.707,16.06,16.06,0,0,0,.636,1.839,13.346,13.346,0,0,0,3.571-1.556,24.835,24.835,0,0,0,3.147-2.333q1.8-1.661,2.228-2.086a19.952,19.952,0,0,0,1.415-1.556l.283-.354a1.246,1.246,0,0,1,.142-.177c0-.023.023-.046.071-.071a.913.913,0,0,1,.105-.212q.461.46,1.025.955a16.9,16.9,0,0,0,1.308,1.167q.813.672,2.4,1.98a7.128,7.128,0,0,1,1.98,3.5,7.111,7.111,0,0,0-2.016-.813q-4.243-.99-7.46,2.935-.743.92-.849,3.748-.07,1.662-.248,5.41a9.482,9.482,0,0,1-1.555,4.809,5.528,5.528,0,0,1-4.739,2.086,7.219,7.219,0,0,1-2.192-.5,14.463,14.463,0,0,0-3.394-.636h-1.273a6.08,6.08,0,0,0-3.642-1.839,9.753,9.753,0,0,0-3.182.106Zm32.389-12.269q-.386.478-.743,1.008a19.694,19.694,0,0,0-1.378,2.281,12.717,12.717,0,0,0-1.486,4.243q-.1.833-.248,2.775-.113,1.421-.248,3.448-.319,4.1-.637,6.117a.045.045,0,0,0,0,.071,33.578,33.578,0,0,1-1.326,5.145,51.531,51.531,0,0,1-3.377,7.637q-1.285,2.4-2.9,4.932l-1.167,1.839a12.29,12.29,0,0,1-2.44-1.874v-.035h-.07q.778-1.485,1.591-3.182c.1-.212.192-.419.284-.619q.845-1.861,1.5-3.288.723-1.554,1.219-2.6.283-.565,1.45-2.652.779-1.493,1.238-2.51c.014-.037.025-.072.035-.106s.026-.048.036-.071c-.021-.055-.039-.108-.054-.159a1.8,1.8,0,0,1-.053-.619q-.142-2.369-.212-3.536-.106-2.086-.106-3.536a15.094,15.094,0,0,0-.141-2.4l.6-12.3c.212-.165.412-.318.6-.46a9.75,9.75,0,0,1,5.586-1.521,2.354,2.354,0,0,1,1.2.389,2.005,2.005,0,0,1,.424.3.082.082,0,0,1,.035.018,1.352,1.352,0,0,1,.53.636A1.573,1.573,0,0,1,6905.4-3333.449Zm-30.408,22.629a.686.686,0,0,1,0-.318,7.273,7.273,0,0,1,.388-2.121q.248-.884.354-1.344a1.987,1.987,0,0,0-.034-1.344,1.709,1.709,0,0,1-.177-.566,10.669,10.669,0,0,1,3.606-.672q.5,0,1.449.035H6881q3.747,1.909,5.728,3.111a16.122,16.122,0,0,1,1.661,1.132,6.126,6.126,0,0,1,2.4,4.915,14.09,14.09,0,0,1-1.025,5.445q-.778,0-1.591-.035-10.4-1.379-12.977-6.4-.106-.636-.177-1.132Q6874.99-3310.5,6874.989-3310.82Zm-16.088.955a5.02,5.02,0,0,0-3.324-1.061q1.167-1.485,2.334-3.218a24.55,24.55,0,0,1,3.253-3.748v.035q.106-.141,2.015-1.662a6.012,6.012,0,0,0,1.556-1.732l-.036-.035q.814-1.52,1.839-4,1.627-3.889,1.732-4.1,1.132-2.652,1.732-4.243a41.153,41.153,0,0,0,1.344-4.385,44.936,44.936,0,0,1,1.838-6.011v.035a12.983,12.983,0,0,1,1.344-3.076,6.747,6.747,0,0,1,2.3-2.44,5.523,5.523,0,0,1,1.449-.636,1.079,1.079,0,0,1,.212-.071c.024.071.047.153.07.248a12.355,12.355,0,0,0-2.863,4,20.365,20.365,0,0,0-2.016,6.152,28.257,28.257,0,0,1-2.511,6.647,23.576,23.576,0,0,0-2.263,6.258,35.6,35.6,0,0,1-1.167,6.647,15.172,15.172,0,0,1-3.748,6.294Q6863.851-3313.79,6858.9-3309.865Zm-86.947,164.982q-1.024.036-2.086,0a10.486,10.486,0,0,1-3.182-.778,21.506,21.506,0,0,1-9.582-7.5l.389-1.344v-.141a13.866,13.866,0,0,1,1.061-2.616v-.035l1.379-2.51a9.774,9.774,0,0,0-1.061-4q-.459-.884-.884-1.8-.353-.918-.743-1.839l-.919-2.192q-1.132-2.4-1.732-3.783a32.369,32.369,0,0,1-1.838-5.551c-.02-.069-.038-.14-.053-.213a1.665,1.665,0,0,1-.053-.159,17.822,17.822,0,0,1-.619-3.943c-.011-.222-.018-.447-.018-.672a15.24,15.24,0,0,1,.142-2.086,12.78,12.78,0,0,1,.5-2.175q.114-.35.248-.689c.049-.113.1-.226.141-.336q1.646-3.543,4.349-4.084a2.9,2.9,0,0,1,1.732.036,2.946,2.946,0,0,1,.583.211,6.152,6.152,0,0,1,.866.46.26.26,0,0,1,.106.036q.424.211,1.378.777l-.071.071-.919.707a.344.344,0,0,0-.177.141h-.035a.032.032,0,0,0-.036.035h-.035l-.036.036a5.619,5.619,0,0,0-1.131,1.1,2.759,2.759,0,0,0-.106,2.087,4.652,4.652,0,0,0,1.1,1.8,8.769,8.769,0,0,0,1.467,1.255,10.6,10.6,0,0,0,4.225,1.609,11.326,11.326,0,0,0,2.369-.247q1.7-.283,2.369-.319.779-.035,2.581,0h1.485q.637-.035,1.1-.035.106.105.636.777a8.919,8.919,0,0,0,1.415,1.45q.634.583,1.131,1.008c.14.107.269.207.389.3q.6.53,1.838,1.52,1.273,1.026,1.733,1.486c.095.094.189.188.283.282q.319.341.636.707a2.012,2.012,0,0,1,.318.318,25.791,25.791,0,0,1,1.98,3.536l-1.1-1.45-.212-.354a16.152,16.152,0,0,0-2.228-2.581,13.155,13.155,0,0,0-3.907-2.546q-.164-.074-.336-.141-3.853-1.485-6.541.318a7,7,0,0,0-2.829,4.986,15.649,15.649,0,0,0-.177,2.44c0,.522.024,1.034.071,1.538a13.891,13.891,0,0,0,.531,2.7q.283.955,1.308,3.395a25.476,25.476,0,0,1,1.291,4.031,24.68,24.68,0,0,1,.548,3.536q.071.884.071,1.8a39.7,39.7,0,0,1-.3,4.756Q6772.485-3147.413,6771.954-3144.883Zm11.881-4.119a.051.051,0,0,1,.035-.018h-.035c.023,0,.023-.012,0-.035q-1.179-2.046-2.352-4.1l-1.644-2.935h.035q-1.061-1.909-2.086-3.748-1.025-1.873-2.157-3.642a11.877,11.877,0,0,1-1.167-2.086,17.546,17.546,0,0,1-1.45-5.834,9.665,9.665,0,0,1,.018-1.025,8.568,8.568,0,0,1,.088-.884l.036-.036a4.655,4.655,0,0,1,1.662-2.9,10.269,10.269,0,0,1,1.45-.954c0-.025.024-.036.071-.036a.1.1,0,0,0,.071-.035l.247-.071a.494.494,0,0,1,.212.035,5.052,5.052,0,0,1,.53-.035.031.031,0,0,0,.036.035h.071a7.288,7.288,0,0,1,1.2.248,6.728,6.728,0,0,1,2.864,1.733,12.32,12.32,0,0,1,2.97,4.455.151.151,0,0,0,0,.141q.5,1.415,1.025,2.793.488,1.315.972,2.67.122.362.248.724c.09.256.178.516.265.779q.161.453.318.919a.1.1,0,0,1-.036.071,41.074,41.074,0,0,0,1.91,4.384h.035q1.238,2.51,2.4,4.986a51.636,51.636,0,0,0,2.546,4.632.3.3,0,0,1,.036.141,5.445,5.445,0,0,0,1.308,1.344,24.463,24.463,0,0,1,3.748,2.971q.215.211.424.424a48.716,48.716,0,0,1,3.182,3.819c.034.041.068.083.106.123q.791.994,1.555,1.892l.637.707a1.976,1.976,0,0,1-.177.212,1.165,1.165,0,0,1-.318.141q-1.323.441-5.127-.972-1.378-.5-3.076-1.255a35.5,35.5,0,0,1-10.148-7.178q-.424-.459-.742-.813Q6784.549-3148.271,6783.835-3149Zm20.967,18.792q-.636.177-.849.248l.036-.035a.483.483,0,0,1-.53-.036q-2.5-1.318-4.844-2.864h.177a8.681,8.681,0,0,0,2-.672q.4-.153.866-.354,2.794-1.167,3.182-2.475a2.119,2.119,0,0,1,.424-.955c.094-.095.2-.082.318.035a6.973,6.973,0,0,0,1.131,1.238.1.1,0,0,1,.036.071q.814.706,1.662,1.484a.632.632,0,0,1,.212.318.538.538,0,0,1-.035.425c0,.071-.012.095-.036.071v.388a2.987,2.987,0,0,1-1.238,1.8,5.669,5.669,0,0,1-1.378.919,3.194,3.194,0,0,1-.708.248A4.353,4.353,0,0,0,6804.8-3130.209Z" transform="translate(-59.561 -30.339)" fill="#9ddfd3" fill-rule="evenodd"/>
    <path id="Path_101140" data-name="Path 101140" d="M6905.188-3333.347a5.55,5.55,0,0,1,.035.672v.283q-.034.991-.071,1.839-.176,6.577-.283,12.34a68.071,68.071,0,0,1-1.061,10.961,5.145,5.145,0,0,1-.637,1.556q-.432.8-.866,1.573a65,65,0,0,1-5.145,7.867q-.778.885-1.874,2.228a.239.239,0,0,0-.213-.106.306.306,0,0,0-.247.142q-1.2,1.152-3.147.141l1.167-1.839q1.614-2.534,2.9-4.932a51.531,51.531,0,0,0,3.377-7.637,33.578,33.578,0,0,0,1.326-5.145.045.045,0,0,1,0-.071q.319-2.015.637-6.117.136-2.027.248-3.448.146-1.941.248-2.775a12.717,12.717,0,0,1,1.486-4.243,19.694,19.694,0,0,1,1.378-2.281Q6904.8-3332.868,6905.188-3333.347Zm-31.5,13.224a9.753,9.753,0,0,1,3.182-.106,6.08,6.08,0,0,1,3.642,1.839h1.273a14.463,14.463,0,0,1,3.394.636,7.219,7.219,0,0,0,2.192.5,5.528,5.528,0,0,0,4.739-2.086,9.482,9.482,0,0,0,1.555-4.809q.177-3.747.248-5.41.106-2.828.849-3.748,3.217-3.925,7.46-2.935a7.111,7.111,0,0,1,2.016.813,7.468,7.468,0,0,1,.142.8,2.005,2.005,0,0,0-.424-.3,2.354,2.354,0,0,0-1.2-.389,9.75,9.75,0,0,0-5.586,1.521c-.189.142-.389.295-.6.46l-.6,12.3a15.094,15.094,0,0,1,.141,2.4q0,1.45.106,3.536.07,1.167.212,3.536a1.8,1.8,0,0,0,.053.619c0,.066-.011.13-.018.194a1.142,1.142,0,0,0,0,.142q-.46,1.018-1.238,2.51-1.167,2.087-1.45,2.652-.5,1.045-1.219,2.6a11.791,11.791,0,0,1-2.988.406,14.09,14.09,0,0,0,1.025-5.445,6.126,6.126,0,0,0-2.4-4.915,16.122,16.122,0,0,0-1.661-1.132q-1.98-1.2-5.728-3.111h-.425q-.954-.035-1.449-.035a10.669,10.669,0,0,0-3.606.672,6.764,6.764,0,0,1-.107-.707q0-.884-.036-1.344Zm-.884-.955a14.112,14.112,0,0,0-.919,2.546,10.658,10.658,0,0,1-1.556,3.536,13.113,13.113,0,0,1-2.687,2.793q-3.252,2.617-4.879,3.96-.92.742-1.768,1.414a8.341,8.341,0,0,0-2.3-2.935q4.95-3.925,5.091-4.1a15.172,15.172,0,0,0,3.748-6.294,35.6,35.6,0,0,0,1.167-6.647,23.576,23.576,0,0,1,2.263-6.258,28.257,28.257,0,0,0,2.511-6.647,20.365,20.365,0,0,1,2.016-6.152,12.355,12.355,0,0,1,2.863-4,16.039,16.039,0,0,0,.85,1.909q.211.389.53.99h-.036a40.437,40.437,0,0,0-2.228,3.854q-1.307,2.687-1.979,4-.073.177-.354.955a4.525,4.525,0,0,1-.46.884,79.441,79.441,0,0,0-4.35,8.592,4.754,4.754,0,0,0-.141,2.9,9.733,9.733,0,0,0,1.98,4Zm-91.525,168.024.3,3.252.071.46.071,1.1a3.369,3.369,0,0,0-.354.248,21.119,21.119,0,0,1-3.094,1.663,19.884,19.884,0,0,1-6.524,1.555q.531-2.531.8-4.862a39.7,39.7,0,0,0,.3-4.756q0-.918-.071-1.8a24.68,24.68,0,0,0-.548-3.536,25.476,25.476,0,0,0-1.291-4.031q-1.025-2.44-1.308-3.395a13.891,13.891,0,0,1-.531-2.7c-.046-.5-.071-1.016-.071-1.538a15.649,15.649,0,0,1,.177-2.44,7,7,0,0,1,2.829-4.986q2.688-1.8,6.541-.318.172.067.336.141a13.155,13.155,0,0,1,3.907,2.546,16.152,16.152,0,0,1,2.228,2.581l.212.354,1.1,1.45a6.424,6.424,0,0,1,1.291,4.4,8.038,8.038,0,0,1-1.061,3.235q-.126-.362-.248-.724-.483-1.356-.972-2.67-.53-1.379-1.025-2.793a.151.151,0,0,1,0-.141,12.32,12.32,0,0,0-2.97-4.455,6.728,6.728,0,0,0-2.864-1.733,7.288,7.288,0,0,0-1.2-.248h-.071a.031.031,0,0,1-.036-.035,5.052,5.052,0,0,0-.53.035.494.494,0,0,0-.212-.035l-.247.071a.1.1,0,0,1-.071.035c-.046,0-.071.011-.071.036a10.269,10.269,0,0,0-1.45.954,4.655,4.655,0,0,0-1.662,2.9l-.036.036a8.568,8.568,0,0,0-.088.884,9.665,9.665,0,0,0-.018,1.025,17.546,17.546,0,0,0,1.45,5.834,11.877,11.877,0,0,0,1.167,2.086q1.132,1.768,2.157,3.642,1.026,1.839,2.086,3.748h-.035Zm-21.409-40.132c.141.188.307.412.495.671a6.152,6.152,0,0,0-.866-.46,2.946,2.946,0,0,0-.583-.211,2.9,2.9,0,0,0-1.732-.036q-2.7.541-4.349,4.084c-.045.11-.092.223-.141.336q-.134.339-.248.689a12.78,12.78,0,0,0-.5,2.175,1.451,1.451,0,0,1-.106-.283,5.461,5.461,0,0,1-.459-3.306q.055-.3.141-.619a4.518,4.518,0,0,1,2.4-3.005,15.8,15.8,0,0,1,1.45-1.2,5.409,5.409,0,0,1,1.662-.99.176.176,0,0,1,.177-.035,2.7,2.7,0,0,1,1.131.495c.141.118.295.259.459.424Q6759.193-3194.035,6759.865-3193.185Zm2.723,3.5a.435.435,0,0,1-.177-.106.391.391,0,0,1-.106-.071A1.847,1.847,0,0,1,6762.588-3189.686Zm35.995,56.892-.99-.566.036-.035q-.319-.212-.708-.424v-.035q-1.011-.7-2.015-1.414-1.136-.816-2.263-1.662h.036q-1.167-.847-2.333-1.7v.071a15.677,15.677,0,0,1-2.334-1.981c-.047-.047-.071-.082-.071-.106-.059-.069-.118-.139-.177-.211a13.728,13.728,0,0,1-2.581-4.845,9.748,9.748,0,0,0-.884-2.05l-.6-1.026c0-.023-.023-.06-.07-.106v-.017q.713.731,1.8,1.785.318.354.742.813a35.5,35.5,0,0,0,10.148,7.178q1.7.751,3.076,1.255,3.8,1.414,5.127.972a1.165,1.165,0,0,0,.318-.141,1.976,1.976,0,0,0,.177-.212h.035a2.119,2.119,0,0,0-.424.955q-.387,1.308-3.182,2.475-.464.2-.866.354A8.681,8.681,0,0,1,6798.583-3132.794Z" transform="translate(-59.353 -30.442)" fill="#6d9c93" fill-rule="evenodd"/>
    <path id="Path_101141" data-name="Path 101141" d="M6824.161-3429.652l-2.758,5.41q-2.227,4.349-6.542,2.122l-9.229-4.7q-4.312-2.193-2.086-6.542l4.7-9.229q2.193-4.313,6.506-2.122l3.712,1.892,5.516,2.811q4.314,2.228,2.122,6.542Zm-3.041-1.556,1.945-3.818a1.266,1.266,0,0,0-.636-1.91l-5.516-2.811-3.712-1.892a1.26,1.26,0,0,0-1.91.6l-4.7,9.229a1.264,1.264,0,0,0,.6,1.945l9.228,4.7a1.27,1.27,0,0,0,1.945-.636Zm-269.66,242.75q-4.315-2.194-2.087-6.542l4.7-9.229q2.192-4.314,6.506-2.122l9.229,4.7q4.314,2.227,2.122,6.542l-4.7,9.229q-2.228,4.35-6.542,2.122Zm.955-4.986a1.264,1.264,0,0,0,.6,1.945l9.229,4.7a1.271,1.271,0,0,0,1.945-.636l4.7-9.229a1.267,1.267,0,0,0-.636-1.91l-9.229-4.7a1.26,1.26,0,0,0-1.909.6Z" transform="translate(0 -2.448)" fill="#9ddfd3" fill-rule="evenodd"/>
    <path id="Path_101142" data-name="Path 101142" d="M6954.971-3257.78a27.606,27.606,0,0,1-9.866,2.829c.016-.092.028-.186.036-.283a.6.6,0,0,0,.035-.177l.035-10.254v-.813a7.278,7.278,0,0,0-.141-1.1,3.221,3.221,0,0,0-1.839-2.475,9.547,9.547,0,0,0-3.783-.318h-.035l11.208-6.47v-9.9l-8.875-5.127q.618-1.646,1.167-2.882,4.074-4.291,7.425-7.938,4.879-5.269,7.143-7.92.672-.849,1.131-1.415a16.223,16.223,0,0,1,2.44,9.476v41.016A38.528,38.528,0,0,1,6954.971-3257.78Zm-3.572-121.279-.494.5q-.744-.777-1.1-1.1l-2.581-1.1-1.238-.813a1.174,1.174,0,0,1-.283-.035q.248-.282.6-.636a4.746,4.746,0,0,1,2.05-1.238,6.084,6.084,0,0,1,1.1-.035l-.283.318q.353.248,1.026.707a3.05,3.05,0,0,1,.494.46,1.275,1.275,0,0,1,.354.46,3.178,3.178,0,0,1,.318,1.2v.035Q6951.364-3379.907,6951.4-3379.059Z" transform="translate(-114.439 -20.583)" fill="#bc4074" fill-rule="evenodd"/>
    <path id="Path_101143" data-name="Path 101143" d="M6965.1-3259.485a11.717,11.717,0,0,1-3.606,4.243q-5.445,4.349-10.537,2.333a12.362,12.362,0,0,1-4.949-3.712q-2.9-2.016-5.021-3.253v.283q-.494-2.616,4.208-4.986,11.738-5.763,19.447,4.42C6964.832-3259.9,6964.984-3259.673,6965.1-3259.485Zm-317.836-70.469.105-.106a8.318,8.318,0,0,1,2.3-2.051,9.442,9.442,0,0,1,2.97-1.132,9.551,9.551,0,0,1,1.944-.141,23.24,23.24,0,0,1,5.693,1.132,22.439,22.439,0,0,1,5.021,2.44c.331.212.672.424,1.025.636q.425.283.849.531a6.841,6.841,0,0,1,1.662,1.344,6.433,6.433,0,0,0-.99,2.228q-.494,1.52-.672,2.086a.785.785,0,0,1-.105.248,4.226,4.226,0,0,1-.99,1.733,4.193,4.193,0,0,0,0-1.1,1.575,1.575,0,0,0-1.309-1.308,1.366,1.366,0,0,0-1.308.354,6.132,6.132,0,0,0-.637,1.167,2.592,2.592,0,0,1-.813,1.167,2.378,2.378,0,0,1-1.839.248q-6.116-1.132-7.885-2.758a18.332,18.332,0,0,1-1.874-1.98,26.489,26.489,0,0,1-1.626-2.157.1.1,0,0,0-.036-.071q-.388-.671-.884-1.556A5.155,5.155,0,0,0,6647.267-3329.954Zm-1.45,2.51a7.57,7.57,0,0,0,1.273,2.228l.565.849a20.293,20.293,0,0,0,3.041,3.465,12.308,12.308,0,0,0,3.5,1.8q-.776-.07-2.086-.177.142.6.566,1.874a6,6,0,0,1,.212.813c.023.236.035.46.035.672a5.393,5.393,0,0,1-.743-.46,34.941,34.941,0,0,1-4.242-3.748l-.708-.707q-1.447-1.52-2.368-2.616a14.546,14.546,0,0,1,.318-1.662c.07-.306.153-.649.247-1.025a2.05,2.05,0,0,1,.106-.354A8.786,8.786,0,0,1,6645.816-3327.444Zm216.747-32.989c-.07.095-.142.189-.211.283q-.708,1.132-1.062,1.768a1.682,1.682,0,0,0-.106.177h-.177l-1.344-.106-.177.5-.53.248-.283.106a1.363,1.363,0,0,1-.282-.106,4.022,4.022,0,0,1-1.7-1.061l-.673.495v-.177a12.055,12.055,0,0,1-3.43-3.394,23.2,23.2,0,0,1-2.616-7.249,3.842,3.842,0,0,0-.673,2.192,15.5,15.5,0,0,0-.177,2.015q0,.354.036,2.016l-.813-.106-.07-.248q-.354-1.308-.6-1.98a11.67,11.67,0,0,0,.07,1.308l-.814-.672q-.318-.282-.6-.5-.318-.176-.6-.318h-.318a12.862,12.862,0,0,1-.177-3.536,12.715,12.715,0,0,1-.248-1.732,3.933,3.933,0,0,1,.318-1.627h.071q1.909-.353,3.394-.778a11.938,11.938,0,0,0,2.9-1.308l-.07-.283a5.1,5.1,0,0,0-1.061-.248q-.92-.176-2.581-.318a1.65,1.65,0,0,0-.318-.035l1.308-1.591a4.616,4.616,0,0,1,1.309-1.379,9.384,9.384,0,0,1,4.031-2.263,10.872,10.872,0,0,0,2.475,2.228,1.14,1.14,0,0,0,.53-.707q-.353-1.026-.742-1.98a13.171,13.171,0,0,1,2.9-.035,1.17,1.17,0,0,0,.282.035l1.238.813,2.581,1.1c.236.212.6.578,1.1,1.1l.494-.5a1.84,1.84,0,0,1,.177.283q1.061,1.626,1.909,3.147a6.874,6.874,0,0,1,.5,1.061,7.946,7.946,0,0,1,.531,3.5,8.2,8.2,0,0,1-1.415,4.278l-.106.495a12.922,12.922,0,0,1-.565,2.723l-.07-.141a.927.927,0,0,0-.99-.354,5.272,5.272,0,0,0-.389-.6c-.213-.283-.424-.554-.637-.813q-.706-.954-1.485-1.874a32.231,32.231,0,0,0-5.2-5.056q-2.37-1.767-2.37-.919.035-.389,3.395,4.1a50.984,50.984,0,0,1,3.041,4.526,24.471,24.471,0,0,1,1.379,2.687l-.071.212A6.283,6.283,0,0,0,6862.563-3360.433Zm-5.94-5.339-.105-.141c-.142-.165-.294-.342-.46-.53a13.958,13.958,0,0,1-1.061-1.344q2.016,5.8,5.2,8.344a16.449,16.449,0,0,0-3.041-5.657A4.162,4.162,0,0,0,6856.623-3365.772Zm97.165,118.239a4.544,4.544,0,0,0-2.758-1.238l-.035.071q-.743-.46-1.414-.955a9.245,9.245,0,0,0-.849-.672q7.813,3.5,14.991-2.192a14.221,14.221,0,0,0,1.627-1.521q-.671.92-1.272,1.8a19.455,19.455,0,0,1-2.759,3.288A7.864,7.864,0,0,1,6953.788-3247.533Zm-209.569,22.594a4.5,4.5,0,0,1,1.874.283,7.482,7.482,0,0,1,2.688,1.98,7.853,7.853,0,0,1,1.662,2.793,8.959,8.959,0,0,1,.5,3.112,14.529,14.529,0,0,1-.159,1.768q-.094.587-.23,1.2a8.948,8.948,0,0,1-.354.955q-.1-.666-.3-1.644c-.019-.076-.036-.154-.054-.23a21.11,21.11,0,0,0-.636-2.05l-.743-.319.071.319a2.389,2.389,0,0,0,.035.388,5.325,5.325,0,0,1-.213,1.627,10.866,10.866,0,0,0-1.308-1.591,3.015,3.015,0,0,0-.389-.389,9.257,9.257,0,0,0-6.577-2.687h-2.4v.494q2.936,1.308,6.082,5.834.353.5.707,1.061.158.245.318.478c.144.236.284.466.424.689a.1.1,0,0,0,.035.071q.344.534.637,1.043c.165.283.319.559.46.831.165.307.306.589.424.849a5.94,5.94,0,0,1-1.061,2.122q.105-1.555.105-1.662a4.437,4.437,0,0,0-.035-.99c.024-.424.035-.767.035-1.025a2.759,2.759,0,0,0-1.591.884,2.617,2.617,0,0,0-.707,1.7,1.543,1.543,0,0,0,.248,1.025,9.363,9.363,0,0,1-.372,1.114,20,20,0,0,1-.972,2,1.4,1.4,0,0,0-.106.283.3.3,0,0,1-.035.141.1.1,0,0,0-.035-.071q-1.516-2.595-2.775-4.614-.215-.358-.425-.69c-.056-.09-.115-.178-.177-.265a36.547,36.547,0,0,0-4.049-5.6v-.142c-.046,0-.07.177-.07.531a34.549,34.549,0,0,0,.636,7.2,13.858,13.858,0,0,0,.991,3.023q.5.991,1.378,2.4h-.07a10.252,10.252,0,0,1-2.829-.283,12.345,12.345,0,0,1-2.228-.565,5.5,5.5,0,0,1-1.838-1.1c-.187-.154-.376-.319-.566-.494q-.331-.314-.672-.673a10.986,10.986,0,0,1-2.758-4.808,17.1,17.1,0,0,1-.459-2.44,16.374,16.374,0,0,1-.106-2.4,7.924,7.924,0,0,0,2.652.425,6.11,6.11,0,0,0,5.444-3.43,8.98,8.98,0,0,0,1.45-4.42,6.761,6.761,0,0,0-1.7-4.773c.212-.094.437-.189.672-.282a17.581,17.581,0,0,1,2.688-.814,7.007,7.007,0,0,1,3.111-.141,34.159,34.159,0,0,0-4.95,2.652,1.276,1.276,0,0,0,.707.46l7-.955Q6743.795-3224.869,6744.219-3224.94Z" transform="translate(-28.185 -21.353)" fill="#cc3d60" fill-rule="evenodd"/>
    <path id="Path_101144" data-name="Path 101144" d="M6858.538-3224.113c-.084,0-.167-.009-.247-.018a6.408,6.408,0,0,1-3.8-1.484,7.393,7.393,0,0,1-1.663-2.652c.015-.1.026-.193.036-.283a44.758,44.758,0,0,0-.531-8.1,43.5,43.5,0,0,1,1.7-4.243,31.01,31.01,0,0,1,4.243-4.632q.459-.459.884-.848-.04-.9-.106-1.68a6.533,6.533,0,0,0,.248-1.184,27.606,27.606,0,0,0,9.866-2.829,17.472,17.472,0,0,1,.583,2.351l-9.387,5.427a5.534,5.534,0,0,0-.388,1.875,2.64,2.64,0,0,0,.034.424v1.149c-.057.107-.116.219-.177.336q-.141.282-.283.531a41.345,41.345,0,0,1,.072,9.936v.105c-.025.141-.048.283-.072.425q-.106.635-.212,1.343Q6859.012-3226.272,6858.538-3224.113Zm92.409-16.955q-1.167.389-3.005-1.166-2.157-2.051-2.227-2.122a16.739,16.739,0,0,1-1.238-1.839c-.025-.047-.025-.083,0-.106a34.929,34.929,0,0,1-1.026-5.48,8.815,8.815,0,0,0,.5.919,3.6,3.6,0,0,0,.282.318,13.511,13.511,0,0,0,.742,1.167.456.456,0,0,0,.106.177q.779,1.2,1.662,2.4a1.051,1.051,0,0,1,.106.141Zm-215.828,144.474a24.332,24.332,0,0,0,4.491,0,26.113,26.113,0,0,0,6.188-1.344.147.147,0,0,0-.035.106q-.282,1.98-.6,5.834-.353,3.959-.636,5.87-.11.892-.3,1.962-.185,1.009-.442,2.175a.317.317,0,0,0-.036.141,9.8,9.8,0,0,1-1.167-2.652c-.079-.264-.155-.51-.23-.742q-.42-1.448-.619-2.157a8.729,8.729,0,0,0-.813-2.085,17.579,17.579,0,0,0-4.7-4.243c-.212-.142-.437-.295-.672-.46a.125.125,0,0,1-.035-.035q-.445-.3-.884-.565Q6734.907-3095.745,6735.119-3096.594Zm-3.146,30.514a7.7,7.7,0,0,1-.354-.848l-.354-.849a2.817,2.817,0,0,1-.212-.566,5.6,5.6,0,0,0-.777-1.414,1.84,1.84,0,0,1-.106-.177c-.094-.141-.295-.448-.6-.919q-.425-3.182-1.379-7.319-1.344-5.341-1.98-8.027a26.107,26.107,0,0,1-.53-11.774q.459.353.99.742a14.642,14.642,0,0,1,4.349,6.365q.319,1.167.955,5.446a6.973,6.973,0,0,0,1.343,3.323q.283,2.546.884,7.072a42.758,42.758,0,0,1,.23,4.561q-.02,1.23-.124,2.334v-.283q-.424.461-.955,1.132A4.823,4.823,0,0,1,6731.972-3066.079Zm-67.924-232.163a8.516,8.516,0,0,1,1.1,2.9,2.892,2.892,0,0,1-.318,1.45,8.762,8.762,0,0,1-.636,1.061l.142.354c0,.024-.011.035-.036.035a11.685,11.685,0,0,1-1.308.141l.106-.46a22.276,22.276,0,0,1-12.446-4.455,7.135,7.135,0,0,1-.46-.707,13.256,13.256,0,0,0,.849-1.167,2.285,2.285,0,0,1,.459-.672,4.792,4.792,0,0,0,.248,1.52,4.53,4.53,0,0,0,1.1,1.8,8.4,8.4,0,0,0,2.652,1.8q.743.318,1.415.53a9.439,9.439,0,0,0,1.909.46,4.038,4.038,0,0,0,1.839-.071,3.612,3.612,0,0,0,1.626-1.061,10.008,10.008,0,0,0,.92-1.167,4.023,4.023,0,0,0,.53-1.131,3.056,3.056,0,0,0,.177-1.061A.551.551,0,0,1,6664.048-3298.242Zm-12.552-7.531a2.965,2.965,0,0,1-1.379.318,1.468,1.468,0,0,1-1.025-.495,20.014,20.014,0,0,1-1.874-1.98,3.426,3.426,0,0,1-.813-2.51,1.841,1.841,0,0,1,.6-.6c.02,0,.031-.006.035-.018v-.018a.561.561,0,0,1,.088-.035,1.085,1.085,0,0,1,.194-.071,1.971,1.971,0,0,1,1.379.424,6.077,6.077,0,0,1,.707.99q.424.565.813.99a5.931,5.931,0,0,1,.318.778A10.232,10.232,0,0,0,6651.5-3305.774Zm1.839-5.87a6,6,0,0,0-.212-.813q-.425-1.273-.566-1.874,1.31.106,2.086.177a6.236,6.236,0,0,1,1.874,0q1.061.142,2.192.318,1.838.46,3.642.778a7.381,7.381,0,0,0,6.4-2.51,1.119,1.119,0,0,1,.07.212.143.143,0,0,0,.036.106q.071.6.141,1.273a11.689,11.689,0,0,1-.813.955,6.259,6.259,0,0,1-2.369,1.308,3.328,3.328,0,0,0-.424.177,11.514,11.514,0,0,1-5.622.142,40.052,40.052,0,0,0-4.208-.6A8.949,8.949,0,0,0,6653.335-3311.643Zm39.23,62.673q-.261-.264-.513-.548a16.554,16.554,0,0,1-1.415-1.238,6.655,6.655,0,0,0-.955-.849l.212-.283a.172.172,0,0,0,.035-.035h.036c.118-.071.224-.129.318-.177q.778-.494,1.7-1.1,2.193-1.414,3.713-2.546.353.531.707.99-.248.424-.672,1.132a9.569,9.569,0,0,0-1.237,2.4,5.985,5.985,0,0,0-.142,1.22Zm166.273-103.653a10.539,10.539,0,0,1-1.238-.071,8.058,8.058,0,0,1-1.7-.389,7.2,7.2,0,0,1-2.4-1.2q-.354-.283-.672-.566a7.865,7.865,0,0,1-1.343-1.591,4.97,4.97,0,0,0-.425-.778q-.212.5-.282.707-.213.389-1.132.389a4.229,4.229,0,0,1-2.652-.813v-.106l-.071-.742v-.248a5.6,5.6,0,0,1-.035-.6q-.072-.778-.106-1.344.283.212.6.5l.814.672a11.787,11.787,0,0,1-.07-1.308q.247.672.6,1.98l.07.248.813.106q-.035-1.662-.036-2.016a15.5,15.5,0,0,1,.177-2.015,3.835,3.835,0,0,1,.673-2.192,23.2,23.2,0,0,0,2.616,7.249,12.055,12.055,0,0,0,3.43,3.394v.177l.673-.495A4.029,4.029,0,0,0,6858.838-3352.624Zm-1.768-8.2a4.162,4.162,0,0,1,.53.672,16.457,16.457,0,0,1,3.041,5.657q-3.182-2.546-5.2-8.344a14.055,14.055,0,0,0,1.061,1.344c.166.189.318.366.46.53Zm2.333,8.2.53-.248.177-.5,1.344.106A5.736,5.736,0,0,1,6859.4-3352.624Zm3.607-2.864a15.255,15.255,0,0,0-.425,1.485q-.458.318-.848.565.354-.636,1.061-1.768Zm-9.724,8.026q.213-.035.53-.106.883-.247,1.733-.566a2.594,2.594,0,0,0,1.731.354,8.01,8.01,0,0,0,2.051-.566q1.909-.813,2.192-.99a4.264,4.264,0,0,0,1.768-1.627v.283a7.977,7.977,0,0,0,.354.813v.035a3.8,3.8,0,0,0,.354.566l.248.354.036.035v.035a6.142,6.142,0,0,1-2.334,2.086,30.136,30.136,0,0,1-3.146,1.591,9.983,9.983,0,0,1-3.429.848,3.7,3.7,0,0,1-1.38-.283,1.414,1.414,0,0,1-.6-.919A4.9,4.9,0,0,1,6853.287-3347.461Zm44.269,158.052a39.166,39.166,0,0,1,4.95,1.344l.212.742q.39-.283-.6.6-1.343,1.237-5.657.777-.99-.177-1.768-.318a2.574,2.574,0,0,1,.884-.6,4.032,4.032,0,0,1,1.838,0,4.821,4.821,0,0,1-1.555-1.061,4.671,4.671,0,0,1-.567-.778,1.3,1.3,0,0,1,.708-.494A8.825,8.825,0,0,1,6897.555-3189.409Zm9.9.194a6.855,6.855,0,0,0-.424.76q-.247.424-.459.849a5.215,5.215,0,0,0,.955,4.844l.424.424a5.379,5.379,0,0,0,.619.407,1.522,1.522,0,0,1-.194.088,27,27,0,0,1-2.969.389,6.152,6.152,0,0,1-.072-.884,15.477,15.477,0,0,1,.6-5.2c.04-.172.081-.337.123-.495a9.164,9.164,0,0,1,.478-1.343Q6907-3189.3,6907.456-3189.215Zm-241.321-57.121v.106a18.922,18.922,0,0,1,.283,3.041,8.942,8.942,0,0,0,.389,1.856q.122.441.283.972a14.165,14.165,0,0,1,.671,2.793.775.775,0,0,1-.247.672q-.388-.424-.707-.778a.561.561,0,0,0-.142-.106l-.142-.142q-4.455-1.414-4.667-1.556.2-.33.406-.672c.053-.1.106-.19.159-.283q.53-.99,1.1-2.192a1.881,1.881,0,0,0,.177-.283q.849-1.7,1.45-3.112a7.685,7.685,0,0,0,.354-.813Q6665.71-3246.69,6666.135-3246.336Zm-.813,7.6c.047.024.177.083.389.177q-.248-.141-.46-.283C6665.157-3238.84,6665.18-3238.8,6665.321-3238.734Zm82.88,33.767a.909.909,0,0,0-.212.213.854.854,0,0,1-.389-.142c.016-.085.034-.168.053-.248q.374-2.054.407-2.121.2-.665.354-1.185.275-.9.389-1.326v-.035a5.323,5.323,0,0,0,.212-1.627,13.971,13.971,0,0,1,.354,1.627c.031.261.055.521.071.778.016.144.027.284.036.424a10.051,10.051,0,0,1,.071,1.167.407.407,0,0,0-.071.106,11.688,11.688,0,0,1-1.008,2Q6748.333-3205.14,6748.2-3204.967Zm-16.123,9.9a1.251,1.251,0,0,0,.177.071,1.26,1.26,0,0,0,.283.46,9.885,9.885,0,0,0,5.145,2.157,6.552,6.552,0,0,0,.76.035,5.992,5.992,0,0,0,1.768-.142,1.4,1.4,0,0,0,1.167-1.061v.637q.036.671.07,1.061l.036.354-1.344.424a19.094,19.094,0,0,1-2.3.672,6.84,6.84,0,0,1-3.111-.071c-.081-.023-.157-.047-.23-.071a8.631,8.631,0,0,1-2.457-1.167,3.761,3.761,0,0,1-1.591-2.4,7.365,7.365,0,0,0,.742.035,1.234,1.234,0,0,1,.389.071.391.391,0,0,0,.106.071.435.435,0,0,0,.177.106h.035A5.174,5.174,0,0,0,6732.078-3195.067Z" transform="translate(-28.631 -26.298)" fill="#ed9870" fill-rule="evenodd"/>
    <path id="Path_101145" data-name="Path 101145" d="M6955.824-3240.253a5.58,5.58,0,0,1,1.343,3.783h-1.874l-1.768,1.945-2.758-.106a25.764,25.764,0,0,1-4.7-9.229,16.739,16.739,0,0,0,1.238,1.839q.07.071,2.227,2.122,1.838,1.554,3.005,1.166.318.424.708.884l-.636-3.5a1.029,1.029,0,0,1,.14-.106.326.326,0,0,0,.213,0,.1.1,0,0,0,.07.035l.035-.071A4.545,4.545,0,0,1,6955.824-3240.253Zm-212.7,171.947a13.611,13.611,0,0,0,.336,3.465q.07.425.671,3.819c.048.213.1.424.142.636a23.24,23.24,0,0,0,.778,3.076h.035a3.4,3.4,0,0,0,.566.707,4.293,4.293,0,0,1,.955,1.485q-.282.779-1.415.778a6.642,6.642,0,0,1-4.809-2.44,15.407,15.407,0,0,1-2.121-2.97,25.353,25.353,0,0,1-1.344-2.9q-.672-1.661-1.1-2.546c.024-.211.047-.413.071-.6q.1-1.1.124-2.334a42.758,42.758,0,0,0-.23-4.561q-.6-4.526-.884-7.072c-.046-.236-.083-.46-.106-.671a19.181,19.181,0,0,1,.248-7.62c.041-.229.088-.458.141-.689q.381-1.3.69-2.44.18-.664.336-1.272.439.27.884.565a.125.125,0,0,0,.035.035c.235.166.459.318.672.46a17.579,17.579,0,0,1,4.7,4.243,8.729,8.729,0,0,1,.813,2.085q.2.711.619,2.157c.075.231.151.478.23.742a9.8,9.8,0,0,0,1.167,2.652q-.318,1.379-.919,3.96-.884,3.536-1.131,5.3Q6743.155-3069.238,6743.125-3068.306Zm-73.617-234.3q-.093.345-.194.689a41.476,41.476,0,0,1-1.449,4.278.39.39,0,0,1-.036.177,4.557,4.557,0,0,1-.636.707l-.778.5a.031.031,0,0,1-.035.035.1.1,0,0,0-.071.035.1.1,0,0,0-.071.035l-.035.035h-.036q-.247.106-.53.212a.551.551,0,0,0-.141.106q-.672.177-1.415.318a24.814,24.814,0,0,1-5.339-2.051q-.671-.389-2.051-1.061a7.414,7.414,0,0,1-1.8-1.45,6.16,6.16,0,0,1-.884-1.626,8,8,0,0,0-.849-1.662.39.39,0,0,0-.071-.106,10.232,10.232,0,0,1-.955-2.228,5.931,5.931,0,0,0-.318-.778,4.813,4.813,0,0,0,.46.354q2.158.354,2.688-2.122a1.316,1.316,0,0,0,0-.424,6.672,6.672,0,0,0-.036-.672,8.949,8.949,0,0,1,2.228-.354,40.052,40.052,0,0,1,4.208.6,11.514,11.514,0,0,0,5.622-.142,3.328,3.328,0,0,1,.424-.177,6.259,6.259,0,0,0,2.369-1.308,11.689,11.689,0,0,0,.813-.955A26.22,26.22,0,0,1,6669.509-3302.608Zm30.409,52.631-3.978,2.316a5.985,5.985,0,0,1,.142-1.22,9.569,9.569,0,0,1,1.237-2.4q.425-.706.672-1.132.743,1.026,1.521,1.98Q6699.725-3250.2,6699.917-3249.978Zm124.072-53.2-4.826-2.793c.1-.048.195-.088.283-.124q.071-.035,2.263-2.016c.047.048.094.095.142.141a1.092,1.092,0,0,0,.389.142,2.939,2.939,0,0,1,2.369.919,10.974,10.974,0,0,1,1.378,1.839v.035q-1.095,1.1-1.838,1.732C6824.1-3303.256,6824.044-3303.214,6823.99-3303.174Zm44.216-52.348a2.624,2.624,0,0,1-.105,1.521,4.3,4.3,0,0,1-.955,1.414l-.142.141a7.881,7.881,0,0,1-1.273.955l-.282.141a1.984,1.984,0,0,1-1.414.106q-.283.424-.567.778a13.1,13.1,0,0,1-3.606,3.288,15.526,15.526,0,0,1-2.722,1.379q-.85.318-1.733.566-.317.071-.53.106c-.283.071-.5.118-.637.141a2.422,2.422,0,0,1-1.2-.141,1.447,1.447,0,0,1-.354-.212,2.112,2.112,0,0,1-.459-.46,9.029,9.029,0,0,1-.531-.919q-.671-1.2-1.1-2.051-.319-.6-.53-.99a16.039,16.039,0,0,1-.85-1.909c-.023-.094-.046-.177-.07-.248a6.332,6.332,0,0,1-.317-1.025,9.177,9.177,0,0,1-.249-1.662,4.229,4.229,0,0,0,2.652.813q.92,0,1.132-.389.07-.212.282-.707a4.97,4.97,0,0,1,.425.778,7.865,7.865,0,0,0,1.343,1.591q.319.283.672.566a7.2,7.2,0,0,0,2.4,1.2,8.058,8.058,0,0,0,1.7.389,10.539,10.539,0,0,0,1.238.071,1.367,1.367,0,0,0,.283.106l.283-.106a5.736,5.736,0,0,0,2.051-.637h.177a1.6,1.6,0,0,1,.106-.177q.388-.247.848-.565a15.255,15.255,0,0,1,.425-1.485,6.025,6.025,0,0,1,.212-.6l.071-.212a3.557,3.557,0,0,1,1.451-1.8,2.614,2.614,0,0,1,.813-.248.926.926,0,0,1,.99.354Zm-9.512,68.825q-.548,1.236-1.167,2.882-.379.984-.778,2.122a6.668,6.668,0,0,1-2.122,1.52,3.815,3.815,0,0,1-2.4.318q-1.415-.459-2.156-.742a12.947,12.947,0,0,1-1.981-.99.9.9,0,0,1-.177-.955,7.094,7.094,0,0,0,.39-1.061,18.089,18.089,0,0,1,2.156-2.616q.489-.519,1.061-1.078.744-.734,1.627-1.538.956-.883,2.015-1.8a9.233,9.233,0,0,0,1.521-1.52,10.9,10.9,0,0,0,1.167,1.839,11.561,11.561,0,0,1,.918,3.005.768.768,0,0,1,.106.248C6858.814-3286.947,6858.756-3286.823,6858.694-3286.7Zm9.158,60.764q-.138.559-.177.813a11.536,11.536,0,0,0-.248,1.379q-.144.58-.248.955a16.793,16.793,0,0,1-5.975,1.061,10.716,10.716,0,0,1-1.079-.052q.475-2.16.8-4.049.105-.706.212-1.343c.023-.142.047-.283.072-.425v-.105a41.345,41.345,0,0,0-.072-9.936q.142-.248.283-.531c.061-.117.12-.229.177-.336v9.069a3.441,3.441,0,0,0,1.945,3.182A10.348,10.348,0,0,0,6867.852-3225.933Zm39.143,46.814a21.2,21.2,0,0,1-8.558-1.255,20.251,20.251,0,0,1-3.147-1.5q.036-.282.071-.53a3.744,3.744,0,0,1,.672-1.238,2.552,2.552,0,0,1,.247-.283q.779.142,1.768.318,4.314.46,5.657-.777.99-.885.6-.6l-.212-.742a39.166,39.166,0,0,0-4.95-1.344,36.863,36.863,0,0,1,8.981.036,9.164,9.164,0,0,0-.478,1.343c-.042.157-.083.323-.123.495a15.477,15.477,0,0,0-.6,5.2A6.152,6.152,0,0,0,6906.995-3179.119Zm-236.513-53.851q-.735-.874-1.379-1.591a.775.775,0,0,0,.247-.672,14.165,14.165,0,0,0-.671-2.793q-.16-.53-.283-.972a8.942,8.942,0,0,1-.389-1.856,18.922,18.922,0,0,0-.283-3.041V-3244q.885.778,2.723,2.44.5.177.955.318.5.167.972.336c.126.04.25.081.372.124q3.535,1.217,5.852,2.262.437.2.831.389a15.552,15.552,0,0,1,2.369,1.343q.212.319.778.99a1.14,1.14,0,0,1,.142,1.2,16.809,16.809,0,0,1-1.91,2.156q-.743.706-2.228,1.98a4.837,4.837,0,0,1-2.864.848,7.044,7.044,0,0,1-2.97-.6Q6671.521-3231.746,6670.481-3232.97Zm20.791-16.3c0-.047-.011-.071-.035-.071a.876.876,0,0,0,.248-.212Zm52.507,55.619q.071-.176.142-.318l.283-.955a.767.767,0,0,0,.106-.283.3.3,0,0,0,.036-.141,1.4,1.4,0,0,1,.106-.283,20.011,20.011,0,0,0,.972-2,9.354,9.354,0,0,0,.372-1.114,1.542,1.542,0,0,1-.248-1.025,2.612,2.612,0,0,1,.707-1.7,2.756,2.756,0,0,1,1.591-.884c0,.259-.011.6-.035,1.025a4.466,4.466,0,0,1,.035.99q0,.106-.106,1.662a5.933,5.933,0,0,0,1.061-2.122c.071-.283.142-.59.212-.919a1.072,1.072,0,0,0,.035-.248,4.576,4.576,0,0,0,.742-.672q.132-.173.265-.371a11.688,11.688,0,0,0,1.008-2,.407.407,0,0,1,.071-.106.269.269,0,0,0-.036.106c-.023.4-.047.789-.071,1.167a2.337,2.337,0,0,1-.035.388v.248c-.009.156-.02.309-.036.46-.023.189-.047.389-.07.6-.047.4-.106.8-.177,1.2a12.266,12.266,0,0,1-.283,1.273q-.106.354-.248.707a7.165,7.165,0,0,1-.389.743,7.925,7.925,0,0,1-.459.743,11.491,11.491,0,0,1-.848,1.025q-.193.18-.389.354-.313.259-.637.495a2.541,2.541,0,0,1-.565.425c-.212.117-.412.236-.6.354a13.094,13.094,0,0,1-1.839.848A6.545,6.545,0,0,0,6743.779-3193.651Zm33.8,68.984a6.867,6.867,0,0,1-.389-.6q.009-.785,0-1.5a36.37,36.37,0,0,0-.247-4.225,3.187,3.187,0,0,1,.565.318.414.414,0,0,1,.106.071,6.828,6.828,0,0,0,1.75-.089,2.608,2.608,0,0,0,1.467-.8q.99-1.167.531-2.015a.346.346,0,0,1,.177.141.886.886,0,0,0,.212.106,2.4,2.4,0,0,1,.177.354,4.132,4.132,0,0,0,1.237,1.1,17.544,17.544,0,0,1,2.493,4.756,18.6,18.6,0,0,1,.619,2.139,5.539,5.539,0,0,0,.035,1.025.916.916,0,0,1-.53.778,11.6,11.6,0,0,1-2.263.46,16.006,16.006,0,0,1-2.4.142,4.1,4.1,0,0,1-2.3-.849A6.1,6.1,0,0,1,6777.582-3124.667Z" transform="translate(-30.22 -28.632)" fill="#ffaa83" fill-rule="evenodd"/>
    <path id="Path_101146" data-name="Path 101146" d="M6950.083-3347.464a3.208,3.208,0,0,0-.177.672v.106a4.264,4.264,0,0,1-1.768,1.627q-.283.177-2.192.99a8.01,8.01,0,0,1-2.051.566,2.594,2.594,0,0,1-1.731-.354,15.526,15.526,0,0,0,2.722-1.379,13.1,13.1,0,0,0,3.606-3.288q.283-.353.567-.778a1.984,1.984,0,0,0,1.414-.106c-.048.236-.095.518-.142.849A10.765,10.765,0,0,1,6950.083-3347.464Z" transform="translate(-115.244 -30.573)" fill="#a86c52" fill-rule="evenodd"/>
    <path id="Path_101147" data-name="Path 101147" d="M6896.518-3309.886a5.02,5.02,0,0,1,3.324,1.061,8.349,8.349,0,0,1,2.3,2.935.413.413,0,0,1,.07.106.494.494,0,0,1,.036.212.821.821,0,0,1-.142.212q-2.369,1.733-4.844,3.253a.646.646,0,0,1-.531.106.849.849,0,0,1-.46-.283v-.035a10.96,10.96,0,0,0-1.378-1.839,2.94,2.94,0,0,0-2.369-.919,1.089,1.089,0,0,1-.389-.142c-.048-.046-.095-.094-.142-.141a.443.443,0,0,1-.106-.177.444.444,0,0,1-.035-.389.435.435,0,0,1,.177-.354q.778-.812,1.556-1.556l.035-.071q.743-.778,1.45-1.662a.439.439,0,0,1,.177-.106A6.516,6.516,0,0,1,6896.518-3309.886Zm26.448-32.707a1.449,1.449,0,0,0,.354.212,2.425,2.425,0,0,0,1.2.141c.142-.023.354-.071.637-.141a4.9,4.9,0,0,0,.105,1.944,1.414,1.414,0,0,0,.6.919,3.689,3.689,0,0,0,1.38.283,9.977,9.977,0,0,0,3.429-.848,30.137,30.137,0,0,0,3.146-1.591,6.141,6.141,0,0,0,2.334-2.086v-.035l-.035-.035-.248-.354a3.788,3.788,0,0,1-.354-.565v-.036a8,8,0,0,1-.354-.813v-.389a3.278,3.278,0,0,1,.177-.672,3.724,3.724,0,0,0,.707.955q.6.708,1.344,1.768a7.223,7.223,0,0,1,.5.672c.213.33.471.719.778,1.167a.893.893,0,0,0-.105.212c-.048.024-.071.047-.071.071a1.229,1.229,0,0,0-.142.177q-.141.177-.283.354a20.083,20.083,0,0,1-1.414,1.556q-.425.424-2.228,2.086a24.847,24.847,0,0,1-3.147,2.333,13.344,13.344,0,0,1-3.57,1.556,15.89,15.89,0,0,1-.636-1.839,4.3,4.3,0,0,1-.214-.707c-.07-.306-.177-.7-.316-1.167q-.284.566-.567,1.131-4.137,8.168-6.293,12.411-.955-.814-1.379-1.238.813-1.838,2.228-4.526l2.51-4.7a26.209,26.209,0,0,0,1.167-2.581,15.835,15.835,0,0,0,.6-2.016q-.283.177-.565.318a13.63,13.63,0,0,1-1.557.672,4.512,4.512,0,0,1-.884.248,6.466,6.466,0,0,1,.07-1.344,9.757,9.757,0,0,1,1.062-3.43A.1.1,0,0,1,6922.966-3342.593Z" transform="translate(-100.502 -31.378)" fill="#ecf7ff" fill-rule="evenodd"/>
    <path id="Path_101148" data-name="Path 101148" d="M6968.1-3194.936a20.355,20.355,0,0,1,1.663-4.792,11.963,11.963,0,0,1,4.808-5.2,21.306,21.306,0,0,1,1.8,1.272,14.14,14.14,0,0,1,5.675,10.2,18.567,18.567,0,0,1-.265,4.915q.058-4.709-6.684-7.089a7.01,7.01,0,0,0-5.48.354l-1.7,2.9q-.168.271-.336.531A30.407,30.407,0,0,1,6968.1-3194.936Zm-207.253,145.888.124-.23.531-1.308.071.07c.306.471.507.778.6.919a1.84,1.84,0,0,0,.106.177,5.6,5.6,0,0,1,.777,1.414,2.817,2.817,0,0,0,.212.566l.354.849a7.7,7.7,0,0,0,.354.848q-.248.177-.6.389a8.229,8.229,0,0,0-2.015,1.52,3.706,3.706,0,0,0-.778,1.945,4.565,4.565,0,0,0,.212,2.087,7.5,7.5,0,0,0,1.415,1.52,3.409,3.409,0,0,1,1.061,1.768,16.152,16.152,0,0,1,0,3.394q-.07.85-.212,2.334a9.059,9.059,0,0,0-1.343.105v-3.854a2.642,2.642,0,0,1-.035-.424,28.272,28.272,0,0,0-.459-3.819,3.167,3.167,0,0,0-.6-1.238c-.142-.141-.271-.283-.389-.425q-.565-.53-1.2-1.025a2.315,2.315,0,0,1-.919-1.52,2.366,2.366,0,0,1-.142-.814,2.883,2.883,0,0,1,.637-2.086l1.272-1.7A17.412,17.412,0,0,0,6760.842-3049.048Zm13.843,6.665q.636-.142,1.591-.318,2.688.354,1.1,3.465l-1.909-.106.035.035h-.035A23.24,23.24,0,0,1,6774.685-3042.383Zm123.047-252.034a1.142,1.142,0,0,1,0-.142.146.146,0,0,1,.035.035C6897.758-3294.49,6897.747-3294.454,6897.732-3294.417Zm-5.409,11.049a23.221,23.221,0,0,1-4.88-.195,18.785,18.785,0,0,1-8.769-3.323,6.95,6.95,0,0,1-2.935-3.748,4.1,4.1,0,0,1-.141-1.7,5.021,5.021,0,0,1,.495-1.485q.071.5.177,1.132,2.582,5.02,12.977,6.4.814.036,1.591.035a11.791,11.791,0,0,0,2.988-.406Q6893.169-3285.229,6892.323-3283.368ZM6974-3154.611a24.776,24.776,0,0,1-2.617-.99q-3.854-1.768-8.062-3.961.884-3.005,1.485-6.046.58-3.1,1.061-6.205,3.316-2.018,6.541-4.3a63.538,63.538,0,0,0,6.046-4.773,20.849,20.849,0,0,0,2.44-4.014q-1.336,5.006-2.193,9.989A178.532,178.532,0,0,1,6974-3154.611Zm-188.107,38.966c-.023-.048-.046-.095-.071-.142a21.207,21.207,0,0,0-1.626-2.793,13.89,13.89,0,0,0-7.39-5.693q-3.783-1.13-6.93-2.3a17.906,17.906,0,0,0,8.309-.884,9.355,9.355,0,0,0,3.005-1.733,4.523,4.523,0,0,0,1.45-2.616,3.369,3.369,0,0,1,.354-.248l-.071-1.1.106.282,2.263,6.046.778,2.051a2.588,2.588,0,0,0,.036.424v.106q.106.779.141,1.662a1.047,1.047,0,0,0,.036.248v.212c0,.283.012.566.035.849q-.071.566-.106,1.1Q6786-3117.908,6785.894-3115.645Zm-28.428-17.22a6.279,6.279,0,0,1-.919-.812,11.021,11.021,0,0,1-.884-.991l.036-.035a.1.1,0,0,1,.035-.071l.035-.035a.032.032,0,0,1,.036-.035l1.521-1.733a3.675,3.675,0,0,0-.318,1.132A4.362,4.362,0,0,0,6757.465-3132.865Zm8.521,95.68v-.141q.425.211.884.459Z" transform="translate(-60.63 -46.635)" fill="#383980" fill-rule="evenodd"/>
    <path id="Path_101149" data-name="Path 101149" d="M6944.476-3277.82q1.1-1.344,1.874-2.228a65,65,0,0,0,5.145-7.867q.675.99,1.22,1.962-.46.567-1.131,1.415-2.262,2.652-7.143,7.92-3.352,3.648-7.425,7.938c.062-.126.121-.25.177-.371a.377.377,0,0,1,.037-.177,3.206,3.206,0,0,0,.282-.566v-.035q1.131-1.414,2.581-3.147a2.638,2.638,0,0,0,1.415-.919h.036c.235-.283.46-.542.671-.778q1.309-1.485,2.3-2.652a.623.623,0,0,0,.071-.283C6944.6-3277.678,6944.569-3277.749,6944.476-3277.82Zm-6.117-1.733a.347.347,0,0,0-.142-.035.744.744,0,0,0-.177.035l-.142.142q-.814,1.521-1.555,2.687-.5.708-.884,1.2a.619.619,0,0,0-.071.283.43.43,0,0,0,.071.248.59.59,0,0,1,.141.106c-.141.189-.271.366-.389.531a.343.343,0,0,0-.141.177.1.1,0,0,0-.071.035,9.233,9.233,0,0,1-1.521,1.52q-1.061.92-2.015,1.8-1.273.319-1.308.318a5.521,5.521,0,0,0-1.362.619l-9.1-5.25q-.173-2.022-.389-4.066-.39-6.082,4.562-15.134a.432.432,0,0,1,.106-.177q0,.318.035.707a5.021,5.021,0,0,0-.495,1.485,4.1,4.1,0,0,0,.141,1.7,6.95,6.95,0,0,0,2.935,3.748,18.785,18.785,0,0,0,8.769,3.323,23.221,23.221,0,0,0,4.88.195c-.092.2-.187.407-.284.619Q6939.137-3281.038,6938.359-3279.552Z" transform="translate(-108.541 -46.65)" fill="#87264f" fill-rule="evenodd"/>
    <path id="Path_101150" data-name="Path 101150" d="M6947.543-3271.464q1.95,1.011,3.146-.141a.306.306,0,0,1,.247-.142.238.238,0,0,1,.213.106q.141.106.105.212a.63.63,0,0,1-.07.283q-.99,1.167-2.3,2.652c-.211.236-.436.5-.671.778h-.036a2.638,2.638,0,0,1-1.414.919q-1.874.46-4.49-1.91a.617.617,0,0,0-.141-.106.43.43,0,0,1-.071-.248.62.62,0,0,1,.071-.283q.388-.494.884-1.2.741-1.167,1.555-2.687l.142-.142a.768.768,0,0,1,.177-.036.341.341,0,0,1,.142.036h.07v.035A12.277,12.277,0,0,0,6947.543-3271.464Z" transform="translate(-115.215 -52.828)" fill="#e8f2ff" fill-rule="evenodd"/>
    <path id="Path_101151" data-name="Path 101151" d="M6796.651-3250.411l-19.589-11.315,63.009-36.384,15.77,9.1,4.826,2.793,17.378,10.024,9.1,5.25q-.356.228-.725.513a22.8,22.8,0,0,0-1.8,1.52.883.883,0,0,0-.213.955,4.783,4.783,0,0,0,.46.955,12.628,12.628,0,0,1,2.263-2.263,18.089,18.089,0,0,0-2.156,2.616,7.094,7.094,0,0,1-.39,1.061.9.9,0,0,0,.177.955,12.947,12.947,0,0,0,1.981.99q.741.283,2.156.742a3.815,3.815,0,0,0,2.4-.318,6.668,6.668,0,0,0,2.122-1.52q.4-1.137.778-2.122l8.875,5.127-17.749,10.254a5.447,5.447,0,0,0-.39,1.839,5.946,5.946,0,0,0,.036.6q.14,2.581,1.945,3.359a5,5,0,0,0,.918.248,15.763,15.763,0,0,0,3.465.071h.6a9.547,9.547,0,0,1,3.783.318,3.221,3.221,0,0,1,1.839,2.475,7.278,7.278,0,0,1,.141,1.1v.813a6.757,6.757,0,0,1-.212,1.414,7.777,7.777,0,0,1-2.122,3.96,10.325,10.325,0,0,1-2.58,1.909,16.145,16.145,0,0,1-5.782,1.962,17.634,17.634,0,0,1-2.387.159,7.367,7.367,0,0,1-5.127-1.556,8.5,8.5,0,0,1-1.945-3.394,10.314,10.314,0,0,0-1.768-3.394,6.091,6.091,0,0,0-4.6-1.556,32.358,32.358,0,0,0-5.269.884l-25.812,14.921-29.241-16.866q0-3.076,2.122-4.1a14.255,14.255,0,0,1,4.6-.778,14.976,14.976,0,0,0,3.819-.6,3.633,3.633,0,0,0,.813-.354q2.087-1.273,2.086-4.773,0-3.96-6.364-6.647a24.5,24.5,0,0,0-9.512-2.157q-3.076,0-4.1,1.768a14.876,14.876,0,0,0-.99,3.889,6.6,6.6,0,0,1-1.91,3.889A8.441,8.441,0,0,1,6796.651-3250.411Z" transform="translate(-66.897 -45.596)" fill="#9ddfd3" fill-rule="evenodd"/>
    <path id="Path_101152" data-name="Path 101152" d="M6931.562-3260.076a12.628,12.628,0,0,0-2.263,2.263,4.81,4.81,0,0,1-.46-.955.884.884,0,0,1,.213-.955,22.892,22.892,0,0,1,1.8-1.52q.368-.285.725-.513a5.521,5.521,0,0,1,1.362-.619q.035,0,1.308-.318-.883.8-1.627,1.538Q6932.051-3260.595,6931.562-3260.076Zm6.824-6.683q2.618,2.369,4.49,1.909-1.449,1.732-2.581,3.147v.035a3.169,3.169,0,0,1-.281.566.371.371,0,0,0-.037.177.768.768,0,0,0-.105-.248,11.574,11.574,0,0,0-.919-3.005,10.922,10.922,0,0,1-1.167-1.839.1.1,0,0,1,.07-.035.344.344,0,0,1,.142-.177Q6938.174-3266.476,6938.386-3266.759Z" transform="translate(-111.326 -54.776)" fill="#e6987b" fill-rule="evenodd"/>
    <path id="Path_101153" data-name="Path 101153" d="M6899.983-3230.288h-.566a15.76,15.76,0,0,1-3.465-.071,5,5,0,0,1-.918-.248q-1.8-.777-1.945-3.359a5.946,5.946,0,0,1-.036-.6,5.449,5.449,0,0,1,.39-1.839l17.749-10.254v9.9Zm-47.911,27.633-3.89,2.245v-9.865l25.812-14.921a32.341,32.341,0,0,1,5.269-.884,6.09,6.09,0,0,1,4.6,1.556,10.31,10.31,0,0,1,1.768,3.394,8.5,8.5,0,0,0,1.945,3.395,7.367,7.367,0,0,0,5.127,1.556,17.6,17.6,0,0,0,2.387-.159,16.14,16.14,0,0,0,5.782-1.962,10.331,10.331,0,0,0,2.58-1.909,7.778,7.778,0,0,0,2.122-3.96,6.757,6.757,0,0,0,.212-1.415l-.035,10.254a.6.6,0,0,1-.035.177c-.008.1-.02.191-.036.283a6.531,6.531,0,0,1-.248,1.184c-.014.031-.025.061-.035.088a7.722,7.722,0,0,1-1.945,3.289,11.687,11.687,0,0,1-2.58,1.91,16.1,16.1,0,0,1-2.971,1.308,16.506,16.506,0,0,1-5.2.813,7.367,7.367,0,0,1-5.127-1.556,8.856,8.856,0,0,1-1.945-3.395,9.823,9.823,0,0,0-1.768-3.394,6.09,6.09,0,0,0-4.6-1.556,32.376,32.376,0,0,0-5.269.884Zm-41.529-25.794q-.746-.378-1.608-.743a29.963,29.963,0,0,0-4.172-1.432v-4.72a8.443,8.443,0,0,0,4.738-1.662,6.6,6.6,0,0,0,1.91-3.889,14.875,14.875,0,0,1,.99-3.89q1.025-1.768,4.1-1.768a24.5,24.5,0,0,1,9.512,2.157q6.364,2.687,6.364,6.647,0,3.5-2.086,4.773a3.644,3.644,0,0,1-.813.354,16.773,16.773,0,0,0-3.465-1.91,24.5,24.5,0,0,0-9.512-2.157q-3.076,0-4.1,1.8a14.734,14.734,0,0,0-.99,3.854A8.4,8.4,0,0,1,6810.543-3228.449Z" transform="translate(-75.008 -60.662)" fill="#618a83" fill-rule="evenodd"/>
    <path id="Path_101154" data-name="Path 101154" d="M6986.043-3184.14a6.5,6.5,0,0,0,0-.743,7.181,7.181,0,0,0-1.273-3.96l1.768-1.944h1.874a10.006,10.006,0,0,0,.99.248,9.609,9.609,0,0,0,5.375-.531l.707-.565q1.061-.849,2.051-1.662l.742,2.971.53.636h.072a27.754,27.754,0,0,1-11.333,5.321Q6986.8-3184.231,6986.043-3184.14Zm-227.319,132.947a27.11,27.11,0,0,0,9.229,2.616q-.212.85-.495,1.8-.155.608-.336,1.272-.308,1.141-.69,2.44c-.053.231-.1.46-.141.689a19.182,19.182,0,0,0-.248,7.621c.023.211.06.436.106.671a6.973,6.973,0,0,1-1.343-3.323q-.636-4.28-.955-5.446a14.643,14.643,0,0,0-4.349-6.365q-.531-.389-.99-.742a.792.792,0,0,1,.035-.248v-.105a2.782,2.782,0,0,1,.106-.46v-.07C6758.678-3050.957,6758.7-3051.075,6758.724-3051.192Zm126.441-137.438-.07-.566-.283-1.768v-.07q-.244-1.257-.459-2.4a16.1,16.1,0,0,0,2.971-1.308,11.687,11.687,0,0,0,2.58-1.91,7.722,7.722,0,0,0,1.945-3.289c.01-.028.021-.058.035-.088q.066.785.106,1.68-.425.39-.884.849a31.024,31.024,0,0,0-4.243,4.632A43.52,43.52,0,0,0,6885.166-3188.631Z" transform="translate(-61.465 -74.315)" fill="#ce7c56" fill-rule="evenodd"/>
    <path id="Path_101155" data-name="Path 101155" d="M6699.453-3209.336l3.978-2.316,23.39-13.507,19.588,11.315a8.444,8.444,0,0,0,4.738-1.662,6.6,6.6,0,0,0,1.91-3.889,15.5,15.5,0,0,1,.99-3.89,3,3,0,0,1,.778-.884,5.372,5.372,0,0,1,3.323-.884,21.176,21.176,0,0,1,5.339.725,29.963,29.963,0,0,1,4.172,1.432q.862.365,1.608.743,4.756,2.481,4.756,5.9a8.63,8.63,0,0,1-.142,1.626,4.351,4.351,0,0,1-1.944,3.146,2.973,2.973,0,0,1-.778.354,13.451,13.451,0,0,1-3.818.6,14.383,14.383,0,0,0-4.632.778q-2.087,1.025-2.086,4.1l8.451,4.879,20.755,11.986-22.134,12.8v.018q-.034.487-.035,1.079,0,3.641,2.829,4.207a12.569,12.569,0,0,0,2.864.142q1.379-.035,2.157-.105c.636-.025.966-.036.99-.036q1.769,0,3.218,2.122a7.607,7.607,0,0,1,1.379,4.137v.283a7.4,7.4,0,0,1-.619,2.705,10.962,10.962,0,0,1-1.255,2.139,21.753,21.753,0,0,1-4.49,4.208,29.546,29.546,0,0,1-5.233,3.04,11.342,11.342,0,0,1-4.278,1.167q-.787,0-1.5-.052c-.1-.009-.21-.022-.318-.036a9.6,9.6,0,0,1-4.155-1.29.1.1,0,0,0-.071-.036,4.241,4.241,0,0,1-1.874-2.192,3.761,3.761,0,0,1-.142-.53,4.565,4.565,0,0,1-.071-.813,14.362,14.362,0,0,1,1.061-2.4,8.154,8.154,0,0,0,1.061-3.253,4.253,4.253,0,0,0-.672-2.829,4.163,4.163,0,0,0-2.864-.707,7.417,7.417,0,0,0-1.167.141v-.248a2.335,2.335,0,0,0,.035-.388c.024-.378.047-.767.071-1.167a.268.268,0,0,1,.036-.106,10.055,10.055,0,0,0-.071-1.167c-.008-.14-.02-.281-.036-.424-.016-.257-.04-.517-.071-.778a13.966,13.966,0,0,0-.354-1.626,2.393,2.393,0,0,1-.035-.388l-.071-.319.743.319a21.087,21.087,0,0,1,.636,2.05c.017.076.035.153.053.229q.206.977.3,1.644a9.158,9.158,0,0,0,.354-.955q.137-.614.23-1.2a14.433,14.433,0,0,0,.159-1.768,8.949,8.949,0,0,0-.5-3.112,7.861,7.861,0,0,0-1.662-2.793,7.489,7.489,0,0,0-2.687-1.98,4.5,4.5,0,0,0-1.874-.283,7.1,7.1,0,0,0-3.677-1.98,7.007,7.007,0,0,0-3.111.141,17.6,17.6,0,0,0-2.687.814c-.235.093-.459.188-.671.282q-.248-.247-.5-.459a6.881,6.881,0,0,0-4.879-1.663,7.337,7.337,0,0,0-4.844,1.733,6.291,6.291,0,0,0-2.228,5.021,7.542,7.542,0,0,0,.177,1.379,11.5,11.5,0,0,0,.884,2.758,6.514,6.514,0,0,0,3.536,3.43,16.373,16.373,0,0,0,.106,2.4,17.1,17.1,0,0,0,.459,2.44,10.986,10.986,0,0,0,2.758,4.808q.34.359.672.672l-1.52.884q-.672-.85-1.061-1.274c-.165-.166-.318-.306-.459-.424a2.7,2.7,0,0,0-1.131-.495.177.177,0,0,0-.177.035,5.41,5.41,0,0,0-1.662.99,15.754,15.754,0,0,0-1.45,1.2,4.517,4.517,0,0,0-2.4,3.005q-.086.315-.141.619l-61.948-35.765,10.183-5.869q1.039,1.224,2.263,2.758a7.045,7.045,0,0,0,2.97.6,4.836,4.836,0,0,0,2.864-.849q1.485-1.273,2.228-1.98a16.826,16.826,0,0,0,1.91-2.156,1.141,1.141,0,0,0-.142-1.2q-.566-.671-.778-.99a15.572,15.572,0,0,0-2.369-1.343l14.727-8.5Z" transform="translate(-33.734 -66.957)" fill="#ffc93c" fill-rule="evenodd"/>
    <path id="Path_101156" data-name="Path 101156" d="M6777.062-3246.659l19.589,11.315v4.72a21.176,21.176,0,0,0-5.339-.725,5.372,5.372,0,0,0-3.323.884l-10.926-6.294Zm33.768,19.518,29.241,16.866v9.865l-3.889-2.245-25.352-14.586Z" transform="translate(-66.897 -60.662)" fill="#6d9c93" fill-rule="evenodd"/>
    <path id="Path_101157" data-name="Path 101157" d="M6795.165-3196.4l-8.45-4.88q0-3.076,2.086-4.1a14.384,14.384,0,0,1,4.632-.778,13.448,13.448,0,0,0,3.818-.6,2.957,2.957,0,0,0,.778-.354,4.348,4.348,0,0,0,1.944-3.147l.036,9.865a4.348,4.348,0,0,1-1.98,3.183A7.745,7.745,0,0,1,6795.165-3196.4Zm6.436,30.126q-.778.07-2.157.106a12.564,12.564,0,0,1-2.863-.142q-2.829-.565-2.829-4.207c0-.4.013-.754.035-1.079v-.018l22.135-12.8v9.9Zm-13.365,29.382a8.539,8.539,0,0,1-2.9-1.1,4.108,4.108,0,0,1-2.157-3.5v-1.007l.071-7.709v-.442a7.311,7.311,0,0,0-.937-.088q-.262-.017-.548-.018a48.853,48.853,0,0,0-7.956,1.838q-.646.18-1.237.354v-.035a9.185,9.185,0,0,1,.53-1.7q.177-.388.283-.672a6.493,6.493,0,0,1,.672-.318,13.145,13.145,0,0,0,1.839-.848q.283-.177.6-.354a2.53,2.53,0,0,0,.565-.425q.324-.237.637-.495.2-.173.39-.354a11.485,11.485,0,0,0,.848-1.025,7.929,7.929,0,0,0,.46-.743,7.163,7.163,0,0,0,.389-.743c.095-.235.177-.471.248-.707a12.138,12.138,0,0,0,.282-1.273c.071-.4.131-.8.178-1.2.022-.212.047-.412.07-.6.016-.151.026-.3.035-.46a7.4,7.4,0,0,1,1.167-.141,4.165,4.165,0,0,1,2.864.707,4.253,4.253,0,0,1,.672,2.829,8.155,8.155,0,0,1-1.062,3.253,14.359,14.359,0,0,0-1.061,2.4,4.561,4.561,0,0,0,.071.813,3.743,3.743,0,0,0,.142.53,4.24,4.24,0,0,0,1.873,2.192.1.1,0,0,1,.071.036,9.6,9.6,0,0,0,4.154,1.29c.107.014.214.027.318.036q.716.052,1.5.052a11.347,11.347,0,0,0,4.278-1.167,29.563,29.563,0,0,0,5.233-3.04,21.766,21.766,0,0,0,4.49-4.208,10.959,10.959,0,0,0,1.255-2.139,7.4,7.4,0,0,0,.619-2.7l-.018,2.865-.019,6.152a.284.284,0,0,1,0,.071l-3.924,2.264v5.657a28.484,28.484,0,0,1-2.4,1.945,30.134,30.134,0,0,1-3.643,2.262q-.788.419-1.591.778a17.875,17.875,0,0,1-1.963.743,5.815,5.815,0,0,0-2.422-.389A16.681,16.681,0,0,0,6788.235-3136.89Zm-25.812-15.805q.388.389.53.566a7.978,7.978,0,0,1,.283,1.308l-.036-.035a1.06,1.06,0,0,0-.884.035q-.955-.565-1.379-.777a.257.257,0,0,0-.106-.036c-.187-.259-.354-.483-.494-.671l1.52-.884C6762.048-3153.015,6762.237-3152.85,6762.424-3152.7Zm-9.459,14.5-.053.036v-.2C6752.928-3138.3,6752.945-3138.249,6752.965-3138.2Z" transform="translate(-59.825 -71.321)" fill="#ad8928" fill-rule="evenodd"/>
    <path id="Path_101158" data-name="Path 101158" d="M6819.978-3130.357l6.259-3.606,11.951-6.9,26.2,15.1a4,4,0,0,0,2.652-1.7,9.619,9.619,0,0,0,.884-4.1,11.1,11.1,0,0,1,.778-4.172,3.206,3.206,0,0,1,.99-1.079,5.34,5.34,0,0,1,3.111-.8,16.6,16.6,0,0,1,4.314.707,24.477,24.477,0,0,1,5.268,2.157,17.853,17.853,0,0,1,2.9,1.945,9.888,9.888,0,0,1,2.688,3.289,7.219,7.219,0,0,1,.742,3.217,7.469,7.469,0,0,1-.071,1.061,3.724,3.724,0,0,1-1.591,2.617,6.024,6.024,0,0,1-.884.494,15.574,15.574,0,0,1-2.758.778,10.591,10.591,0,0,0-3.642,1.273,3.766,3.766,0,0,0-1.521,2.334l8.769,5.056,8.415,4.844,5.763,3.323-63.009,36.384-25.776-14.885a24.493,24.493,0,0,0-3.748-2.971,5.448,5.448,0,0,1-1.308-1.343.306.306,0,0,0-.036-.142,51.6,51.6,0,0,1-2.546-4.632q-1.166-2.475-2.4-4.986h-.035a41.074,41.074,0,0,1-1.91-4.384.1.1,0,0,0,.036-.071c-.1-.31-.211-.617-.318-.918-.087-.262-.175-.523-.265-.779a8.039,8.039,0,0,0,1.061-3.235,6.424,6.424,0,0,0-1.291-4.4,25.8,25.8,0,0,0-1.98-3.536,2.021,2.021,0,0,0-.318-.318q-.316-.367-.636-.707,2.618-.721,4.349-1.132a16.683,16.683,0,0,1,2.97-.53,5.817,5.817,0,0,1,2.422.389,1.831,1.831,0,0,1,.442.318,2.885,2.885,0,0,1,.6,1.7,8.043,8.043,0,0,1,.071,1.131,3.13,3.13,0,0,1-.071.6,10.227,10.227,0,0,1-.99,2.652,14.371,14.371,0,0,0-1.061,2.4v.265c.017.178.04.361.071.548a4.1,4.1,0,0,0,1.98,2.688c.024,0,.036.011.036.035a.1.1,0,0,1,.07.035,11.388,11.388,0,0,0,5.976,1.344,11.639,11.639,0,0,0,4.278-1.132,29.487,29.487,0,0,0,5.233-3.041,21.2,21.2,0,0,0,4.49-4.243c.048-.063.1-.127.142-.194a8.329,8.329,0,0,0,1.733-4.649v-.248a7.484,7.484,0,0,0-1.379-4.137q-1.45-2.122-3.217-2.122l-.99.035q-.778.035-2.157.107c-.454.017-.871.022-1.255.017a9.334,9.334,0,0,1-1.608-.159,3.363,3.363,0,0,1-1.662-.813,4.109,4.109,0,0,1-1.131-2.829v-1.7Z" transform="translate(-72.651 -91.644)" fill="#cc3d60" fill-rule="evenodd"/>
    <path id="Path_101159" data-name="Path 101159" d="M6845.693-3054.483l-3.89,2.245v-9.9l63.009-36.384v9.9l-8.008,4.632-30.3,17.485Zm-14.5-50.934a5.808,5.808,0,0,0-.707-.689l-1.025-.584a2.838,2.838,0,0,0-.99-.177q-.072,0-3.147.142a12.521,12.521,0,0,1-2.864-.142q-2.829-.6-2.829-4.243c0-.4.012-.766.036-1.1v-8.2a4.109,4.109,0,0,0,1.131,2.829,3.363,3.363,0,0,0,1.662.813,9.286,9.286,0,0,0,1.608.159c.384.006.8,0,1.255-.017q1.378-.072,2.157-.107l.99-.035q1.768,0,3.217,2.122a7.485,7.485,0,0,1,1.379,4.137v.248a8.328,8.328,0,0,1-1.733,4.649C6831.292-3105.544,6831.244-3105.48,6831.2-3105.417Zm-20.083-1.556v8.557a4.1,4.1,0,0,1-1.98-2.688c-.031-.187-.054-.37-.071-.548v-.265a14.381,14.381,0,0,1,1.061-2.4A10.221,10.221,0,0,0,6811.113-3106.973Zm81.147-12.27.071,9.229a4.07,4.07,0,0,1-1.662,3.289.031.031,0,0,1-.035.035l-8.769-5.056a3.765,3.765,0,0,1,1.521-2.334,10.586,10.586,0,0,1,3.642-1.273,15.616,15.616,0,0,0,2.758-.778,6,6,0,0,0,.884-.494A3.724,3.724,0,0,0,6892.26-3119.242Z" transform="translate(-76.268 -97.632)" fill="#9e2f4a" fill-rule="evenodd"/>
    <path id="Path_101160" data-name="Path 101160" d="M6884.962-3167.569l26.165,15.133v4.879a17.811,17.811,0,0,0-2.9-1.945,24.462,24.462,0,0,0-5.268-2.157,16.6,16.6,0,0,0-4.314-.707,5.342,5.342,0,0,0-3.111.8l-10.572-6.1Zm55.266-9.9a12.325,12.325,0,0,0-4.03-.211.578.578,0,0,1-.071,0,10.35,10.35,0,0,1-4.314-.319,3.442,3.442,0,0,1-1.944-3.183v-10.077a8.188,8.188,0,0,0,.088.831,3.181,3.181,0,0,0,1.856,2.528,10.8,10.8,0,0,0,4.386.354,5.457,5.457,0,0,1,.6-.035,16.808,16.808,0,0,1,2.051,0,5.394,5.394,0,0,1,1.732.317q1.98.85,1.98,3.89A8.153,8.153,0,0,1,6940.228-3177.469Zm3.854,53.9-14.815-8.539-4.242-2.439v-9.9l22.947,13.259v9.865Z" transform="translate(-98.493 -76.884)" fill="#466923" fill-rule="evenodd"/>
    <path id="Path_101161" data-name="Path 101161" d="M6872.581-3157.159l-22.947-13.26a3.765,3.765,0,0,1,1.521-2.334,10.589,10.589,0,0,1,3.643-1.273,16.847,16.847,0,0,0,2.757-.778,4.384,4.384,0,0,0,.884-.46,3.964,3.964,0,0,0,.53-.442,4.5,4.5,0,0,0,1.133-3.271,7.8,7.8,0,0,0-2.405-5.552,13.326,13.326,0,0,0-2-1.7,18.739,18.739,0,0,0-1.927-1.2,22.126,22.126,0,0,0-3.624-1.609c-.092-.038-.187-.074-.283-.106a.433.433,0,0,0-.07-.017c-.42-.141-.852-.27-1.291-.39a21.545,21.545,0,0,0-2.175-.494,12.206,12.206,0,0,0-2.138-.213,7.173,7.173,0,0,0-1.751.194,3.733,3.733,0,0,0-1.839,1.008,3.038,3.038,0,0,0-.513.672,4.13,4.13,0,0,0-.354.9,17.406,17.406,0,0,0-.425,3.235c-.011.16-.023.313-.035.46a9.3,9.3,0,0,1-.849,3.643,4.144,4.144,0,0,1-2.687,1.732l-26.165-15.134,11.633-6.718,14.179-8.167a31.122,31.122,0,0,1,5.27-.92,6.091,6.091,0,0,1,4.6,1.556,10.394,10.394,0,0,1,1.768,3.394c.094.26.188.508.282.743a7.379,7.379,0,0,0,1.663,2.652,6.407,6.407,0,0,0,3.8,1.484c.08.009.162.016.247.018a10.709,10.709,0,0,0,1.079.052,16.8,16.8,0,0,0,5.975-1.061q.775-.3,1.521-.671.338-.168.671-.354a11.67,11.67,0,0,0,2.582-1.91,8.152,8.152,0,0,0,2.334-5.9q0-3.04-1.98-3.889a5.393,5.393,0,0,0-1.732-.318,16.808,16.808,0,0,0-2.051,0,5.518,5.518,0,0,0-.6.035,10.8,10.8,0,0,1-4.386-.354,3.181,3.181,0,0,1-1.856-2.528,8.2,8.2,0,0,1-.088-.831v-.141a2.585,2.585,0,0,1-.034-.424,5.532,5.532,0,0,1,.388-1.875l9.388-5.427,8.362-4.826,59.65,34.475a20.333,20.333,0,0,0-1.663,4.792ZM6641.62-3271.65q.177.673.46,1.627a19.347,19.347,0,0,0,2.228,4.844,14.293,14.293,0,0,0,12.764,6.824q4.456,0,6.047-3.253a5.5,5.5,0,0,0,.247-.566,12.953,12.953,0,0,0,.672-4.6,10.411,10.411,0,0,0-1.839-5.445,18.862,18.862,0,0,0-1.873-2.475,2.431,2.431,0,0,1-.248.212,4.56,4.56,0,0,0,.637-.707.4.4,0,0,0,.035-.177,41.476,41.476,0,0,0,1.449-4.278,18.569,18.569,0,0,1,3.748,1.874,12.474,12.474,0,0,1,1.556,1.2,56.54,56.54,0,0,1,2.3,6.294,28.34,28.34,0,0,0-1.1-5.9,24.755,24.755,0,0,0-1.309-3.783,5.655,5.655,0,0,1,.955.636,7.724,7.724,0,0,1,2.3,3.006,12.249,12.249,0,0,1,1.025,3.465,34.869,34.869,0,0,1,1.1,6.577,40.8,40.8,0,0,0,.885,4.809q.353,1.732,1.272,4.773.07.177,1.379,4.562a45.768,45.768,0,0,0,1.414,4.49l-.035.035a7.087,7.087,0,0,0,1.591,2.192q1.811,1.811,2.087,2.122a.239.239,0,0,0,.035.035,25.968,25.968,0,0,1,3.146,4.49q.885,1.733,1.769,3.253a11.742,11.742,0,0,0,.636.99,8.414,8.414,0,0,0-1.449.566q-1.626.708-2.9,1.308c-.117-.212-.248-.424-.39-.636q-1.554-2.652-4.03-6.294-4.74-6.912-6.329-9.512a65.1,65.1,0,0,1-1.22,7.814q-.19.884-.407,1.768a19.234,19.234,0,0,0-.177,8.274,13.79,13.79,0,0,1-.105,6.612,10.339,10.339,0,0,1-4.243,5.693c-.146.092-.293.192-.442.3q-.475-.17-.972-.336-.46-.141-.955-.318-1.838-1.661-2.723-2.44c-.282-.236-.5-.4-.637-.5q-1.626-1.237-2.687-2.122a8.035,8.035,0,0,0-.566.636,16.62,16.62,0,0,0-1.979,3.006q-1.944-1.131-4.42-2.334-1.109-.542-2.1-1.061a28.912,28.912,0,0,1-6.983-4.7,16.417,16.417,0,0,1-2.369-3.165,4.357,4.357,0,0,0-.672-1.238q-.546-1.1-1.025-2.351a23.42,23.42,0,0,1-.92-2.475q-.741-2.263-1.556-5.48-1.307-5.057-2.015-7.213-.212-.708-.46-1.379a35.964,35.964,0,0,0-2.068-4.543,14.9,14.9,0,0,0-2.634-3.554q1.828-3.532,4.419-4.349a5.57,5.57,0,0,1,2.263-.212q4.456.177,5.8,6.223l.459,11.138,2.44,9.406q.778.813,1.626,1.591.6.5,1.2,1.025.328.274.637.583a65.994,65.994,0,0,0-2.935-11.191,9.642,9.642,0,0,1-.707-3.43q-.072-.708-.071-3.96-.035-5.3-1.591-8.062-2.581-4.526-5.3-6.082A37.641,37.641,0,0,0,6641.62-3271.65Zm7.5,56.327q-.035-1.591-.283-3.678a2.485,2.485,0,0,0-.035-.424v-.018q1.626.994,4.243,2.6,1.143.681,2.475,1.485a27.072,27.072,0,0,1-2.9.213A25.165,25.165,0,0,1,6649.116-3215.323Z" transform="translate(-23.104 -50.91)" fill="#81c140" fill-rule="evenodd"/>
    <path id="Path_101162" data-name="Path 101162" d="M6652.675-3217.283q-2.617-1.6-4.243-2.6v.018a2.483,2.483,0,0,1,.036.424q.248,2.087.283,3.678a1.145,1.145,0,0,1-.283-.036l-4.031-.813q-4.668-1.307-6.259-4.384a9.3,9.3,0,0,1-.459-6.223q-.9-.746-1.768-1.52a5.156,5.156,0,0,1-1.343-1.556,52.293,52.293,0,0,1-2.723-5.834q-1.273-3.146-2.4-6.294-1.167-3.323-2.228-6.683-.354-1.026-.672-2.051a19.816,19.816,0,0,1,.566-9.476,14.875,14.875,0,0,1,2.634,3.554,35.827,35.827,0,0,1,2.068,4.543q.248.672.46,1.379.708,2.158,2.015,7.213.814,3.218,1.556,5.48a23.449,23.449,0,0,0,.919,2.475q.48,1.25,1.025,2.351a4.359,4.359,0,0,1,.672,1.238,16.472,16.472,0,0,0,2.369,3.165,28.929,28.929,0,0,0,6.983,4.7q1,.519,2.1,1.061,2.476,1.2,4.419,2.334a12.923,12.923,0,0,0-.743,1.52l-.636,1.485Q6652.853-3217.708,6652.675-3217.283Zm-17.29-50.668q2.722,1.556,5.3,6.082,1.556,2.758,1.591,8.062,0,3.253.071,3.96a9.645,9.645,0,0,0,.707,3.43,65.994,65.994,0,0,1,2.935,11.191q-.308-.31-.636-.583-.6-.53-1.2-1.025-.848-.778-1.626-1.591l-2.44-9.405-.459-11.138q-1.343-6.047-5.8-6.223a5.57,5.57,0,0,0-2.263.212,8.211,8.211,0,0,1,2.864-2.439Q6634.925-3267.669,6635.385-3267.952Zm24.327-6.966a2.372,2.372,0,0,0,.248-.212,18.881,18.881,0,0,1,1.874,2.475,10.413,10.413,0,0,1,1.839,5.445,12.954,12.954,0,0,1-.672,4.6,5.52,5.52,0,0,1-.248.565q-1.592,3.254-6.046,3.253a14.294,14.294,0,0,1-12.764-6.824,19.345,19.345,0,0,1-2.228-4.844q-.282-.955-.46-1.626.849-.743,1.627-1.521a3.329,3.329,0,0,0,.636,2.793q.177.212.318.389l2.192,2.263q2.511,2.476,5.2,4.844a12.98,12.98,0,0,0,4.6,2.582l1.273-7.39a11.743,11.743,0,0,0,1.308-.141.031.031,0,0,0,.036-.036l2.475,5.2a8.625,8.625,0,0,0,.424-3.925,9.415,9.415,0,0,0-.318-1.45q-.535-1.733-1.22-3.412-.262-.649-.548-1.291-.247-.565-.53-1.1l.035-.035a.1.1,0,0,1,.071-.035.1.1,0,0,1,.071-.036.031.031,0,0,0,.035-.035Zm2.121-5.163q.1-.344.194-.689a5.306,5.306,0,0,1,.548-.265,4.474,4.474,0,0,1,1.025-.283,3.591,3.591,0,0,0,.565-.036.145.145,0,0,1,.142-.07.3.3,0,0,1,.283,0,17.188,17.188,0,0,1,1.768.636l.071.071.354.142c0,.023.024.035.071.035l.035.036a.267.267,0,0,0,.106.035l.035.035v.036a24.645,24.645,0,0,1,1.309,3.783,28.31,28.31,0,0,1,1.1,5.9,56.652,56.652,0,0,0-2.3-6.294,12.557,12.557,0,0,0-1.556-1.2A18.569,18.569,0,0,0,6661.833-3280.08Zm195.355,104.838a14.668,14.668,0,0,0-1.75-1.449,21.4,21.4,0,0,0-2.033-1.273,22.79,22.79,0,0,0-2.546-1.22,25.577,25.577,0,0,0-2.722-.937,17.464,17.464,0,0,0-4.066-.708h-.247q-3.042,0-4.1,1.874a11.1,11.1,0,0,0-.778,4.172,10.421,10.421,0,0,1-.884,4.1,9.882,9.882,0,0,0-2.687-3.289v-4.879a4.146,4.146,0,0,0,2.688-1.732,9.311,9.311,0,0,0,.848-3.643c.012-.146.024-.3.036-.46a17.454,17.454,0,0,1,.424-3.234,4.125,4.125,0,0,1,.354-.9,3.048,3.048,0,0,1,.513-.672,3.74,3.74,0,0,1,1.839-1.008,7.191,7.191,0,0,1,1.751-.194,12.213,12.213,0,0,1,2.138.213,21.474,21.474,0,0,1,2.175.494c.439.12.871.249,1.291.39a.438.438,0,0,1,.071.017c.1.032.191.068.283.106a22.107,22.107,0,0,1,3.624,1.609,18.748,18.748,0,0,1,1.927,1.2,13.322,13.322,0,0,1,2,1.7,7.8,7.8,0,0,1,2.405,5.551,4.5,4.5,0,0,1-1.132,3.271,3.989,3.989,0,0,1-.53.442A4.384,4.384,0,0,1,6857.188-3175.242Zm43.456,10.042a36.875,36.875,0,0,0-8.981-.036,8.825,8.825,0,0,0-1.556.213,1.305,1.305,0,0,0-.708.494,4.651,4.651,0,0,0,.567.778,4.818,4.818,0,0,0,1.555,1.061,4.025,4.025,0,0,0-1.838,0,2.571,2.571,0,0,0-.884.6,2.55,2.55,0,0,0-.247.283,3.746,3.746,0,0,0-.672,1.238q-.035.248-.071.53a20.25,20.25,0,0,0,3.147,1.5l-14.851,8.557-3.89,2.245v-9.864l57.988-33.5a30.423,30.423,0,0,0-.513,3.094,46.7,46.7,0,0,1-18.475,16.9,12.661,12.661,0,0,0-2.4,1.486l-5.375,2.652a6.385,6.385,0,0,0-1.874,1.926Q6901.1-3165.125,6900.644-3165.2Zm-218.409-67.889a16.252,16.252,0,0,0-2.333,1.344q-.141-.141-.389-.354-1.1-1.061-2.369-2.3-1.66-1.8-5.091-5.233a15.137,15.137,0,0,1-1.786-2.086,64.99,64.99,0,0,0,1.22-7.814q1.589,2.6,6.33,9.512,2.476,3.641,4.03,6.293C6681.987-3233.513,6682.117-3233.3,6682.234-3233.089Z" transform="translate(-22.738 -50.471)" fill="#608f2f" fill-rule="evenodd"/>
    <path id="Path_101163" data-name="Path 101163" d="M7060.862-3178.625a6.288,6.288,0,0,1,0,.743l-3.164,1.768c.171-.213.343-.425.513-.637l1.379-1.874A5.4,5.4,0,0,1,7060.862-3178.625Zm-19.34,40.751a104.555,104.555,0,0,1-17.326,8.4q-4.579-4.885-2.617-8.822a6.88,6.88,0,0,1,.778-1.219,12.66,12.66,0,0,1,2.4-1.486,46.708,46.708,0,0,0,18.475-16.9q.167-.26.336-.531l1.7-2.9a7.01,7.01,0,0,1,5.48-.354q6.741,2.379,6.684,7.089a9.213,9.213,0,0,1-.884,3.642,20.849,20.849,0,0,1-2.44,4.014,63.661,63.661,0,0,1-6.046,4.773Q7044.839-3139.893,7041.522-3137.874Zm-20.58,9.706a2.849,2.849,0,0,1-2.368,1.132,4.205,4.205,0,0,1-2.352-.619,5.384,5.384,0,0,1-.619-.407l-.424-.424a5.216,5.216,0,0,1-.955-4.844q.212-.425.46-.849a6.932,6.932,0,0,1,.424-.76,6.394,6.394,0,0,1,1.874-1.927q-.038.339-.159,1.308-.042.419-.105.955t-.159,1.2q-.233,2.078,2.246,3.925A14.566,14.566,0,0,0,7020.942-3128.168Z" transform="translate(-136.284 -80.574)" fill="#46479e" fill-rule="evenodd"/>
    <path id="Path_101164" data-name="Path 101164" d="M6949.511-3204.342l3.164-1.768q.753-.091,1.5-.23a27.747,27.747,0,0,0,11.333-5.321l.317,1.52q-3.464,6.223-8.626,7.249-.645.129-1.256.212-4.165.517-6.629-1.432c-.023-.016-.046-.033-.07-.052v-.072h.07Zm-283.592,86.275a3.34,3.34,0,0,1,.247.354,12.821,12.821,0,0,1,.955,1.343c.1.212.189.413.283.6a4.317,4.317,0,0,1,.248,1.166,4.131,4.131,0,0,1-.177,1.167.1.1,0,0,1-.036.071.1.1,0,0,1-.035.071,2.552,2.552,0,0,1-1.521,1.626,6.544,6.544,0,0,1-2.793.354,23.85,23.85,0,0,1-2.793-.354,16.735,16.735,0,0,1-1.874-.46,14.709,14.709,0,0,1-2.581-1.061,11.746,11.746,0,0,1-3.112-2.263l-.566-.637a20.83,20.83,0,0,1-1.768-2.97,6.087,6.087,0,0,0-.46-.777,1.631,1.631,0,0,1-.283-.283,2.992,2.992,0,0,1-.424-.53,15.59,15.59,0,0,0-2.192-2.3,9.293,9.293,0,0,1-2.015-2.44,4.123,4.123,0,0,1-.46-2.05V-3128q.071-.389.106-.707a4.939,4.939,0,0,0,.583.548,5.067,5.067,0,0,0,2.068.937,33.248,33.248,0,0,0,5.87.743,5.486,5.486,0,0,1,.6-.035,6.083,6.083,0,0,0,2.935-1.167,1.608,1.608,0,0,0,.672-.99q.636.954,2.05,2.757a4.861,4.861,0,0,1,.92,1.8q.389.319,2.3,2.228a25.223,25.223,0,0,1,2.616,2.935.031.031,0,0,1,.036.035Q6665.707-3118.386,6665.919-3118.067Zm-16.265-153.81a7.135,7.135,0,0,0,.46.707,22.276,22.276,0,0,0,12.446,4.455l-.106.46-1.273,7.39a12.98,12.98,0,0,1-4.6-2.581q-2.687-2.368-5.2-4.844l-2.192-2.263q-.141-.177-.318-.389a3.328,3.328,0,0,1-.636-2.793c.07-.236.153-.483.247-.742a5.27,5.27,0,0,1,1.521-2.086,2.92,2.92,0,0,1,.743-.5l.248.46a2.957,2.957,0,0,0-1.591,1.945A1.492,1.492,0,0,0,6649.654-3271.877Zm45.506,42.183q-1.52,1.132-3.713,2.546-.918.6-1.7,1.1c-.094.048-.2.106-.318.177h-.036a.172.172,0,0,1-.035.035.876.876,0,0,1-.248.212q-.777-.707-1.626-1.521l-.778-.778q-.99-.955-2.086-2.086a2.343,2.343,0,0,1,.248-.212q.248.212.389.354a16.252,16.252,0,0,1,2.333-1.344q1.273-.6,2.9-1.308a8.419,8.419,0,0,1,1.45-.566q-.353-.5-.636-.99.5-.248,1.025-.5A53.129,53.129,0,0,0,6695.16-3229.694Zm213.635,64.6,5.375-2.652a6.849,6.849,0,0,0-.778,1.219q-1.963,3.938,2.617,8.822l-3.254,1.308a14.6,14.6,0,0,1-2.138-1.308q-2.48-1.846-2.246-3.925.083-.665.159-1.2t.106-.955Q6908.757-3164.755,6908.8-3165.094Zm-250.762-50.315q.177-.424.318-.849l.636-1.485a12.926,12.926,0,0,1,.743-1.52,16.621,16.621,0,0,1,1.98-3.006,8.033,8.033,0,0,1,.566-.636q1.061.885,2.687,2.122a7.685,7.685,0,0,1-.354.813q-.6,1.415-1.45,3.112a1.881,1.881,0,0,1-.177.283q-.565,1.2-1.1,2.192c-.053.093-.106.188-.159.283q-.2.341-.406.672l-.813-.495Q6659.177-3214.729,6658.034-3215.409Zm6.046-57q.283.53.53,1.1.286.641.548,1.291.685,1.678,1.22,3.412a9.418,9.418,0,0,1,.318,1.449,8.626,8.626,0,0,1-.424,3.925l-2.475-5.2-.142-.354a8.762,8.762,0,0,0,.636-1.061,2.892,2.892,0,0,0,.318-1.45,8.516,8.516,0,0,0-1.1-2.9q.283-.106.53-.212Zm-3.889,148.046-.071-.035.141.142A.449.449,0,0,1,6660.191-3124.362Zm290.893,37.852-.07,1.184-.143,2.3-.848,1.308.637,2.97.423,1.875-4.243-3.643-.212-5.975,3.306-.389,1.185-.141Zm-34.191,20.95a2.209,2.209,0,0,0-.283-.425,1.2,1.2,0,0,1,.07-1.556q4.208-4.419,11.916-2.4l-.106-.531,1.1-.106-.848,1.768a5.466,5.466,0,0,0-.036.636,5.517,5.517,0,0,0,3.253,4.88,22.21,22.21,0,0,0,5.657,3.783q1.026.5,2.087.955c.211.071.413.141.6.212q-2.369-.424-4.7-.848a28.388,28.388,0,0,0-5.481-.319q-6.752.706-10.89-3.112a8.84,8.84,0,0,1-1.272-1.414A9.613,9.613,0,0,1,6916.893-3065.56Zm-142.07-41.723q-.6-.425-1.344-.849l-.141-.071a4.353,4.353,0,0,1,.424-.141,3.194,3.194,0,0,0,.708-.248,5.669,5.669,0,0,0,1.378-.919,2.987,2.987,0,0,0,1.238-1.8v-.211q.777.493,1.45.954c.095.047.141.095.141.141a2.284,2.284,0,0,1,.566.636q.458.85-.531,2.015a2.608,2.608,0,0,1-1.467.8,6.828,6.828,0,0,1-1.75.089.414.414,0,0,0-.106-.071A3.187,3.187,0,0,0,6774.823-3107.283Z" transform="translate(-28.097 -52.345)" fill="#fff" fill-rule="evenodd"/>
    <path id="Path_101165" data-name="Path 101165" d="M6996.245-3133.644a14.308,14.308,0,0,1-7.143,7.637,14.879,14.879,0,0,0-1.944,1.2,14.607,14.607,0,0,1-9.44,3.182,15.38,15.38,0,0,1-3.748-.566,11.123,11.123,0,0,1-1.7-.46,178.636,178.636,0,0,0,4.7-20.3q.857-4.982,2.192-9.989a9.18,9.18,0,0,0,.884-3.642,18.568,18.568,0,0,0,.266-4.915,14.139,14.139,0,0,0-5.676-10.2,21.228,21.228,0,0,0-1.8-1.272l1.769-1.344a60.408,60.408,0,0,1,5.445-3.606l.07.052q2.464,1.948,6.63,1.432.611-.083,1.256-.212,5.161-1.025,8.626-7.249l-.316-1.52,4.383.6a9.822,9.822,0,0,1,2.158.247,13.624,13.624,0,0,1,2.191.778,4.889,4.889,0,0,1,2.723,3.572q2.369,12.446-5.87,23.053A28.819,28.819,0,0,0,6996.245-3133.644Zm-230.854,89.351a27.1,27.1,0,0,1-9.229-2.616,39.712,39.712,0,0,1-6.4-3.889v-41.052a17.528,17.528,0,0,1,4.172-10.855,11.013,11.013,0,0,0,.884.991,6.3,6.3,0,0,0,.919.813,8.356,8.356,0,0,0,2.617,2.864,18.785,18.785,0,0,0,8.769,3.323c.33.047.672.083,1.025.106q3.148,1.167,6.931,2.3a13.889,13.889,0,0,1,7.39,5.693,21.153,21.153,0,0,1,1.626,2.793c.024.047.048.094.071.142q-.3,4.744-.336,9.3-.021,2.4.035,4.738.081,3.59.336,7.054.432,5.953,1.379,11.544.015.127.035.248a35.2,35.2,0,0,1-9.547,5.162,26.108,26.108,0,0,1-6.187,1.344A24.327,24.327,0,0,1,6765.391-3044.294Z" transform="translate(-58.903 -78.598)" fill="#46479e" fill-rule="evenodd"/>
    <path id="Path_101166" data-name="Path 101166" d="M7059.522-3007.52a9.552,9.552,0,0,1-2.545-.636c-.188-.071-.389-.141-.6-.212q-1.061-.461-2.087-.955a22.21,22.21,0,0,1-5.657-3.783q-.494-.424-.955-.813a5.367,5.367,0,0,1-2.262-4.7l.848-1.768a2.423,2.423,0,0,0,1.556-2.192q.264-3.713.16-7.513-.059-1.8-.195-3.624-.906-11.607-2.634-23.072c-.019-.114-.037-.225-.054-.336q-1.107-7.274-1.626-14.6-.374-5.058-.46-10.148a51.8,51.8,0,0,1,4.455-21.781q4.208,2.191,8.062,3.961a24.776,24.776,0,0,0,2.617.99,11.123,11.123,0,0,0,1.7.46,15.383,15.383,0,0,0,3.748.566q-.494,1.733-1.237,3.854-1.8,5.3-2.085,6.188-1.452,5.127-4.491,13.365a47.6,47.6,0,0,0-2.016,8.5,32.7,32.7,0,0,0-.283,4.173v.017a112.067,112.067,0,0,0,1.45,16.583q.9,5.853,1.485,10.024.767,5.384,1.026,7.973.282,2.828,1.024,8.875.743,5.869.955,8.557Q7059.488-3008.828,7059.522-3007.52Zm9.583-79.415q.636,4.949,2.369,17.184,2.864,20.968,2.864,25.989v5.234q-.035,2.878-.124,5.515-.073,2.534-.195,4.844-.388,5.446-.99,8.911a2.411,2.411,0,0,1-.248-.213l-1.98-1.591c-.047-.047-.071-.082-.071-.106a5.923,5.923,0,0,1-.742-.813l-1.167-2.122-.707-1.732-1.415-5.693.848-1.308.143-2.3q.1-.578.158-1.149a16.5,16.5,0,0,0,.053-2.563q-.248-6.647-.99-13.153a122.2,122.2,0,0,0-3.641-18.492q1.484-4.633,3.252-9.228Q7067.867-3083.293,7069.105-3086.934Z" transform="translate(-144.774 -102.537)" fill="#6d9c93" fill-rule="evenodd"/>
    <path id="Path_101167" data-name="Path 101167" d="M7078.917-3089.438q2.227-6.9,3.924-13.931a14.879,14.879,0,0,1,1.944-1.2,14.309,14.309,0,0,0,7.143-7.637,23.354,23.354,0,0,1,.318,9.477q-2.087,12.161-3.5,24.361a12.145,12.145,0,0,0,.318,4.6,130.6,130.6,0,0,1,3.571,22.382q.319,4.561.743,9.158a50.916,50.916,0,0,1-.265,11.916,46.778,46.778,0,0,1-2.563,9.9,10.21,10.21,0,0,1-7.708-1.343q.6-3.465.99-8.911.122-2.31.195-4.844.088-2.638.124-5.515v-5.234q0-5.02-2.864-25.989Q7079.552-3084.488,7078.917-3089.438Zm-.99,61.1-.777-2.723-.637-2.97Z" transform="translate(-154.586 -100.033)" fill="#618a83" fill-rule="evenodd"/>
    <path id="Path_101168" data-name="Path 101168" d="M6764.813-3381.37a5.446,5.446,0,0,1,1.662,4,5.329,5.329,0,0,1-1.662,3.96,5.329,5.329,0,0,1-3.96,1.662,5.447,5.447,0,0,1-4-1.662,5.39,5.39,0,0,1-1.626-3.96,5.509,5.509,0,0,1,1.626-4,5.51,5.51,0,0,1,4-1.626A5.39,5.39,0,0,1,6764.813-3381.37Z" transform="translate(-60.504 -20.738)" fill="#cc3d60" fill-rule="evenodd"/>
    <path id="Path_101169" data-name="Path 101169" d="M6661.788-3368.429l-5.021,2.546a.671.671,0,0,0-.319,1.025l2.546,5.02a.671.671,0,0,0,1.025.319l5.021-2.546a.671.671,0,0,0,.318-1.025l-2.545-5.021A.671.671,0,0,0,6661.788-3368.429Zm-.849-1.663a2.321,2.321,0,0,1,3.536,1.132l2.546,5.021a2.32,2.32,0,0,1-1.132,3.536l-5.021,2.546a2.32,2.32,0,0,1-3.536-1.131l-2.546-5.021a2.32,2.32,0,0,1,1.131-3.536Z" transform="translate(-30.971 -24.397)" fill="#ffc93c" fill-rule="evenodd"/>
    <path id="Path_101170" data-name="Path 101170" d="M6589.04-3259.377a3.531,3.531,0,0,1,2.545-1.026,3.369,3.369,0,0,1,2.475,1.026,3.431,3.431,0,0,1,1.061,2.51,3.358,3.358,0,0,1-1.061,2.511,3.371,3.371,0,0,1-2.475,1.025,3.533,3.533,0,0,1-2.545-1.025,3.475,3.475,0,0,1-.991-2.511A3.552,3.552,0,0,1,6589.04-3259.377Z" transform="translate(-11.548 -56.637)" fill="#cc3d60" fill-rule="evenodd"/>
    <path id="Path_101171" data-name="Path 101171" d="M6651.662-3281.341a2.965,2.965,0,0,0,1.379-.318.39.39,0,0,1,.071.106,8,8,0,0,1,.849,1.662,6.16,6.16,0,0,0,.884,1.626,7.414,7.414,0,0,0,1.8,1.45q1.38.671,2.051,1.061a24.814,24.814,0,0,0,5.339,2.051q.743-.141,1.415-.318a3.056,3.056,0,0,1-.177,1.061,4.023,4.023,0,0,1-.53,1.131,10.008,10.008,0,0,1-.92,1.167,3.612,3.612,0,0,1-1.626,1.061,4.038,4.038,0,0,1-1.839.071,9.439,9.439,0,0,1-1.909-.46q-.672-.212-1.415-.53a8.4,8.4,0,0,1-2.652-1.8,4.53,4.53,0,0,1-1.1-1.8,4.792,4.792,0,0,1-.248-1.52,4.586,4.586,0,0,1,.036-.566,4.718,4.718,0,0,0-.459-2.4,10.193,10.193,0,0,1-.743-2.369Zm82.138,110.459a3.481,3.481,0,0,1-.177-.53,1.163,1.163,0,0,1-.035-.283v-.035a7.869,7.869,0,0,0-.283-1.308q-.141-.177-.53-.566a5.5,5.5,0,0,0,1.838,1.1,12.335,12.335,0,0,0,2.228.565,10.247,10.247,0,0,0,2.829.283h.071a.377.377,0,0,1,.177.036h.071a5.867,5.867,0,0,0,3.359-.779l.142-.071h.035a1.923,1.923,0,0,0,.636-.672l-.283.955q-.07.142-.142.318-.105.283-.283.672a9.185,9.185,0,0,0-.53,1.7v.07a1.4,1.4,0,0,1-1.167,1.061,5.992,5.992,0,0,1-1.768.142,6.552,6.552,0,0,1-.76-.035,9.885,9.885,0,0,1-5.145-2.157A1.26,1.26,0,0,1,6733.8-3170.881Z" transform="translate(-30.176 -50.413)" fill="#b5785d" fill-rule="evenodd"/>
    <path id="Path_101172" data-name="Path 101172" d="M6674-3195.592h.106a2.7,2.7,0,0,0-.035-.425,10.337,10.337,0,0,0,4.242-5.693,6.075,6.075,0,0,1,.248.778,71.052,71.052,0,0,1,1.29,7.6Q6677.533-3194.374,6674-3195.592Zm-10.112,3.146.813.495q.211.142,4.667,1.556l.142.142a.57.57,0,0,1,.142.106q.318.354.707.778.643.717,1.379,1.591l-10.184,5.869v9.9l3.165,1.821a86.637,86.637,0,0,0-1.609,17.556,11.286,11.286,0,0,1-.424,3.323,89.686,89.686,0,0,0-3.606,22.382,68.784,68.784,0,0,0,.849,13.224c.021.146.045.293.07.442q.346,2.391.637,4.756c.047.283.095.566.142.849a1.513,1.513,0,0,1,0,.46,1.61,1.61,0,0,1-.672.99,6.085,6.085,0,0,1-2.936,1.167q-.318-2.652-.565-5.268c-.026-.315-.049-.627-.07-.937q-.111-1.223-.212-2.422-.107-1.909-.177-3.854a72.162,72.162,0,0,1,.707-13.153q.954-6.647,2.439-13.117a36.19,36.19,0,0,0,.672-12.836,79.742,79.742,0,0,1-.46-13.188q.141-3.642.46-7.249l1.025-15.168A27.109,27.109,0,0,0,6663.885-3192.445Zm4.278,1.238c-.142-.071-.165-.106-.071-.106q.212.141.46.283C6668.34-3191.125,6668.21-3191.184,6668.163-3191.208Zm6.594,26.82,2.776,1.591q-.311.9-.637,1.785-.53,1.485-1.025,2.97-.248.708-.565,1.521-.85,2.3-1.627,4.7a35.243,35.243,0,0,1-2.333,5.622q-.532,1.026-.99,2.157a28.34,28.34,0,0,0-1.485,6.613q-.105.848-.212,1.7l-1.2,17.007q-.042.595-.089,1.185-.059.88-.124,1.75a11.768,11.768,0,0,0,.637,4.243,4.149,4.149,0,0,1,.142.424.4.4,0,0,1-.035.177,1.2,1.2,0,0,1-.142.318,3.711,3.711,0,0,1-.283.318,3.82,3.82,0,0,1-1.308,1.061q-.142-1.379-.283-2.545-.385-3.682-.5-4.65v-.018q-.105-1.2.247-8.168a.3.3,0,0,0,.036-.141,107.41,107.41,0,0,1,3.395-20.472,2.447,2.447,0,0,1,.142-.566q.813-3.112,1.8-6.4.885-2.829,1.556-5.056,1.132-3.642,1.662-5.552Q6674.557-3163.643,6674.757-3164.388Z" transform="translate(-31.473 -73.825)" fill="#383980" fill-rule="evenodd"/>
    <path id="Path_101173" data-name="Path 101173" d="M6651.467-3103.355a5.486,5.486,0,0,0-.6.035,33.248,33.248,0,0,1-5.87-.743,5.067,5.067,0,0,1-2.068-.937,4.939,4.939,0,0,1-.583-.548,10.083,10.083,0,0,1-.637-.848c-.023-.071-.046-.142-.071-.213a15.83,15.83,0,0,1-.671-1.945q-.565-3.04-1.167-6.152-.565-2.971-1.061-5.941-.494-3.147-.99-6.329a50.984,50.984,0,0,1-.46-5.657,38.513,38.513,0,0,1,.142-5.693,24.9,24.9,0,0,1,1.415-6.4,6.833,6.833,0,0,0,.283-.919,16.355,16.355,0,0,0,.53-4.42q0-3.289-.248-6.577-.141-1.7-.283-3.465-.212-2.793-.566-5.48-.247-2.05-.6-4.1-1.1-8.7-1.309-13.684-.353-9.3,4.561-12.588,1.592,3.077,6.259,4.384l4.031.813a1.145,1.145,0,0,0,.283.036,25.168,25.168,0,0,0,3.5.177l-1.025,15.168q-.318,3.606-.459,7.249a79.741,79.741,0,0,0,.459,13.188,36.179,36.179,0,0,1-.672,12.836q-1.485,6.47-2.439,13.117a72.206,72.206,0,0,0-.707,13.153q.07,1.945.177,3.854.1,1.2.212,2.422c.021.31.044.622.071.937Q6651.149-3106.007,6651.467-3103.355Zm16.9-90.977a2.645,2.645,0,0,1,.035.425h-.106c-.122-.043-.246-.084-.372-.124C6668.076-3194.14,6668.223-3194.241,6668.369-3194.333Zm-7.814,86.77a5.318,5.318,0,0,1-2.122.637,19.251,19.251,0,0,1-3.5.105q-.292-2.364-.637-4.756c-.025-.149-.048-.3-.07-.442a68.784,68.784,0,0,1-.849-13.224,89.708,89.708,0,0,1,3.606-22.382,11.271,11.271,0,0,0,.424-3.323,86.635,86.635,0,0,1,1.609-17.556l10.042,5.8q-.2.745-.442,1.573-.53,1.909-1.662,5.552-.672,2.227-1.556,5.056-.99,3.288-1.8,6.4a2.5,2.5,0,0,0-.142.566,107.449,107.449,0,0,0-3.395,20.472.3.3,0,0,1-.036.141q-.353,6.966-.248,8.168v.018q.11.97.5,4.65Q6660.413-3108.943,6660.555-3107.563Z" transform="translate(-25.774 -75.508)" fill="#46479e" fill-rule="evenodd"/>
    <path id="Path_101174" data-name="Path 101174" d="M6722.931-3129.705l-43.137-24.892-2.776-1.591-10.042-5.8-3.165-1.821v-9.9l61.948,35.765a5.461,5.461,0,0,0,.459,3.306,1.451,1.451,0,0,0,.106.283,15.24,15.24,0,0,0-.142,2.086c0,.225.006.45.018.672a17.822,17.822,0,0,0,.619,3.943v.2Z" transform="translate(-33.734 -82.024)" fill="#755d1b" fill-rule="evenodd"/>
    <path id="Path_101175" data-name="Path 101175" d="M6782.943-3138.437c.047-.212.094-.413.142-.6a.857.857,0,0,0,.389.142.909.909,0,0,1,.212-.213A4.6,4.6,0,0,1,6782.943-3138.437Zm-15.381,8.769a3.481,3.481,0,0,0,.177.53,1.253,1.253,0,0,1-.177-.07A1.481,1.481,0,0,0,6767.562-3129.668Zm18.775,41.582a3,3,0,0,1,.177.743l-.106-.282Z" transform="translate(-64.115 -92.156)" fill="#de9a7c" fill-rule="evenodd"/>
    <path id="Path_101176" data-name="Path 101176" d="M6766.049-3125.939a1.45,1.45,0,0,1,0,.46,5.174,5.174,0,0,1-.177,1.238h-.035a1.824,1.824,0,0,0-.283-.177,1.231,1.231,0,0,0-.389-.071,7.358,7.358,0,0,1-.742-.035,3.758,3.758,0,0,0,1.591,2.4,8.638,8.638,0,0,0,2.457,1.167c.073.024.149.048.23.071a6.839,6.839,0,0,0,3.111.071,19.115,19.115,0,0,0,2.3-.672l1.344-.424-.035-.354q-.035-.39-.07-1.061a3.887,3.887,0,0,0,.5.211,1.522,1.522,0,0,1,.813.919c.118.259.271.661.46,1.2a4.846,4.846,0,0,0,.955,1.556,12.579,12.579,0,0,1,1.166,1.414q-.458,0-1.1.035h-1.485q-1.8-.035-2.581,0-.671.036-2.369.319a11.323,11.323,0,0,1-2.369.247,10.594,10.594,0,0,1-4.225-1.609,8.773,8.773,0,0,1-1.468-1.255,4.651,4.651,0,0,1-1.1-1.8,2.759,2.759,0,0,1,.105-2.087,5.623,5.623,0,0,1,1.132-1.1l.035-.036h.035a.032.032,0,0,1,.036-.035h.035a.34.34,0,0,1,.177-.141l.919-.707c.024-.023.048-.048.07-.071a1.063,1.063,0,0,1,.885-.035l.035.035v.035A1.163,1.163,0,0,0,6766.049-3125.939Z" transform="translate(-62.602 -95.886)" fill="#e8f2fd" fill-rule="evenodd"/>
    <path id="Path_101177" data-name="Path 101177" d="M6783.181-3067.059a4.519,4.519,0,0,1-1.449,2.616,9.358,9.358,0,0,1-3.006,1.733,17.9,17.9,0,0,1-8.309.884c-.354-.023-.7-.059-1.025-.106a18.789,18.789,0,0,1-8.77-3.323,8.352,8.352,0,0,1-2.616-2.864,4.358,4.358,0,0,1-.46-2.581,3.689,3.689,0,0,1,.318-1.132,4.689,4.689,0,0,1,1.237-1.626l-.389,1.344a21.509,21.509,0,0,0,9.582,7.5,10.492,10.492,0,0,0,3.183.778q1.061.036,2.086,0a19.881,19.881,0,0,0,6.523-1.555A21.119,21.119,0,0,0,6783.181-3067.059Z" transform="translate(-61.171 -111.38)" fill="#cc3d60" fill-rule="evenodd"/>
    <path id="Path_101178" data-name="Path 101178" d="M6837.3-3047.833v9.9l-3.889-2.245-6.206-3.572a17.544,17.544,0,0,0-2.493-4.756,4.132,4.132,0,0,1-1.237-1.1,2.4,2.4,0,0,0-.177-.354.886.886,0,0,1-.212-.106.346.346,0,0,0-.177-.141,2.284,2.284,0,0,0-.566-.636c0-.047-.046-.094-.141-.141q-.672-.46-1.45-.954v-.177c.024.023.036,0,.036-.071a.538.538,0,0,0,.035-.425.632.632,0,0,0-.212-.318q-.849-.777-1.662-1.484a.1.1,0,0,0-.036-.071,6.973,6.973,0,0,1-1.131-1.238c-.117-.117-.224-.13-.318-.035h-.035l-.637-.707q-.764-.9-1.555-1.892c-.038-.04-.072-.082-.106-.123a48.716,48.716,0,0,0-3.182-3.819q-.209-.212-.424-.424Zm-37.126-11.526-3.748-2.157-2.263-6.046a3,3,0,0,0-.177-.742l-.3-3.252q1.173,2.054,2.352,4.1c.023.023.023.035,0,.035h.035a.051.051,0,0,0-.035.018v.017c.047.046.07.083.07.106l.6,1.026a9.748,9.748,0,0,1,.884,2.05A13.728,13.728,0,0,0,6800.175-3059.359Z" transform="translate(-71.765 -111.937)" fill="#692032" fill-rule="evenodd"/>
    <path id="Path_101179" data-name="Path 101179" d="M6662.512-3070.656a19.251,19.251,0,0,0,3.5-.105,5.318,5.318,0,0,0,2.122-.637,3.817,3.817,0,0,0,1.308-1.061q.5.353,1.025.742a28.679,28.679,0,0,1,2.617,2.051l1.131.53a16.724,16.724,0,0,1,4.879,3.182c.165.166.307.319.424.46a21.366,21.366,0,0,1,1.45,1.627,12.176,12.176,0,0,1,1.591,2.3,3.944,3.944,0,0,1,.389.919,3.252,3.252,0,0,1,.071.707,2.18,2.18,0,0,1-.035.354,2.523,2.523,0,0,1-.531,1.2,3.886,3.886,0,0,1-2.051,1.061,8.175,8.175,0,0,1-2.333.211,15.572,15.572,0,0,1-6.895-1.626q-.212-.319-.6-.849a.031.031,0,0,0-.036-.035,25.223,25.223,0,0,0-2.616-2.935q-1.91-1.909-2.3-2.228a4.861,4.861,0,0,0-.92-1.8q-1.414-1.8-2.05-2.757a1.482,1.482,0,0,0,0-.46Q6662.583-3070.231,6662.512-3070.656Z" transform="translate(-33.353 -111.673)" fill="#f4f7f9" fill-rule="evenodd"/>
    <path id="Path_101180" data-name="Path 101180" d="M6666.978-3055.241a12.821,12.821,0,0,0-.955-1.343,3.34,3.34,0,0,0-.247-.354,15.572,15.572,0,0,0,6.895,1.626,8.175,8.175,0,0,0,2.333-.211,3.886,3.886,0,0,0,2.051-1.061,2.523,2.523,0,0,0,.531-1.2,2.224,2.224,0,0,1,.106.707,2.053,2.053,0,0,1-.743,1.8,7.537,7.537,0,0,1-5.056,1.1A19.074,19.074,0,0,1,6666.978-3055.241Zm-22.559-11.067a4.123,4.123,0,0,0,.46,2.05,9.293,9.293,0,0,0,2.015,2.44,15.59,15.59,0,0,1,2.192,2.3,2.992,2.992,0,0,0,.424.53,1.631,1.631,0,0,0,.283.283,6.087,6.087,0,0,1,.46.777,20.83,20.83,0,0,0,1.768,2.97l.566.637a11.746,11.746,0,0,0,3.112,2.263,14.709,14.709,0,0,0,2.581,1.061,16.735,16.735,0,0,0,1.874.46,23.85,23.85,0,0,0,2.793.354,6.544,6.544,0,0,0,2.793-.354,2.552,2.552,0,0,0,1.521-1.626,2.905,2.905,0,0,1,.071.636,2.051,2.051,0,0,1-1.061,1.98,5.521,5.521,0,0,1-2.687.672,18.019,18.019,0,0,1-2.829-.212,17.692,17.692,0,0,1-5.233-1.661,12.716,12.716,0,0,1-4.208-3.536,10.248,10.248,0,0,1-1.272-2.122,9.386,9.386,0,0,0-1.344-2.087,7.41,7.41,0,0,0-1.379-.354,9.6,9.6,0,0,1-2.439-2.581,4.7,4.7,0,0,1-.743-3.324A2.441,2.441,0,0,1,6644.419-3066.308Z" transform="translate(-27.954 -113.474)" fill="#cc3d60" fill-rule="evenodd"/>
    <path id="Path_101181" data-name="Path 101181" d="M6666.633-3061.974a.449.449,0,0,0,.07.107l-.141-.142Z" transform="translate(-34.539 -114.733)" fill="#b1ccdc" fill-rule="evenodd"/>
    <path id="Path_101182" data-name="Path 101182" d="M6768.89-2934.8q-.46-.248-.885-.459v4.419a5.714,5.714,0,0,1,.142,1.52v1.061a.975.975,0,0,1-1.1.743,6.193,6.193,0,0,1-1.061-.071,8.653,8.653,0,0,1-1.026-.106c.024-.377.06-.719.106-1.025q.142-1.486.212-2.334a16.155,16.155,0,0,0,0-3.395,3.4,3.4,0,0,0-1.061-1.768,7.5,7.5,0,0,1-1.414-1.52,4.559,4.559,0,0,1-.212-2.087,3.71,3.71,0,0,1,.777-1.945,8.219,8.219,0,0,1,2.016-1.52q.354-.212.6-.389a4.817,4.817,0,0,0,1.378-1.2q.532-.672.955-1.132v.283c-.023.188-.047.39-.07.6q.425.883,1.1,2.546a25.438,25.438,0,0,0,1.344,2.9,15.422,15.422,0,0,0,2.121,2.97,6.642,6.642,0,0,0,4.809,2.439q1.132,0,1.415-.778a4.3,4.3,0,0,0-.955-1.485,3.368,3.368,0,0,1-.565-.708l-.035-.035,1.909.106.954.035c.449.023.92.036,1.415.036h1.025q3.431,1.026,0,4.985-.955,1.061-1.309,1.415a10.039,10.039,0,0,1-3.43,2.263,3.221,3.221,0,0,1-1.379.248,1.782,1.782,0,0,1-1.237-.6,10.2,10.2,0,0,1-.778-1.025,7.276,7.276,0,0,1-.707-.742q-1.556-1.945-1.909-2.4a10.051,10.051,0,0,0-2.864-1.733A1.391,1.391,0,0,0,6768.89-2934.8Z" transform="translate(-62.649 -148.702)" fill="#46479e" fill-rule="evenodd"/>
    <path id="Path_101183" data-name="Path 101183" d="M7077.365-3099.709q-1.7,7.037-3.924,13.931-1.238,3.643-2.582,7.214-1.768,4.6-3.252,9.228c0-.023-.025-.06-.071-.106l-.566,2.051a5.788,5.788,0,0,0-.177.673l-1.484,4.808a8.7,8.7,0,0,0-.071,2.475q.987,11.666,2.3,23.372.053.457.106.919l.212,5.975-.036,1.238q.743,8.344,1.45,16.618a3.743,3.743,0,0,0-.283.637,5.833,5.833,0,0,1-1.378,3.146,3.916,3.916,0,0,1-3.749,1.167q-.034-1.308-.106-2.051-.212-2.687-.955-8.557-.741-6.046-1.024-8.875-.259-2.588-1.026-7.973-.588-4.171-1.485-10.024a112.067,112.067,0,0,1-1.45-16.583v-.017a32.7,32.7,0,0,1,.283-4.173,47.6,47.6,0,0,1,2.016-8.5q3.041-8.239,4.491-13.365.282-.885,2.085-6.188.743-2.121,1.237-3.854A14.608,14.608,0,0,0,7077.365-3099.709Z" transform="translate(-149.11 -103.694)" fill="#618a83" fill-rule="evenodd"/>
  </g>
</svg>
