<svg xmlns="http://www.w3.org/2000/svg" xmlns:xlink="http://www.w3.org/1999/xlink" width="188" height="174" viewBox="0 0 188 174">
  <defs>
    <linearGradient id="linear-gradient" x1="0.5" x2="0.5" y2="1" gradientUnits="objectBoundingBox">
      <stop offset="0" stop-color="#dbf6e9"/>
      <stop offset="1" stop-color="#fff"/>
    </linearGradient>
  </defs>
  <g id="t1-i3" transform="translate(-180 -1317)">
    <path id="Path_100466" data-name="Path 100466" d="M182.475,98.949H174.22c-4.13,0-7.478-5.406-7.478-12.075h0c0-6.67,3.348-12.076,7.478-12.076h5.2c1.586,0,3-1.816,3.229-4.351.281-3.159-1.228-5.868-3.13-5.868h-12.4c-.209,0-.371-.277-.371-.614-.005-6.769-3.4-12.254-7.6-12.254H114.379c-.957,0-1.837-1.036-2.026-2.552-.256-2.068.716-3.882,1.95-3.882h31.206c1.957,0,3.708-2.218,4.015-5.339.393-3.99-1.506-7.434-3.9-7.434H55.912c-1.957,0-3.708,2.218-4.015,5.338-.393,3.991,1.506,7.435,3.9,7.435H71.123c2.142,0,4.059,2.428,4.395,5.844.43,4.369-1.649,8.139-4.273,8.139H25.7c-9.331,0-16.9,12.215-16.9,27.283h0c0,13.333,5.924,24.426,13.753,26.8,1.172.356,2.009,2.044,2.009,3.971v2.226c0,2.239-1.124,4.054-2.511,4.054h0c-6.865,0-12.43,8.987-12.43,20.073h0c0,11.086,5.565,20.072,12.43,20.072H22.1c2.063,0,3.736,2.7,3.736,6.033v.015c0,3.238-1.536,5.9-3.531,6.214a2.743,2.743,0,0,0-.915.276c-3.508,2.049-6.143,7.181-6.425,13.467-.411,9.136,4.058,16.754,9.628,16.754H167.55c5.061,0,9.42-6.162,9.824-14.311,0-.072.007-.144.01-.216.163-3.95,2.157-7.046,4.608-7.046h1.772c4.417,0,8-5.783,8-12.915h0c0-5.378-2.685-9.827-5.9-11.69-1.961-1.137-3.311-4.048-3.311-7.413v-.373c0-3.847,1.6-7.162,3.893-8.225,5.981-2.779,10.356-11.681,10.356-22.233h0C196.8,109.305,190.387,98.949,182.475,98.949Z" transform="translate(171.2 1284.496)" fill="url(#linear-gradient)"/>
    <g id="Group_55171" data-name="Group 55171" transform="translate(-1.189 -7.891)">
      <g id="Group_55170" data-name="Group 55170" transform="translate(244.472 1331.392)">
        <path id="Path_100456" data-name="Path 100456" d="M85.887,104.388a50.541,50.541,0,1,1,18.5-69.04A50.54,50.54,0,0,1,85.887,104.388Z" transform="translate(-7.999 -8.001)" fill="#9ddfd3"/>
        <g id="Group_55168" data-name="Group 55168" transform="translate(2.391 2.203)">
          <path id="Path_100457" data-name="Path 100457" d="M167.647,168a4.242,4.242,0,0,0-1.373.509c-.381.305.214.7,0,.876-.375.3-.647.844-1.45.793-1.677-.107-4.255-2.277-5.788-3.1,2.471-2.543-1.438-2.924-2.962-2.8-1.973.165-5.387-.013-7.17.991-1.237.7-2.9,3.587-3.9,4.735a21.869,21.869,0,0,0-3.687,4.9c-3.316,7.019,1.788,15.076,9.808,14.134,2.227-.262,4.563-1.662,6.536.186,1.454,1.361.685,2.643,1.07,4.23.334,1.374,1.855,2.219,2.382,3.481,1.01,2.419.37,3.931-.35,6.162-.946,2.927,1.5,6.4,2.452,9.228.479,1.422,1.876,5.406,3.247,6.029,2.156.98,5.536-1.959,6.823-3.541,1.007-1.236.678-2.492,1.354-3.649.732-1.253,1.658-1.629,2.171-3.243a7.535,7.535,0,0,1,2.294-3.444c1.879-2.044,1.587-3.24.836-5.664-1.561-5.036,4.108-7.39,6.662-11.087,2.667-3.86-2.488-2.574-4.508-3.894-2.077-1.358-2.985-3.938-3.985-6.076s-1.83-5.354-3.487-7.111C173.346,169.3,169.461,168.672,167.647,168Z" transform="translate(-113.854 -132.711)" fill="#ffeaa7"/>
          <path id="Path_100458" data-name="Path 100458" d="M368.392,332.434l-2.417,8.147c-.563,1.9-2.555,8.109-5.349,4.131-1.062-1.512-.2-3.492.394-4.884.747-1.755-.263-2.639.259-4.3.6-1.9,3.056-1.969,4.22-3.309a19.9,19.9,0,0,0,1.9-3.512Q367.9,330.571,368.392,332.434Z" transform="translate(-288.509 -263.36)" fill="#ffeaa7"/>
          <path id="Path_100459" data-name="Path 100459" d="M218.785,35.866a50.489,50.489,0,0,0-40.154-25.145l-6.609,8.291-14.165,4.966-3.8,9.212,5.862,8.212.623-1.736a7.3,7.3,0,0,1,6.868-4.832h9.661l11.105,3.9L192,42.388v2.319l5.318,10.186,1.548-.571a24.647,24.647,0,0,0,8.9-5.7L206.483,46.7a.921.921,0,0,1,.767-1.433h3.1a3.1,3.1,0,0,1,2.359,1.088l2.532,2.964a3.1,3.1,0,0,1,.557.955l2.794,7.682,1.33-1.33a4.543,4.543,0,0,0,1.283-3.167,3.418,3.418,0,0,1,1.142-2.494l1.018-.908a3.431,3.431,0,0,1,.846-.554A50.549,50.549,0,0,0,218.785,35.866Z" transform="translate(-124.789 -10.721)" fill="#ffeaa7"/>
          <path id="Path_100460" data-name="Path 100460" d="M30.638,88.123l2.417-2.59a6.6,6.6,0,0,0,1.278-7.021h0a7.373,7.373,0,0,0-5.848-4.5,50.543,50.543,0,0,0-16.074,30.512,41.534,41.534,0,0,1,3.851,3.571c-.022.3,7.071-.891,7.071-.891l-3.651-5.356L24.926,98.1Z" transform="translate(-12.252 -61.004)" fill="#ffeaa7"/>
          <path id="Path_100461" data-name="Path 100461" d="M34.938,295.482a4.338,4.338,0,0,0,2.785-5.466l-.651-2a4.337,4.337,0,0,1,0-2.693h0a4.338,4.338,0,0,0-3.29-5.61l-5.107-1-9.33-7.093-7.713,2.506A50.671,50.671,0,0,0,30.6,308.142l2.3-12Z" transform="translate(-11.637 -218.004)" fill="#ffeaa7"/>
        </g>
        <path id="Path_100462" data-name="Path 100462" d="M369.733,459.314l-.079.046a2.055,2.055,0,1,0,2.062,3.555l.079-.046a2.055,2.055,0,1,0-2.062-3.555Z" transform="translate(-292.876 -364.703)" fill="#21214b"/>
        <path id="Path_100463" data-name="Path 100463" d="M98.167,26.321A52.6,52.6,0,0,0,1.815,39.006a52.6,52.6,0,0,0,69.618,62.736,2.055,2.055,0,0,0-1.475-3.836A48.174,48.174,0,0,1,23.6,91.535l1.841-9.61.887-.288a6.4,6.4,0,0,0,4.1-8.055l-.651-2a2.269,2.269,0,0,1,0-1.417,6.393,6.393,0,0,0-4.848-8.267L20.3,60.987l-8.949-6.8a2.055,2.055,0,0,0-1.879-.319l-5.239,1.7a48.445,48.445,0,0,1-.007-5.611c.207.193.341.323.424.409a2.154,2.154,0,0,0,2.008,1.029,29.847,29.847,0,0,0,3.683-.419c1.734-.256,3.458-.545,3.475-.548a2.055,2.055,0,0,0,1.358-3.184l-2.52-3.7,3.609-2.581a2.056,2.056,0,0,0,.588-.65l5.594-9.766L24.7,28.134a8.68,8.68,0,0,0,1.675-9.206,9.451,9.451,0,0,0-3.743-4.409A48.424,48.424,0,0,1,52.056,4.148l-3.669,4.6-13.607,4.77a2.054,2.054,0,0,0-1.22,1.156l-3.8,9.212a2.055,2.055,0,0,0,.227,1.978l5.55,7.775a19.53,19.53,0,0,0-2.493,3.093c-.405.575-.788,1.118-1.052,1.423-.23.265-.46.524-.688.78A19.23,19.23,0,0,0,28,43.525,12.245,12.245,0,0,0,29.015,55.9,11.533,11.533,0,0,0,39.9,60.577a16,16,0,0,0,2.007-.4c1.762-.436,2.32-.479,2.885.05.275.257.3.306.295,1.179a7.988,7.988,0,0,0,.183,2.036,6.5,6.5,0,0,0,1.737,2.837,4.6,4.6,0,0,1,.745.951c.641,1.536.362,2.386-.25,4.25q-.079.239-.159.489c-.929,2.876.366,5.729,1.509,8.246.371.817.722,1.589.951,2.271,1.848,5.483,3.233,6.738,4.344,7.244a4.283,4.283,0,0,0,1.793.381c2.962,0,6.053-2.751,7.473-4.494a6.316,6.316,0,0,0,1.272-2.992,3.276,3.276,0,0,1,.263-.918,5.383,5.383,0,0,1,.674-.867,7.131,7.131,0,0,0,1.681-2.792A4.522,4.522,0,0,1,68.7,75.854c.141-.15.292-.311.454-.487,2.737-2.978,2.032-5.253,1.286-7.662-.628-2.027.471-3.323,3.127-5.8a22.2,22.2,0,0,0,3.263-3.514c.4-.583,1.628-2.357.87-4.116-.743-1.724-2.632-2.014-4.15-2.247a6.809,6.809,0,0,1-1.794-.419c-1.271-.831-2.049-2.566-2.8-4.244-.15-.334-.3-.664-.447-.984-.267-.571-.534-1.262-.817-1.993a17.239,17.239,0,0,0-3.037-5.657c-1.3-1.374-3.741-2.035-5.9-2.62-.725-.2-1.41-.382-1.861-.548a2.053,2.053,0,0,0-1.181-.073,5.332,5.332,0,0,0-2.19.907,2.553,2.553,0,0,0-.732.984,23.5,23.5,0,0,1-2.423-1.475l-.04-.027a2.913,2.913,0,0,0-.183-1.978c-1.148-2.428-4.959-2.238-5.71-2.174-.427.036-.967.055-1.539.075-.9.032-1.89.068-2.871.178l.051-.141a5.254,5.254,0,0,1,4.934-3.471H46.18a2.055,2.055,0,1,0,0-4.11H45.012A9.38,9.38,0,0,0,37.057,28.7L33.992,24.4,37.008,17.1l13.3-4.662a2.056,2.056,0,0,0,.927-.658l5.911-7.414A48.461,48.461,0,0,1,94.608,28.376a47.954,47.954,0,0,1,4.842,11.762l-.871.777a5.489,5.489,0,0,0-1.829,3.993c0,.017,0,.033,0,.05l-1.419-3.9a5.13,5.13,0,0,0-.925-1.587L91.873,36.5A5.15,5.15,0,0,0,87.952,34.7h-3.1a2.976,2.976,0,0,0-2.476,4.627l.314.471a22.774,22.774,0,0,1-6.784,4.029l-4.248-8.136V33.871a2.054,2.054,0,0,0-.636-1.486L67.2,28.733a2.058,2.058,0,0,0-.738-.452l-3.443-1.21a2.055,2.055,0,0,0-1.363,3.877l3.026,1.063,2.869,2.739v1.44a2.055,2.055,0,0,0,.233.951L73.1,47.327a2.054,2.054,0,0,0,2.532.977l1.548-.571a26.893,26.893,0,0,0,9.643-6.171,2.055,2.055,0,0,0,.257-2.593l-.109-.164h.981a1.046,1.046,0,0,1,.8.367l2.532,2.964a1.044,1.044,0,0,1,.188.322l2.794,7.682a2.055,2.055,0,0,0,3.384.75l1.33-1.33a6.415,6.415,0,0,0,1.7-3.09A48.661,48.661,0,0,1,82.608,90.726a2.055,2.055,0,0,0,2.537,3.233A52.605,52.605,0,0,0,98.167,26.321ZM9.717,58.106l8.473,6.443a2.053,2.053,0,0,0,.85.381l5.107,1a2.283,2.283,0,0,1,1.732,2.952,6.352,6.352,0,0,0-.006,3.968l.651,2a2.286,2.286,0,0,1-1.466,2.877l-2.042.664a2.054,2.054,0,0,0-1.383,1.568L19.99,88.538a49.029,49.029,0,0,1-9.361-11.676,48.227,48.227,0,0,1-5.97-17.113ZM4.351,49.42a2.091,2.091,0,0,0,.034.265A1.986,1.986,0,0,1,4.351,49.42ZM22.573,20.494a4.561,4.561,0,0,1-.88,4.836l-2.417,2.59a2.063,2.063,0,0,0-.281.381l-5.489,9.584L8.626,41.374a2.055,2.055,0,0,0-.5,2.829l1.825,2.676c-1.052.157-2,.286-2.623.354-.121-.116-.247-.233-.377-.354-.488-.454-1.167-1.06-2.179-1.945A48.571,48.571,0,0,1,19.243,17.446,5.342,5.342,0,0,1,22.573,20.494Zm20.472,15.42c.622-.022,1.211-.043,1.736-.087a5.589,5.589,0,0,1,.875,0,2.055,2.055,0,0,0,.945,2.557c.386.206.922.564,1.49.943,1.606,1.071,3.427,2.284,5.137,2.393a3.409,3.409,0,0,0,2.791-1.163c.03-.03.058-.06.087-.087a2.2,2.2,0,0,0,.55-.673c.329.094.674.187,1.028.283,1.217.329,3.481.943,3.982,1.473a14.586,14.586,0,0,1,2.193,4.318c.309.8.6,1.554.928,2.254.141.3.279.61.419.923.948,2.115,2.023,4.512,4.3,6a8.494,8.494,0,0,0,3.42,1.042c.135.021.29.045.448.07A19.87,19.87,0,0,1,70.769,58.9c-2.544,2.369-5.71,5.318-4.252,10.021.688,2.221.72,2.461-.386,3.665-.151.164-.291.314-.423.454A8.444,8.444,0,0,0,63.392,76.8a3.208,3.208,0,0,1-.837,1.306,9.186,9.186,0,0,0-1.15,1.522,6.66,6.66,0,0,0-.744,2.183,2.518,2.518,0,0,1-.429,1.2,11.978,11.978,0,0,1-2.594,2.294,3.39,3.39,0,0,1-1.722.686C55.7,85.76,54.9,84.731,53.7,81.169c-.3-.879-.707-1.783-1.1-2.657-.875-1.928-1.78-3.921-1.34-5.283q.078-.241.154-.471c.7-2.143,1.367-4.167.137-7.114a7.411,7.411,0,0,0-1.5-2.132,3.82,3.82,0,0,1-.785-1.043,4.442,4.442,0,0,1-.067-1.04,5.1,5.1,0,0,0-1.6-4.207c-2.274-2.129-4.926-1.473-6.681-1.039a12.89,12.89,0,0,1-1.5.312,7.382,7.382,0,0,1-7.073-2.99,8.136,8.136,0,0,1-.637-8.225,15.6,15.6,0,0,1,2.66-3.612c.239-.269.479-.539.72-.817.4-.462.842-1.088,1.308-1.75a14.856,14.856,0,0,1,2.044-2.542C39.364,36.044,41.491,35.969,43.044,35.914Z" transform="translate(0 -0.001)" fill="#21214b"/>
        <path id="Path_100464" data-name="Path 100464" d="M355.061,340.085c2.1-.343,3.672-2.523,4.96-6.862l2.417-8.147a2.056,2.056,0,0,0,.016-1.112l-.989-3.727a2.055,2.055,0,0,0-3.792-.453c-.225.415-.428.855-.624,1.28a8.83,8.83,0,0,1-1.026,1.863,4.536,4.536,0,0,1-1.206.715,5.65,5.65,0,0,0-3.422,3.326,6.02,6.02,0,0,0-.136,2.9,1.87,1.87,0,0,1-.053,1.211l-.021.048c-.654,1.535-1.871,4.392-.165,6.822a4.28,4.28,0,0,0,3.493,2.179A3.339,3.339,0,0,0,355.061,340.085Zm-.678-4.5c-.393-.559.194-1.937.583-2.849l.021-.048a5.783,5.783,0,0,0,.337-3.424,2.154,2.154,0,0,1-.008-1.067c.081-.256.562-.5,1.287-.855.322-.155.676-.326,1.033-.533l-1.555,5.241a12.467,12.467,0,0,1-1.572,3.7C354.47,335.708,354.428,335.652,354.383,335.588Z" transform="translate(-278.194 -253.215)" fill="#21214b"/>
        <path id="Path_100465" data-name="Path 100465" d="M258.779,118.175a2.055,2.055,0,1,0-1.36,3.878l.139.048a2.055,2.055,0,1,0,1.36-3.878Z" transform="translate(-203.426 -93.797)" fill="#21214b"/>
      </g>
      <g id="chico" transform="translate(200.127 1371.478)">
        <g id="Group_53406" data-name="Group 53406" transform="translate(1.802 1.801)">
          <path id="Path_99303" data-name="Path 99303" d="M190.171,411.3H129.31a35.378,35.378,0,0,1,23-16.587V381.832h14.861v12.877A35.379,35.379,0,0,1,190.171,411.3Z" transform="translate(-117.197 -291.918)" fill="#ffc93c"/>
          <path id="Path_99304" data-name="Path 99304" d="M156.416,381.828v12.878c-4.378,2.092-8.082,8.236-10.294,16.587H129.31a35.377,35.377,0,0,1,23-16.587V381.828Z" transform="translate(-117.197 -291.915)" fill="#e2b234"/>
          <path id="Path_99305" data-name="Path 99305" d="M228.887,389.835H213.348a3.075,3.075,0,0,1-3.075-3.074v-1.854a3.075,3.075,0,0,1,3.075-3.075h15.539a3.075,3.075,0,0,1,3.074,3.075v1.854A3.075,3.075,0,0,1,228.887,389.835Z" transform="translate(-178.713 -291.918)" fill="#b3e59f"/>
          <path id="Path_99306" data-name="Path 99306" d="M222.453,389.833h-9.105a3.074,3.074,0,0,1-3.074-3.074V384.9a3.076,3.076,0,0,1,3.074-3.077h9.105a3.076,3.076,0,0,0-3.074,3.077v1.854A3.074,3.074,0,0,0,222.453,389.833Z" transform="translate(-178.714 -291.915)" fill="#95d6a4"/>
          <path id="Path_99307" data-name="Path 99307" d="M181.36,69.615V25.559A11.57,11.57,0,0,0,159.8,19.725a26.456,26.456,0,0,0-48.758,14.232V69.407" transform="translate(-103.316 -7.499)" fill="#9ddfd3"/>
          <path id="Path_99308" data-name="Path 99308" d="M111.04,69.406V33.956A26.463,26.463,0,0,1,148.8,10.032a26.471,26.471,0,0,0-15.148,23.924v35.45Z" transform="translate(-103.315 -7.498)" fill="#dbf6e9"/>
          <g id="Group_53405" data-name="Group 53405" transform="translate(0 54.115)">
            <circle id="Ellipse_6" data-name="Ellipse 6" cx="9.514" cy="9.514" r="9.514" fill="#f5fffa"/>
            <circle id="Ellipse_7" data-name="Ellipse 7" cx="9.514" cy="9.514" r="9.514" transform="translate(66.06)" fill="#f5fffa"/>
          </g>
          <path id="Path_99309" data-name="Path 99309" d="M194.855,133V152.12a26.045,26.045,0,0,1-26.045,26.045h-4.438a26.047,26.047,0,0,1-26.047-26.045V133c0-.077,0-.156,0-.233a11.691,11.691,0,0,1,17.43-10.015,22.4,22.4,0,0,0,30.9-9.662A28.166,28.166,0,0,1,194.855,133Z" transform="translate(-124.046 -87.728)" fill="#f5fffa"/>
          <path id="Path_99310" data-name="Path 99310" d="M175.06,203.226a25.989,25.989,0,0,1-6.247.757h-4.439a26.047,26.047,0,0,1-26.047-26.045V158.819c0-.077,0-.156,0-.233a11.691,11.691,0,0,1,17.43-10.015,22.052,22.052,0,0,0,3.336,1.5,11.386,11.386,0,0,0-3.833,8.512c0,.077,0,.156,0,.233v19.118A26.053,26.053,0,0,0,175.06,203.226Z" transform="translate(-124.048 -113.546)" fill="#e0ffef"/>
        </g>
        <g id="Group_53407" data-name="Group 53407" transform="translate(0)">
          <path id="Path_99311" data-name="Path 99311" d="M153.028,54.955V19.863a13.37,13.37,0,0,0-23.334-8.918A28.258,28.258,0,0,0,79.1,28.26V54.7a11.316,11.316,0,1,0,8.243,21.046,27.992,27.992,0,0,0,16.321,16.495,4.843,4.843,0,0,0-.726,2.548v1.854a4.881,4.881,0,0,0,3.553,4.689v1.833a36.43,36.43,0,0,0-3.8,1.194,1.8,1.8,0,1,0,1.269,3.372,33.132,33.132,0,0,1,4.708-1.378,1.8,1.8,0,0,0,1.424-1.761v-3.073h11.255v3.073a1.8,1.8,0,0,0,1.425,1.762,33.6,33.6,0,0,1,20.033,13.023H88.636a33.811,33.811,0,0,1,9.269-8.642,1.8,1.8,0,1,0-1.917-3.051,37.418,37.418,0,0,0-12.247,12.577,1.8,1.8,0,0,0,1.55,2.719h60.861a1.8,1.8,0,0,0,1.55-2.719,37.253,37.253,0,0,0-22.748-17.1v-1.921a4.88,4.88,0,0,0,3.276-4.6V94.792a4.843,4.843,0,0,0-.674-2.463A27.99,27.99,0,0,0,144.1,75.747a11.316,11.316,0,1,0,8.926-20.793Zm-63.1-44.131A24.653,24.653,0,0,1,128.145,15a1.8,1.8,0,0,0,3.073-.061,9.77,9.77,0,0,1,18.206,4.927V54.136c-.222-.013-.445-.022-.671-.022a11.337,11.337,0,0,0-2.964.4V47.076a30.068,30.068,0,0,0-1.477-9.335,1.8,1.8,0,0,0-3.426,1.117,26.461,26.461,0,0,1,1.3,8.218v4.129l-2.163,1.173a6.948,6.948,0,0,0-6.38-4.214h-9.322a6.948,6.948,0,0,0-6.864,5.93,5.933,5.933,0,0,0-3.467,0,6.948,6.948,0,0,0-6.864-5.93H97.806a6.948,6.948,0,0,0-6.38,4.214L89.26,51.2V47.076c0-.059,0-.119,0-.178,0-.014,0-.027,0-.041A9.682,9.682,0,0,1,94.11,38.5a9.933,9.933,0,0,1,9.909-.1,24.215,24.215,0,0,0,11.706,3.017,24.022,24.022,0,0,0,20.408-11.2,26.582,26.582,0,0,1,1.859,2.543,1.8,1.8,0,1,0,3.03-1.95,30.173,30.173,0,0,0-3.955-4.923,1.8,1.8,0,0,0-2.893.47,20.6,20.6,0,0,1-28.409,8.887,13.506,13.506,0,0,0-13.472.141,13.254,13.254,0,0,0-6.634,11.418c0,.088,0,.178,0,.266V54.51a11.354,11.354,0,0,0-2.951-.394V28.26a24.5,24.5,0,0,1,7.223-17.436ZM136.979,55.1v9a3.339,3.339,0,0,1-3.335,3.335h-9.322a3.339,3.339,0,0,1-3.335-3.335v-9a3.339,3.339,0,0,1,3.335-3.335h9.322a3.339,3.339,0,0,1,3.335,3.335Zm-26.516,0v9a3.339,3.339,0,0,1-3.335,3.335H97.806A3.339,3.339,0,0,1,94.471,64.1v-9a3.339,3.339,0,0,1,3.335-3.335h9.322a3.339,3.339,0,0,1,3.335,3.335ZM82.694,73.143a7.713,7.713,0,1,1,2.962-14.836v4.027a8.563,8.563,0,0,0-2.382-.576,10.931,10.931,0,0,0-3.417.2,1.8,1.8,0,1,0,.859,3.5,7.582,7.582,0,0,1,2.2-.116,3.636,3.636,0,0,1,2.749,1.379,27.786,27.786,0,0,0,.656,5.515A7.639,7.639,0,0,1,82.694,73.143Zm40.662,20.373a1.275,1.275,0,0,1,1.273,1.275v1.854a1.274,1.274,0,0,1-1.273,1.273H107.817a1.274,1.274,0,0,1-1.273-1.273V94.791a1.275,1.275,0,0,1,1.273-1.275h.308a27.874,27.874,0,0,0,5.38.523h4.439a27.887,27.887,0,0,0,5.38-.523Zm-5.412-3.08h-4.439A24.272,24.272,0,0,1,89.26,66.193V55.3l1.608.872V64.1a6.946,6.946,0,0,0,6.938,6.938h9.322a6.946,6.946,0,0,0,6.938-6.938V58.133a2.328,2.328,0,0,1,3.319,0V64.1a6.946,6.946,0,0,0,6.938,6.938h9.322a6.946,6.946,0,0,0,6.938-6.938V56.175l1.605-.871V66.193a24.271,24.271,0,0,1-24.244,24.243Zm30.81-17.294a7.649,7.649,0,0,1-3.626-.907,27.791,27.791,0,0,0,.655-5.509,3.6,3.6,0,0,1,2.666-1.374,7.534,7.534,0,0,1,2.291.108,1.8,1.8,0,0,0,.852-3.5,10.924,10.924,0,0,0-3.418-.2,8.566,8.566,0,0,0-2.385.577V58.309a7.713,7.713,0,1,1,2.964,14.834Z" transform="translate(-71.379 0)" fill="#21214b"/>
          <ellipse id="Ellipse_8" data-name="Ellipse 8" cx="3.152" cy="4.318" rx="3.152" ry="4.318" transform="translate(28.97 54.679)" fill="#21214b"/>
          <path id="Path_99312" data-name="Path 99312" d="M296.924,227.64c-1.738,0-3.152,1.937-3.152,4.318s1.414,4.318,3.152,4.318,3.152-1.937,3.152-4.318S298.661,227.64,296.924,227.64Z" transform="translate(-240.354 -172.961)" fill="#21214b"/>
          <path id="Path_99313" data-name="Path 99313" d="M177.82,178.044a1.8,1.8,0,1,0,2.547,2.548,3.67,3.67,0,0,1,5.184,0,1.8,1.8,0,1,0,2.548-2.548A7.276,7.276,0,0,0,177.82,178.044Z" transform="translate(-151.852 -133.663)" fill="#21214b"/>
          <path id="Path_99314" data-name="Path 99314" d="M289.182,178.044a1.8,1.8,0,1,0,2.547,2.548,3.67,3.67,0,0,1,5.184,0,1.8,1.8,0,1,0,2.548-2.548A7.277,7.277,0,0,0,289.182,178.044Z" transform="translate(-236.465 -133.663)" fill="#21214b"/>
          <path id="Path_99315" data-name="Path 99315" d="M241.327,302.926a1.8,1.8,0,0,0-2.519.38,3.973,3.973,0,0,1-6.391,0,1.8,1.8,0,1,0-2.9,2.139,7.576,7.576,0,0,0,12.189,0A1.8,1.8,0,0,0,241.327,302.926Z" transform="translate(-191.266 -229.896)" fill="#21214b"/>
        </g>
      </g>
    </g>
  </g>
</svg>
