<svg xmlns="http://www.w3.org/2000/svg" xmlns:xlink="http://www.w3.org/1999/xlink" width="188" height="122" viewBox="0 0 188 122">
  <defs>
    <linearGradient id="linear-gradient" x1="0.5" x2="0.5" y2="1" gradientUnits="objectBoundingBox">
      <stop offset="0" stop-color="#dbf6e9"/>
      <stop offset="1" stop-color="#fff"/>
    </linearGradient>
  </defs>
  <g id="t3-i1" transform="translate(-180 -542)">
    <path id="Path_100439" data-name="Path 100439" d="M182.475,79.092H174.22c-4.13,0-7.478-3.79-7.478-8.467h0c0-4.676,3.348-8.467,7.478-8.467h5.2a3.368,3.368,0,0,0,3.229-3.051,3.463,3.463,0,0,0-3.13-4.114h-12.4a.4.4,0,0,1-.371-.43c-.005-4.746-3.4-8.592-7.6-8.592H114.379a2.108,2.108,0,0,1-2.026-1.789,2.2,2.2,0,0,1,1.95-2.722h31.206a4.192,4.192,0,0,0,4.015-3.743c.393-2.8-1.506-5.212-3.9-5.212H55.912A4.192,4.192,0,0,0,51.9,36.247c-.393,2.8,1.506,5.213,3.9,5.213H71.123a4.589,4.589,0,0,1,4.395,4.1c.43,3.063-1.649,5.706-4.273,5.706H25.7c-9.331,0-16.9,8.565-16.9,19.13h0c0,9.348,5.924,17.126,13.753,18.794a2.758,2.758,0,0,1,2.009,2.784v1.561a2.692,2.692,0,0,1-2.511,2.843h0c-6.865,0-12.43,6.3-12.43,14.074h0c0,7.773,5.565,14.074,12.43,14.074H22.1a4.006,4.006,0,0,1,3.736,4.23v.01a4.218,4.218,0,0,1-3.531,4.357,3.643,3.643,0,0,0-.915.194,10.82,10.82,0,0,0-6.425,9.442c-.411,6.406,4.058,11.747,9.628,11.747H167.55c5.061,0,9.42-4.321,9.824-10.034,0-.051.007-.1.01-.151.163-2.77,2.157-4.94,4.608-4.94h1.772c4.417,0,8-4.055,8-9.056h0a9.155,9.155,0,0,0-5.9-8.2,5.541,5.541,0,0,1-3.311-5.2v-.262a5.954,5.954,0,0,1,3.893-5.767c5.981-1.948,10.356-8.19,10.356-15.589h0C196.8,86.353,190.387,79.092,182.475,79.092Z" transform="translate(171.2 509.496)" fill="url(#linear-gradient)"/>
    <g id="el-pensamiento-de-diseno" transform="translate(221.254 550.254)">
      <g id="Group_55110" data-name="Group 55110" transform="translate(2.679 2.679)">
        <g id="Group_55096" data-name="Group 55096" transform="translate(70.539 20.144)">
          <path id="Path_100440" data-name="Path 100440" d="M62.452,22.393,50.584,34.262A28.466,28.466,0,0,0,44.2,24.223l-.185-.185L54.059,14Z" transform="translate(-44.02 -14)" fill="#5cd6b3"/>
        </g>
        <g id="Group_55097" data-name="Group 55097" transform="translate(16.787 69.229)">
          <path id="Path_100441" data-name="Path 100441" d="M34.159,52.574,20.393,66.339,12,57.945,26.705,43.24C29.542,46.01,32.363,48.78,34.159,52.574Z" transform="translate(-12 -43.24)" fill="#5cd6b3"/>
        </g>
        <g id="Group_55098" data-name="Group 55098" transform="translate(8.393 59.98)">
          <path id="Path_100442" data-name="Path 100442" d="M30.1,46.98,15.393,61.685,7,53.292,22.562,37.73a28.446,28.446,0,0,0,5.506,7.252c.671.671,1.343,1.343,2.031,2Z" transform="translate(-7 -37.73)" fill="#ff826e"/>
        </g>
        <g id="Group_55099" data-name="Group 55099" transform="translate(60.316 11.751)">
          <path id="Path_100443" data-name="Path 100443" d="M58.192,17.393,48.153,27.432A28.3,28.3,0,0,0,37.93,20.868L49.8,9Z" transform="translate(-37.93 -9)" fill="#ff826e"/>
        </g>
        <g id="Group_55100" data-name="Group 55100" transform="translate(77.22 0)">
          <path id="Path_100444" data-name="Path 100444" d="M71.5,13.868a11.839,11.839,0,0,1-3.475,8.393l-3.24,3.24L48,8.715l3.24-3.24A11.868,11.868,0,0,1,71.5,13.868Z" transform="translate(-48 -2)" fill="#aab2bd"/>
        </g>
        <g id="Group_55101" data-name="Group 55101" transform="translate(0 75.541)">
          <path id="Path_100445" data-name="Path 100445" d="M27.18,63.787,5.844,72a2.969,2.969,0,0,1-1.007.185A2.844,2.844,0,0,1,2,69.343a2.969,2.969,0,0,1,.185-1.007L10.393,47l8.393,8.393Z" transform="translate(-2 -47)" fill="#ccd1d9"/>
        </g>
        <g id="Group_55102" data-name="Group 55102" transform="translate(72.184 6.715)">
          <path id="Path_100446" data-name="Path 100446" d="M66.823,22.787l-5.036,5.036L53.393,19.43,45,11.036,50.036,6Z" transform="translate(-45 -6)" fill="#e6e9ed"/>
        </g>
        <g id="Group_55103" data-name="Group 55103" transform="translate(60.718 50.361)">
          <path id="Path_100447" data-name="Path 100447" d="M59.708,33.763A4.887,4.887,0,0,0,62.729,38.3c.017,0,.05.017.067.017a4.881,4.881,0,0,0,5.355-1.041l1.259-1.259,4.751,4.751L72.9,42.022a4.88,4.88,0,0,0-1.041,5.355c0,.017.017.05.017.067a4.887,4.887,0,0,0,4.532,3.022h1.763V57.18H76.411A4.887,4.887,0,0,0,71.878,60.2c0,.017-.017.05-.017.067A4.88,4.88,0,0,0,72.9,65.624l1.259,1.259-4.751,4.751-1.259-1.259A4.88,4.88,0,0,0,62.8,69.334c-.017,0-.05.017-.067.017a4.887,4.887,0,0,0-3.022,4.532v1.763H52.993V73.883a4.887,4.887,0,0,0-3.022-4.532c-.017,0-.05-.017-.067-.017a4.88,4.88,0,0,0-5.355,1.041L43.29,71.634l-4.247-4.247a3.321,3.321,0,0,0,.52-1.813,3.369,3.369,0,0,0-1.393-2.719c1.628-5.238,5.086-8.645,8.561-12.019a10.384,10.384,0,0,0-.453,2.988A10.072,10.072,0,1,0,56.35,43.751a10.242,10.242,0,0,0-3.878.772A20.524,20.524,0,0,0,56.35,32h3.357Z" transform="translate(-38.17 -32)" fill="#ffc729"/>
        </g>
        <g id="Group_55104" data-name="Group 55104" transform="translate(68.826 62.112)">
          <path id="Path_100448" data-name="Path 100448" d="M53.072,39A10.072,10.072,0,1,1,43,49.072a10.384,10.384,0,0,1,.453-2.988v-.017a46.57,46.57,0,0,0,5.741-6.3A10.242,10.242,0,0,1,53.072,39ZM56.43,49.072a3.357,3.357,0,1,0-3.357,3.357A3.367,3.367,0,0,0,56.43,49.072Z" transform="translate(-43 -39)" fill="#fcd770"/>
        </g>
        <g id="Group_55105" data-name="Group 55105" transform="translate(41.967 94.007)">
          <path id="Path_100449" data-name="Path 100449" d="M35.393,64.715A8.6,8.6,0,0,1,27.05,58.2L27,58H43.787l-.05.2a8.666,8.666,0,0,1-3.055,4.7A8.574,8.574,0,0,1,35.393,64.715Z" transform="translate(-27 -58)" fill="#aab2bd"/>
        </g>
        <g id="Group_55106" data-name="Group 55106" transform="translate(38.61 87.292)">
          <path id="Path_100450" data-name="Path 100450" d="M45.144,54A3.367,3.367,0,0,1,48.5,57.357a3.382,3.382,0,0,1-3.357,3.357H28.357A3.367,3.367,0,0,1,25,57.357,3.382,3.382,0,0,1,28.357,54Z" transform="translate(-25 -54)" fill="#ccd1d9"/>
        </g>
        <g id="Group_55107" data-name="Group 55107" transform="translate(38.61 80.577)">
          <path id="Path_100451" data-name="Path 100451" d="M48.5,53.357a3.321,3.321,0,0,1-.52,1.813,3.728,3.728,0,0,1-.47.554,3.282,3.282,0,0,1-2.367.99H28.357A3.367,3.367,0,0,1,25,53.357a3.282,3.282,0,0,1,.99-2.367,2.025,2.025,0,0,1,.4-.353A3.311,3.311,0,0,1,28.357,50H45.144a3.311,3.311,0,0,1,1.964.638A3.369,3.369,0,0,1,48.5,53.357Z" transform="translate(-25 -50)" fill="#ccd1d9"/>
        </g>
        <g id="Group_55108" data-name="Group 55108" transform="translate(21.823 21.823)">
          <path id="Path_100452" data-name="Path 100452" d="M70.279,33.583A28.466,28.466,0,0,0,63.9,23.545l-.185-.185A28.613,28.613,0,0,0,44.092,15h-.017a11.489,11.489,0,0,1,1.142,5.036A11.622,11.622,0,0,1,44.6,23.8v.017a6.574,6.574,0,0,1,2.3-.42,6.715,6.715,0,0,1,0,13.43H15.789A28.5,28.5,0,0,0,15,43.538a20.845,20.845,0,0,0,2.132,9.619,28.446,28.446,0,0,0,5.506,7.252c.671.671,1.343,1.343,2.031,2,2.837,2.77,5.657,5.54,7.453,9.334a16.18,16.18,0,0,1,1.058,2.652,3.311,3.311,0,0,1,1.964-.638H51.931a3.311,3.311,0,0,1,1.964.638c1.628-5.238,5.086-8.645,8.561-12.019v-.017a46.57,46.57,0,0,0,5.741-6.3,20.524,20.524,0,0,0,3.878-12.523,28.307,28.307,0,0,0-1.8-9.955Z" transform="translate(-15 -15)" fill="#ffeaa7"/>
        </g>
        <g id="Group_55109" data-name="Group 55109" transform="translate(0 6.715)">
          <path id="Path_100453" data-name="Path 100453" d="M37.756,15.3A11.75,11.75,0,0,1,52.9,21.108a11.489,11.489,0,0,1,1.142,5.036,11.622,11.622,0,0,1-.621,3.76v.017a6.574,6.574,0,0,1,2.3-.42,6.715,6.715,0,1,1,0,13.43H10.393a8.387,8.387,0,0,1-.806-16.737v-.017a14.893,14.893,0,0,1-.873-5.07,15.107,15.107,0,0,1,29.025-5.875Z" transform="translate(-2 -6)" fill="#e6e9ed"/>
        </g>
      </g>
      <g id="Group_55111" data-name="Group 55111" transform="translate(1 1)">
        <path id="Path_100454" data-name="Path 100454" d="M51.036,52.072A5.036,5.036,0,1,0,46,47.036,5.042,5.042,0,0,0,51.036,52.072Zm0-6.715a1.679,1.679,0,1,1-1.679,1.679A1.68,1.68,0,0,1,51.036,45.357Z" transform="translate(29.541 26.826)"/>
        <path id="Path_100455" data-name="Path 100455" d="M98.633,67.775a3.221,3.221,0,0,1,.687-3.53l2.443-2.444-7.124-7.124L92.192,57.12a3.24,3.24,0,0,1-3.594.658,3.2,3.2,0,0,1-1.984-2.968v-3.45H83.17a29.739,29.739,0,0,0-1.487-7.8l19.426-19.426A13.549,13.549,0,1,0,81.95,4.968L62.544,24.376A29.821,29.821,0,0,0,54.626,22.9a13.359,13.359,0,0,0-15.342-6.263A16.754,16.754,0,0,0,8.16,28.292,10.071,10.071,0,0,0,11.072,48H23.249a30.438,30.438,0,0,0-.426,5.036,23.049,23.049,0,0,0,1.786,9.27L9.634,77.287,1.3,98.952a4.468,4.468,0,0,0-.3,1.617,4.51,4.51,0,0,0,6.129,4.21l21.665-8.333,10.95-10.952a4.906,4.906,0,0,0,1.175,4.477A4.993,4.993,0,0,0,43.37,98.18a10.225,10.225,0,0,0,19.339,0,5.029,5.029,0,0,0,3.76-4.851c0-.126-.029-.243-.037-.366l2.085,2.085L70.963,92.6a3.287,3.287,0,0,1,5.578,2.312v3.45H86.613v-3.45a3.29,3.29,0,0,1,5.58-2.312l2.444,2.444,7.124-7.124L99.32,85.479a3.246,3.246,0,0,1-.66-3.594,3.2,3.2,0,0,1,2.97-1.986h3.45V69.827h-3.45a3.23,3.23,0,0,1-3-2.051ZM73.479,72.724A50.1,50.1,0,0,0,78.729,67a8.3,8.3,0,0,1,2.849-.529,8.475,8.475,0,1,1-8.1,6.255ZM75.5,32.959,83.256,25.2l6.02,6.02L80.31,40.182A30.465,30.465,0,0,0,75.5,32.959ZM77.236,14.43,79.9,11.767,94.312,26.18,91.65,28.843ZM91.53,4.357a10.192,10.192,0,0,1,7.207,17.4l-2.051,2.051L82.272,9.393l2.051-2.051A10.129,10.129,0,0,1,91.53,4.357ZM74.863,16.8l6.02,6.02L73.125,30.58a30.431,30.431,0,0,0-7.22-4.82ZM79.9,53.04c0,8.734-4.4,13.025-9.055,17.566-3.206,3.127-6.5,6.361-8.417,11.073a4.963,4.963,0,0,0-.994-.1H54.718V73.184a5.042,5.042,0,0,0-5.036-5.036H46.325a1.679,1.679,0,1,1,0-3.357H63.112a5.036,5.036,0,0,0,0-10.072H49.682A1.68,1.68,0,0,1,48,53.04V48H56.4a8.393,8.393,0,1,0,0-16.787c-.047,0-.091.013-.138.013a13.217,13.217,0,0,0,.138-1.692,13.448,13.448,0,0,0-.4-3.183A27,27,0,0,1,79.9,53.04ZM42.967,86.613a1.68,1.68,0,0,1,1.679-1.679H61.433a1.679,1.679,0,0,1,0,3.357H44.646A1.68,1.68,0,0,1,42.967,86.613Zm-21.128,0,12.34-12.34a30.472,30.472,0,0,1,5.4,6.643L27.859,92.633ZM4.357,37.931a6.715,6.715,0,1,1,13.43,0h3.357A10.076,10.076,0,0,0,11.5,27.881a13.416,13.416,0,0,1,24.7-9.924,13.44,13.44,0,0,0-6.579,10.114,6.714,6.714,0,0,0-5.12,6.5h3.357a3.357,3.357,0,1,1,6.715,0h3.357A6.7,6.7,0,0,0,33,28.131a10.06,10.06,0,1,1,19.666,4A8.376,8.376,0,0,0,48,39.61h3.357A5.036,5.036,0,1,1,56.4,44.646H11.072A6.722,6.722,0,0,1,4.357,37.931ZM44.646,48V53.04a5.042,5.042,0,0,0,5.036,5.036h13.43a1.679,1.679,0,1,1,0,3.357H46.325a5.036,5.036,0,1,0,0,10.072h3.357a1.68,1.68,0,0,1,1.679,1.679v8.393H44.646a4.963,4.963,0,0,0-.994.1c-1.917-4.712-5.211-7.945-8.417-11.073-4.657-4.541-9.055-8.832-9.055-17.566A27.061,27.061,0,0,1,26.7,48ZM31.782,71.923,19.466,84.24l-6.02-6.02L26.254,65.412a37.762,37.762,0,0,0,5.528,6.512Zm-20.07,9.31L24.846,94.367l-11.12,4.277L7.434,92.353ZM5.925,101.644a1.155,1.155,0,0,1-1.492-1.489l1.682-4.375L10.3,99.962Zm47.114.077a6.9,6.9,0,0,1-5.916-3.357H58.955a6.9,6.9,0,0,1-5.916,3.357Zm8.393-6.715H44.646a1.679,1.679,0,0,1,0-3.357H61.433a1.679,1.679,0,0,1,0,3.357Zm40.289-18.466h-.092a6.647,6.647,0,0,0-4.685,11.311l.071.071L94.638,90.3l-.071-.071a6.647,6.647,0,0,0-11.311,4.685v.092H79.9v-.092a6.647,6.647,0,0,0-11.313-4.685l-.071.071-2.275-2.275a4.921,4.921,0,0,0,.228-1.412,4.987,4.987,0,0,0-1.128-3.137,21.649,21.649,0,0,1,4.586-7.155,11.746,11.746,0,1,0,11.65-13.21c-.165,0-.324.017-.487.024A22.025,22.025,0,0,0,83.2,54.718h.052v.092A6.647,6.647,0,0,0,94.567,59.5l.071-.071L97.015,61.8l-.071.071a6.647,6.647,0,0,0,4.685,11.311h.092Z" transform="translate(-1 -1)" fill="#31326f"/>
      </g>
    </g>
  </g>
</svg>
