<svg xmlns="http://www.w3.org/2000/svg" width="85" height="85" viewBox="0 0 85 85">
  <g id="t4-i4" transform="translate(-8769.426 1657.742)">
    <path id="Path_101629" data-name="Path 101629" d="M8810.1-1645.156a40.675,40.675,0,0,0-40.674,40.674,40.5,40.5,0,0,0,8.987,25.5l7.922,7.511a40.489,40.489,0,0,0,23.765,7.664,40.674,40.674,0,0,0,40.674-40.674,40.674,40.674,0,0,0-40.674-40.674Z" transform="translate(0 -8.934)" fill="#31326f"/>
    <circle id="Ellipse_4115" data-name="Ellipse 4115" cx="33.74" cy="33.74" r="33.74" transform="translate(8786.945 -1656.214)" fill="#9ddfd3"/>
    <path id="Path_101630" data-name="Path 101630" d="M8885.678-1598.674a.933.933,0,0,0-.793-.907,2.711,2.711,0,0,1-2.455-2.971.945.945,0,0,0-.478-.851l-22.546-12.691a.939.939,0,0,1-.479-.819v-34.465a33.586,33.586,0,0,0-19.235,9.564,33.74,33.74,0,0,0,0,47.716,33.741,33.741,0,0,0,47.716,0c.472-.472.924-.955,1.361-1.446a.928.928,0,0,0-.367-.139,2.851,2.851,0,0,1-2.725-2.991Z" transform="translate(-42.864 -4.518)" fill="#91cfc3"/>
    <g id="Group_55589" data-name="Group 55589" transform="translate(8791.869 -1651.309)">
      <path id="Path_101631" data-name="Path 101631" d="M8855.213-1586.349a28.861,28.861,0,0,1,0-40.771,28.814,28.814,0,0,1,40.771,0,28.861,28.861,0,0,1,0,40.771,28.813,28.813,0,0,1-40.771,0Z" transform="translate(-8846.782 1635.57)" fill="#80cfc1"/>
    </g>
    <path id="Path_101632" data-name="Path 101632" d="M8896.934-1587.447a2.711,2.711,0,0,1-2.455-2.971.947.947,0,0,0-.479-.851l-22.545-12.691a.938.938,0,0,1-.479-.819v-29.506a28.707,28.707,0,0,0-15.763,8.077,28.863,28.863,0,0,0,0,40.771,28.814,28.814,0,0,0,40.771,0q.809-.809,1.539-1.665a.944.944,0,0,0-.59-.346Z" transform="translate(-54.913 -16.652)" fill="#7bb0a6"/>
    <path id="Path_101633" data-name="Path 101633" d="M8870.241-1612.084a24.09,24.09,0,0,0,0,34.03,24.05,24.05,0,0,0,34.03,0,24.09,24.09,0,0,0,0-34.03,24.05,24.05,0,0,0-34.03,0Z" transform="translate(-66.571 -27.404)" fill="#46479e"/>
    <path id="Path_101634" data-name="Path 101634" d="M8870.241-1610.991a24.09,24.09,0,0,0,0,34.03,24.05,24.05,0,0,0,34.03,0,24.528,24.528,0,0,0,1.791-2,.938.938,0,0,0-.4-.458l-22.546-12.691a.94.94,0,0,1-.479-.819V-1617.6A23.963,23.963,0,0,0,8870.241-1610.991Z" transform="translate(-66.571 -28.497)" fill="#46479e"/>
    <path id="Path_101635" data-name="Path 101635" d="M8835.979-1457.751a5.431,5.431,0,0,0-3.5-1.581l6.818-6.818a3.593,3.593,0,0,1,5.082,0,3.6,3.6,0,0,1,0,5.082l-6.818,6.818A5.437,5.437,0,0,0,8835.979-1457.751Z" transform="translate(-44.759 -135.257)" fill="#e9efff"/>
    <path id="Path_101636" data-name="Path 101636" d="M8882.762-1605.458a24.049,24.049,0,0,0,34.029,0,24.19,24.19,0,0,0,1.92-2.163V-1644.5c-.971-3.481-5.151-3.562-5.2-3.563h-3.025a1.452,1.452,0,0,1-1.45-1.45v-3.026a5.047,5.047,0,0,0-4.161-5.2h-22.381a1.65,1.65,0,0,0-1.649,1.65v48.471a24.212,24.212,0,0,0,1.919,2.163Z" transform="translate(-79.091)" fill="#ffc93c"/>
    <path id="Path_101637" data-name="Path 101637" d="M8889.357-1600.913v-48.259a9.234,9.234,0,0,1,5.8-8.571h-12.661a1.65,1.65,0,0,0-1.649,1.65v48.471a24.212,24.212,0,0,0,1.919,2.163,24.042,24.042,0,0,0,6.6,4.684c0-.046,0-.092,0-.139Z" transform="translate(-79.091)" fill="#ebb937"/>
    <path id="Path_101638" data-name="Path 101638" d="M8805.869-1439.833l-5.467,5.467a40.909,40.909,0,0,0,7.922,7.511l5.262-5.262a5.457,5.457,0,0,0,0-7.717A5.457,5.457,0,0,0,8805.869-1439.833Z" transform="translate(-21.989 -153.551)" fill="#ff4155"/>
    <path id="Path_101639" data-name="Path 101639" d="M8806.055-1425.6a5.708,5.708,0,0,1-1.125-7.087l-4.527,4.527a40.9,40.9,0,0,0,7.922,7.511l3.91-3.911A5.674,5.674,0,0,1,8806.055-1425.6Z" transform="translate(-21.989 -159.761)" fill="#c73343"/>
    <g id="Group_55590" data-name="Group 55590" transform="translate(8814.26 -1641.041)">
      <path id="Path_101640" data-name="Path 101640" d="M8935.039-1596.647h-9.321a1.765,1.765,0,0,1-1.766-1.765,1.765,1.765,0,0,1,1.766-1.766h9.321a1.765,1.765,0,0,1,1.766,1.766A1.765,1.765,0,0,1,8935.039-1596.647Z" transform="translate(-8923.952 1600.178)" fill="#fcf2c8"/>
    </g>
    <g id="Group_55591" data-name="Group 55591" transform="translate(8808.088 -1634.47)">
      <path id="Path_101641" data-name="Path 101641" d="M8926.553-1574.884h-22.546a1.324,1.324,0,0,1-1.324-1.324,1.324,1.324,0,0,1,1.324-1.324h22.546a1.324,1.324,0,0,1,1.324,1.324A1.324,1.324,0,0,1,8926.553-1574.884Z" transform="translate(-8902.683 1577.532)" fill="#fcf2c8"/>
    </g>
    <g id="Group_55592" data-name="Group 55592" transform="translate(8808.088 -1629.227)">
      <path id="Path_101642" data-name="Path 101642" d="M8926.553-1556.813h-22.546a1.324,1.324,0,0,1-1.324-1.324,1.324,1.324,0,0,1,1.324-1.324h22.546a1.324,1.324,0,0,1,1.324,1.324A1.324,1.324,0,0,1,8926.553-1556.813Z" transform="translate(-8902.683 1559.461)" fill="#fcf2c8"/>
    </g>
    <g id="Group_55593" data-name="Group 55593" transform="translate(8808.088 -1623.984)">
      <path id="Path_101643" data-name="Path 101643" d="M8926.553-1538.741h-22.546a1.324,1.324,0,0,1-1.324-1.324,1.324,1.324,0,0,1,1.324-1.324h22.546a1.324,1.324,0,0,1,1.324,1.324A1.324,1.324,0,0,1,8926.553-1538.741Z" transform="translate(-8902.683 1541.389)" fill="#fcf2c8"/>
    </g>
    <g id="Group_55594" data-name="Group 55594" transform="translate(8808.088 -1618.741)">
      <path id="Path_101644" data-name="Path 101644" d="M8926.553-1520.671h-22.546a1.324,1.324,0,0,1-1.324-1.324,1.324,1.324,0,0,1,1.324-1.324h22.546a1.324,1.324,0,0,1,1.324,1.324A1.324,1.324,0,0,1,8926.553-1520.671Z" transform="translate(-8902.683 1523.319)" fill="#fcf2c8"/>
    </g>
    <g id="Group_55595" data-name="Group 55595" transform="translate(8808.088 -1613.498)">
      <path id="Path_101645" data-name="Path 101645" d="M8926.553-1502.6h-22.546a1.324,1.324,0,0,1-1.324-1.324,1.324,1.324,0,0,1,1.324-1.324h22.546a1.324,1.324,0,0,1,1.324,1.324A1.324,1.324,0,0,1,8926.553-1502.6Z" transform="translate(-8902.683 1505.247)" fill="#fcf2c8"/>
    </g>
    <path id="Path_101646" data-name="Path 101646" d="M8972.575-1649.568l-6.472-6.471a5.811,5.811,0,0,0-4.11-1.7h-2.872s5.279.08,5.279,5.2v3.026a1.65,1.65,0,0,0,1.65,1.65h3.026s5.2.043,5.2,4.917v-2.509A5.814,5.814,0,0,0,8972.575-1649.568Z" transform="translate(-134.658)" fill="#ebb937"/>
    <path id="Path_101647" data-name="Path 101647" d="M8961.993-1657.742h-2.872s5.28.08,5.28,5.2v3.026a1.65,1.65,0,0,0,1.65,1.65h1.889c-1.574-4,1.89-4.448,1.89-4.448l-3.727-3.726a5.812,5.812,0,0,0-4.11-1.7Z" transform="translate(-134.658)" fill="#bd952c"/>
  </g>
</svg>
