<svg xmlns="http://www.w3.org/2000/svg" width="85" height="85" viewBox="0 0 85 85">
  <g id="t4-i6" transform="translate(-8176.281 1385.438)">
    <path id="Path_101689" data-name="Path 101689" d="M8255.176-1320.981a42.3,42.3,0,0,0,6.1-21.957,42.5,42.5,0,0,0-42.5-42.5,42.5,42.5,0,0,0-42.5,42.5,42.3,42.3,0,0,0,6.105,21.957Z" transform="translate(0)" fill="#9ddfd3"/>
    <path id="Path_101690" data-name="Path 101690" d="M8271.961-1338.657q-.406-.677-.834-1.337H8199.8q-.428.66-.833,1.337v50.922a42.475,42.475,0,0,0,36.5,20.716,42.477,42.477,0,0,0,36.5-20.716Z" transform="translate(-16.683 -33.419)" fill="#e9efff"/>
    <path id="Path_101691" data-name="Path 101691" d="M8214.157-1339.625l.262-.369H8199.8q-.428.66-.833,1.337v50.922a42.681,42.681,0,0,0,19.469,17.167,10.615,10.615,0,0,1-1.447-7.491l-4.448-42.2c-3.771-4.365-2.275-8.13-1.007-10.028a3.044,3.044,0,0,0,.335-2.79A5.1,5.1,0,0,1,8214.157-1339.625Z" transform="translate(-16.683 -33.419)" fill="#d3dcfb"/>
    <g id="Group_55615" data-name="Group 55615" transform="translate(8182.283 -1373.413)">
      <path id="Path_101692" data-name="Path 101692" d="M8223.478-1323.336c21.328,25.978,31.883,1.012,44.681,13.81a47.955,47.955,0,0,0,3.8,3.44v-33.908h-73v7.983c4.677-1.474,15.063-2.833,24.512,8.676Z" transform="translate(-8198.966 1339.994)" fill="#ffc93c"/>
    </g>
    <path id="Path_101693" data-name="Path 101693" d="M8198.966-1332.011a20.711,20.711,0,0,1,13.091.206,2.938,2.938,0,0,0-.189-1.275,5.094,5.094,0,0,1,2.29-6.544l.262-.369h-15.453Z" transform="translate(-16.683 -33.42)" fill="#ebb937"/>
    <path id="Path_101694" data-name="Path 101694" d="M8370.8-1193.915l7.012-7.012,2.925,2.924-7.013,7.012Z" transform="translate(-143.047 -135.689)" fill="#ffc93c"/>
    <path id="Path_101695" data-name="Path 101695" d="M8283.379-1226.559l-38.312-38.312a1.876,1.876,0,0,0-3.2,1.327v38.312a1.876,1.876,0,0,0,1.876,1.876h38.312A1.876,1.876,0,0,0,8283.379-1226.559Zm-33.636-4.676v-17.818l17.818,17.818Z" transform="translate(-48.231 -88.258)" fill="#ffc93c"/>
    <path id="Path_101696" data-name="Path 101696" d="M8291.712-1275.965l2.03,4.541.264.264a1.652,1.652,0,0,1,.455-1.474,1.655,1.655,0,0,1,2.339,0,1.653,1.653,0,0,1,0-2.338,1.652,1.652,0,0,1,2.337,0,1.653,1.653,0,0,1,0-2.338,1.652,1.652,0,0,1,1.475-.456l-.265-.264-4.541-2.03Z" transform="translate(-84.888 -77.495)" fill="#ffe98d"/>
    <path id="Path_101697" data-name="Path 101697" d="M8381.181-1183.53l7.012-7.012,2.639,2.639-7.012,7.012Z" transform="translate(-150.683 -143.326)" fill="#ebb937"/>
    <path id="Path_101698" data-name="Path 101698" d="M8390.91-1173.848l.283.283a4.958,4.958,0,0,0,7.013,0,4.959,4.959,0,0,0,0-7.013l-.282-.283Z" transform="translate(-157.838 -150.445)" fill="#cc3d60"/>
    <path id="Path_101699" data-name="Path 101699" d="M8283.432-1286.864l2.2,4.925,4.2-4.2-4.925-2.2a1.117,1.117,0,0,0-1.476,1.476Z" transform="translate(-78.724 -71.332)" fill="#31326f"/>
    <g id="Group_55616" data-name="Group 55616" transform="translate(8228.585 -1319.704)">
      <path id="Path_101700" data-name="Path 101700" d="M8374.356-1133.075a1.383,1.383,0,0,1,0-1.955l1.577-1.578a1.382,1.382,0,0,1,1.955,0,1.381,1.381,0,0,1,0,1.955l-1.577,1.577A1.382,1.382,0,0,1,8374.356-1133.075Z" transform="translate(-8373.951 1137.013)" fill="#46479e"/>
    </g>
    <g id="Group_55617" data-name="Group 55617" transform="translate(8224.613 -1323.676)">
      <path id="Path_101701" data-name="Path 101701" d="M8359.349-1148.084a1.383,1.383,0,0,1,0-1.956l1.577-1.577a1.383,1.383,0,0,1,1.956,0,1.383,1.383,0,0,1,0,1.956l-1.577,1.577A1.383,1.383,0,0,1,8359.349-1148.084Z" transform="translate(-8358.943 1152.022)" fill="#46479e"/>
    </g>
    <g id="Group_55618" data-name="Group 55618" transform="translate(8220.643 -1327.647)">
      <path id="Path_101702" data-name="Path 101702" d="M8344.34-1163.092a1.385,1.385,0,0,1,0-1.956l1.578-1.577a1.382,1.382,0,0,1,1.955,0,1.383,1.383,0,0,1,0,1.955l-1.577,1.577A1.384,1.384,0,0,1,8344.34-1163.092Z" transform="translate(-8343.936 1167.029)" fill="#46479e"/>
    </g>
    <g id="Group_55619" data-name="Group 55619" transform="translate(8216.672 -1331.618)">
      <path id="Path_101703" data-name="Path 101703" d="M8329.332-1178.1a1.385,1.385,0,0,1,0-1.956l1.578-1.577a1.382,1.382,0,0,1,1.955,0,1.383,1.383,0,0,1,0,1.956l-1.577,1.577A1.384,1.384,0,0,1,8329.332-1178.1Z" transform="translate(-8328.928 1182.037)" fill="#46479e"/>
    </g>
    <g id="Group_55620" data-name="Group 55620" transform="translate(8212.7 -1335.589)">
      <path id="Path_101704" data-name="Path 101704" d="M8314.324-1193.108a1.383,1.383,0,0,1,0-1.956l1.577-1.577a1.382,1.382,0,0,1,1.955,0,1.383,1.383,0,0,1,0,1.955l-1.577,1.577a1.382,1.382,0,0,1-1.955,0Z" transform="translate(-8313.919 1197.046)" fill="#46479e"/>
    </g>
    <path id="Path_101705" data-name="Path 101705" d="M8382.654-1299.512h-2.016v-2.016a1.383,1.383,0,0,0-1.383-1.383,1.383,1.383,0,0,0-1.383,1.383v2.016h-2.016a1.383,1.383,0,0,0-1.384,1.383,1.384,1.384,0,0,0,1.384,1.383h2.016v2.016a1.383,1.383,0,0,0,1.383,1.383,1.383,1.383,0,0,0,1.383-1.383v-2.016h2.016a1.382,1.382,0,0,0,1.383-1.383A1.382,1.382,0,0,0,8382.654-1299.512Z" transform="translate(-145.751 -60.69)" fill="#cc3d60"/>
    <path id="Path_101706" data-name="Path 101706" d="M8424.891-1295.363l1.426-1.426a1.383,1.383,0,0,0,0-1.956,1.382,1.382,0,0,0-1.955,0l-1.426,1.426-1.426-1.426a1.384,1.384,0,0,0-1.956,0,1.383,1.383,0,0,0,0,1.956l1.426,1.426-1.426,1.426a1.383,1.383,0,0,0,0,1.956,1.384,1.384,0,0,0,1.956,0l1.426-1.426,1.426,1.426a1.383,1.383,0,0,0,1.955,0,1.383,1.383,0,0,0,0-1.956Z" transform="translate(-178.604 -63.457)" fill="#cc3d60"/>
    <g id="Group_55621" data-name="Group 55621" transform="translate(8228.723 -1350.654)">
      <path id="Path_101707" data-name="Path 101707" d="M8382.654-1251.217h-6.8a1.384,1.384,0,0,1-1.384-1.383,1.383,1.383,0,0,1,1.384-1.383h6.8a1.382,1.382,0,0,1,1.383,1.383A1.382,1.382,0,0,1,8382.654-1251.217Z" transform="translate(-8374.474 1253.982)" fill="#cc3d60"/>
    </g>
    <g id="Group_55622" data-name="Group 55622" transform="translate(8242.526 -1353.058)">
      <path id="Path_101708" data-name="Path 101708" d="M8428.866-1260.3h-.843a1.383,1.383,0,0,1-1.383-1.383,1.383,1.383,0,0,1,1.383-1.383h.843a1.383,1.383,0,0,1,1.383,1.383A1.382,1.382,0,0,1,8428.866-1260.3Z" transform="translate(-8426.641 1263.066)" fill="#cc3d60"/>
    </g>
    <g id="Group_55623" data-name="Group 55623" transform="translate(8242.526 -1348.251)">
      <path id="Path_101709" data-name="Path 101709" d="M8428.866-1242.133h-.843a1.383,1.383,0,0,1-1.383-1.383,1.383,1.383,0,0,1,1.383-1.383h.843a1.383,1.383,0,0,1,1.383,1.383A1.382,1.382,0,0,1,8428.866-1242.133Z" transform="translate(-8426.641 1244.898)" fill="#cc3d60"/>
    </g>
    <path id="Path_101710" data-name="Path 101710" d="M8262.266-1360.852a5.888,5.888,0,0,1-5.888,5.888h57.8v-5.888Z" transform="translate(-58.903 -18.08)" fill="#46479e"/>
    <path id="Path_101711" data-name="Path 101711" d="M8198.966-1360.852v5.888h15.561a5.888,5.888,0,0,0,5.888-5.888Z" transform="translate(-16.683 -18.08)" fill="#31326f"/>
    <path id="Path_101712" data-name="Path 101712" d="M8299.76-1254.342a1.653,1.653,0,0,0,0,2.338l18.639,18.638,2.337-2.338-18.638-18.638a1.654,1.654,0,0,0-2.338,0Z" transform="translate(-90.45 -96.052)" fill="#81b8ad"/>
    <path id="Path_101713" data-name="Path 101713" d="M8308.595-1263.177a1.653,1.653,0,0,0,0,2.338l18.638,18.638,2.338-2.338-18.639-18.638a1.651,1.651,0,0,0-2.337,0Z" transform="translate(-96.947 -89.554)" fill="#99d9cd"/>
    <path id="Path_101714" data-name="Path 101714" d="M8317.43-1272.012a1.653,1.653,0,0,0,0,2.338l18.639,18.638,2.337-2.338-18.638-18.638a1.653,1.653,0,0,0-2.338,0Z" transform="translate(-103.444 -83.057)" fill="#a7ede1"/>
    <path id="Path_101715" data-name="Path 101715" d="M8241.865-1263.543v38.311a1.876,1.876,0,0,0,1.876,1.876h4.7c-3.344-4.776,1.3-7.879,1.3-7.879v-17.818l4.929,4.929c-.593-3.524,2.693-3.241,2.693-3.241l2.6-2.6-14.9-14.9a1.876,1.876,0,0,0-3.2,1.327Z" transform="translate(-48.231 -88.258)" fill="#ebb937"/>
    <g id="Group_55624" data-name="Group 55624" transform="translate(8208.729 -1339.56)">
      <path id="Path_101716" data-name="Path 101716" d="M8299.317-1208.116a1.383,1.383,0,0,1,0-1.956l1.577-1.577a1.382,1.382,0,0,1,1.955,0,1.383,1.383,0,0,1,0,1.956l-1.577,1.577A1.382,1.382,0,0,1,8299.317-1208.116Z" transform="translate(-8298.912 1212.054)" fill="#46479e"/>
    </g>
    <g id="Group_55625" data-name="Group 55625" transform="translate(8204.758 -1343.531)">
      <path id="Path_101717" data-name="Path 101717" d="M8284.308-1223.123a1.382,1.382,0,0,1,0-1.955l1.577-1.577a1.383,1.383,0,0,1,1.955,0,1.381,1.381,0,0,1,0,1.955l-1.576,1.577A1.384,1.384,0,0,1,8284.308-1223.123Z" transform="translate(-8283.902 1227.061)" fill="#46479e"/>
    </g>
    <g id="Group_55626" data-name="Group 55626" transform="translate(8200.786 -1347.502)">
      <path id="Path_101718" data-name="Path 101718" d="M8269.3-1238.132a1.382,1.382,0,0,1,0-1.955l1.577-1.577a1.383,1.383,0,0,1,1.956,0,1.383,1.383,0,0,1,0,1.956l-1.577,1.577A1.383,1.383,0,0,1,8269.3-1238.132Z" transform="translate(-8268.895 1242.07)" fill="#46479e"/>
    </g>
    <g id="Group_55627" data-name="Group 55627" transform="translate(8196.815 -1351.474)">
      <path id="Path_101719" data-name="Path 101719" d="M8254.292-1253.14a1.383,1.383,0,0,1,0-1.956l1.577-1.577a1.382,1.382,0,0,1,1.955,0,1.383,1.383,0,0,1,0,1.956l-1.577,1.577A1.382,1.382,0,0,1,8254.292-1253.14Z" transform="translate(-8253.887 1257.078)" fill="#46479e"/>
    </g>
  </g>
</svg>
