<svg xmlns="http://www.w3.org/2000/svg" width="85" height="81.349" viewBox="0 0 85 81.349">
  <g id="t4-i5" transform="translate(-8436.547 1650.168)">
    <path id="Path_101648" data-name="Path 101648" d="M8536.512-1582.675a40.514,40.514,0,0,0,10.1-26.819,40.674,40.674,0,0,0-40.674-40.674,40.551,40.551,0,0,0-29.148,12.31l12.762,55.184Z" transform="translate(-28.713)" fill="#ffc93c"/>
    <path id="Path_101649" data-name="Path 101649" d="M8530.064-1376.8l.154.667a40.591,40.591,0,0,0,13.732,2.379,40.547,40.547,0,0,0,15.465-3.046Z" transform="translate(-66.731 -195.064)" fill="#ffc93c"/>
    <path id="Path_101650" data-name="Path 101650" d="M8494.6-1582.366v-25.787h-5.057a20.469,20.469,0,0,1-.285,2.6c-.229,2.807-.24,4.321-.251,4.5.332.024.737-.025.981.2,1.356,1.243-.4,3.071-.694,5.265a1.879,1.879,0,0,1-.72,1.274,1.112,1.112,0,0,1-.972.092l-.552.189a15.231,15.231,0,0,1-5.851,11.3,7.883,7.883,0,0,1-4.812,1.645,7.881,7.881,0,0,1-4.812-1.645,15.248,15.248,0,0,1-5.851-11.3l-.553-.19a1.111,1.111,0,0,1-.971-.092,1.885,1.885,0,0,1-.721-1.274c-.3-2.2-2.052-4.021-.694-5.265.318-.292.917-.15,1.38-.121a24.051,24.051,0,0,1-.58-7.184h-15.249a40.543,40.543,0,0,0-11.794,28.639,40.589,40.589,0,0,0,14.873,31.443h60.919a4.131,4.131,0,0,0,4.126-4.126v-28.973H8495.8A1.2,1.2,0,0,1,8494.6-1582.366Z" transform="translate(0 -29.98)" fill="#46479e"/>
    <path id="Path_101651" data-name="Path 101651" d="M8455.209-1548.394a2.376,2.376,0,0,1-.547-3.6.753.753,0,0,0,.114-.266l5.144-23.663a.748.748,0,0,0-.285-.763c-10.123-7.445-5.264-17.711-4.053-19.909a.758.758,0,0,0-.018-.757,1.279,1.279,0,0,1,.123-1.459.743.743,0,0,0,.141-.444v-3.065a.714.714,0,0,0-.15-.426.922.922,0,0,1-.121-.982.756.756,0,0,0-.087-.785,2.416,2.416,0,0,1-.161-3.035.73.73,0,0,0,.1-.6h-7.063a40.542,40.542,0,0,0-11.794,28.639,40.589,40.589,0,0,0,14.873,31.443h4.062A.72.72,0,0,0,8455.209-1548.394Z" transform="translate(0 -29.981)" fill="#31326f"/>
    <path id="Path_101652" data-name="Path 101652" d="M8504.088-1555.514v-15.009h-4.8a8.023,8.023,0,0,0-.507,1.792,1.885,1.885,0,0,1-.721,1.274,1.11,1.11,0,0,1-.971.092l-.553.189a15.222,15.222,0,0,1-5.851,11.3,7.879,7.879,0,0,1-4.812,1.645,7.878,7.878,0,0,1-4.811-1.645,15.246,15.246,0,0,1-5.851-11.3l-.553-.19a1.111,1.111,0,0,1-.971-.092,1.886,1.886,0,0,1-.721-1.274,7.989,7.989,0,0,0-.507-1.792h-22.307q-.161.329-.316.661v34.4a40.754,40.754,0,0,0,6.7,10.079l29.34-1.182,32.494,1.309h3.454a.1.1,0,0,0,.088-.088v-28.973h-16.628A1.2,1.2,0,0,1,8504.088-1555.514Z" transform="translate(-9.487 -56.832)" fill="#31326f"/>
    <path id="Path_101653" data-name="Path 101653" d="M8469.121-1549.838c-10.124-7.445-5.265-17.711-4.054-19.909a.76.76,0,0,0-.017-.757.161.161,0,0,1-.01-.017h-14.885c-.107.219-.212.44-.315.661v34.4a40.726,40.726,0,0,0,6.7,10.078l7.787-.314,5.081-23.378A.748.748,0,0,0,8469.121-1549.838Z" transform="translate(-9.486 -56.832)" fill="#46479e"/>
    <path id="Path_101654" data-name="Path 101654" d="M8454.679-1594.055a40.741,40.741,0,0,0-4.33,7.09h22.607c-.56-1.558-1.365-2.862-.317-3.823.318-.292.917-.15,1.381-.121a31.287,31.287,0,0,1-.521-3.146Z" transform="translate(-9.848 -40.04)" fill="#242552"/>
    <path id="Path_101655" data-name="Path 101655" d="M8450.35-1586.964h15.17a.772.772,0,0,0-.105-.332,1.275,1.275,0,0,1,.123-1.459.743.743,0,0,0,.141-.444v-3.065a.721.721,0,0,0-.15-.426.918.918,0,0,1-.121-.982.792.792,0,0,0,.068-.382H8454.68a40.671,40.671,0,0,0-4.33,7.089Z" transform="translate(-9.849 -40.042)" fill="#1c2e7a"/>
    <path id="Path_101656" data-name="Path 101656" d="M8625.293-1586.964v-7.09h-5.447c-.127,1.891-.137,2.921-.145,3.068.332.024.736-.025.981.2,1.047.959.241,2.267-.317,3.823Z" transform="translate(-130.692 -40.041)" fill="#242552"/>
    <path id="Path_101657" data-name="Path 101657" d="M8552.678-1515.007a9.85,9.85,0,0,0,9.221-6.417l-.031-.007c-1.422-1.421-1.781-4.116-1.846-6a15.755,15.755,0,0,1-2.265,2.164,8.281,8.281,0,0,1-5.079,1.737,8.281,8.281,0,0,1-5.079-1.737,15.687,15.687,0,0,1-2.264-2.164c-.065,1.885-.425,4.579-1.847,6l-.031.007a9.85,9.85,0,0,0,9.221,6.417Z" transform="translate(-76.287 -87.579)" fill="#fcad6d"/>
    <path id="Path_101658" data-name="Path 101658" d="M8552.678-1523.533a8.283,8.283,0,0,1-5.079-1.736,15.72,15.72,0,0,1-2.265-2.164c-.064,1.885-.424,4.58-1.846,6l-.031.008a9.891,9.891,0,0,0,4.811,5.371l.162-.019a1.407,1.407,0,0,0,.742-.3,10.978,10.978,0,0,0,3.719-7.168c-.071,0-.142,0-.213,0Z" transform="translate(-76.287 -87.579)" fill="#fd995b"/>
    <path id="Path_101659" data-name="Path 101659" d="M8467.084-1476.493H8528.8a39,39,0,0,0-.942-4.313s1.833-17.025-11.051-18.079a5.839,5.839,0,0,1-2.567-1.075,34.81,34.81,0,0,0-4.7-2.225,14.046,14.046,0,0,1-13.231,9.383,14.045,14.045,0,0,1-13.23-9.383,34.715,34.715,0,0,0-4.7,2.224,5.849,5.849,0,0,1-2.568,1.075c-12.884,1.053-11.051,18.079-11.051,18.079q-.158.569-.3,1.127a40.7,40.7,0,0,0,2.624,3.186Z" transform="translate(-19.918 -105.596)" fill="#9ddfd3"/>
    <path id="Path_101660" data-name="Path 101660" d="M8474.66-1487.323c0-5.767,9.892-7.49,12.6-7.854a1.408,1.408,0,0,0,.753-.352,14.1,14.1,0,0,1-4.933-6.654,34.7,34.7,0,0,0-4.7,2.224,5.85,5.85,0,0,1-2.568,1.075c-12.884,1.053-11.051,18.079-11.051,18.079q-.158.569-.3,1.127a40.654,40.654,0,0,0,2.624,3.186h7.576Z" transform="translate(-19.918 -105.597)" fill="#91cfc3"/>
    <g id="Group_55597" data-name="Group 55597" transform="translate(8463.063 -1649.908)">
      <path id="Path_101661" data-name="Path 101661" d="M8539.99-1649.108c-7.375,1.005-8.076,5.186-8.08,6.72a.844.844,0,0,1-.468.761c-3.836,1.866-1.768,10.86-1.768,10.86a4.356,4.356,0,0,1,1.264.5,6.614,6.614,0,0,1,.363-1.346,5.672,5.672,0,0,1,.493-.985,3.02,3.02,0,0,0,.463-1.849c-.138-1.876-.246-5.4,2.231-6.514,2.1-.944,4.671-.4,6.313.148a5.208,5.208,0,0,0,3.286,0c1.642-.546,4.215-1.092,6.313-.148,2.47,1.111,2.368,4.616,2.231,6.5a3.052,3.052,0,0,0,.462,1.865,5.671,5.671,0,0,1,.506,1.018,6.625,6.625,0,0,1,.352,1.314,3.434,3.434,0,0,1,1.559-.493c.057-1.967.238-4.087.238-4.087,2.186-10.7-7.819-15.346-15.76-14.264Z" transform="translate(-8529.118 1649.261)" fill="#cc3d60"/>
    </g>
    <path id="Path_101662" data-name="Path 101662" d="M8542.842-1649.249a17.12,17.12,0,0,0-2.852.143c-7.375,1.005-8.076,5.186-8.08,6.72a.843.843,0,0,1-.468.76c-3.836,1.866-1.768,10.86-1.768,10.86a4.346,4.346,0,0,1,1.264.5,6.612,6.612,0,0,1,.363-1.346,5.667,5.667,0,0,1,.493-.985,3.02,3.02,0,0,0,.463-1.849c-.138-1.876-.246-5.4,2.231-6.514,2.1-.944,4.672-.4,6.313.148a5.213,5.213,0,0,0,.775.192c-.068-.133-.141-.265-.22-.394C8538.472-1645.671,8541.628-1648.419,8542.842-1649.249Z" transform="translate(-66.055 -0.649)" fill="#c73343"/>
    <path id="Path_101663" data-name="Path 101663" d="M8542.078-1496.089a14.307,14.307,0,0,0,13.476-9.55,30.74,30.74,0,0,0-4.285-1.326c-.062-.061-.118-.128-.176-.194a9.587,9.587,0,0,1-9.015,6.357,9.586,9.586,0,0,1-9.014-6.357c-.058.066-.114.132-.176.194a30.61,30.61,0,0,0-4.285,1.326,14.308,14.308,0,0,0,13.475,9.55Z" transform="translate(-65.688 -102.046)" fill="#80cfc1"/>
    <path id="Path_101664" data-name="Path 101664" d="M8533.064-1507.159c-.058.066-.114.132-.176.194a30.61,30.61,0,0,0-4.285,1.326,14.35,14.35,0,0,0,4.958,6.722,1.447,1.447,0,0,0,.463-.442,5.147,5.147,0,0,1,3.807-2.246,1.441,1.441,0,0,0,.281-.06A9.623,9.623,0,0,1,8533.064-1507.159Z" transform="translate(-65.688 -102.046)" fill="#7bb0a6"/>
    <path id="Path_101665" data-name="Path 101665" d="M8661.094-1642.242H8658.9a1.053,1.053,0,0,1-1.052-1.052v-2.2a3.661,3.661,0,0,0-3.019-3.772h-16.234a1.2,1.2,0,0,0-1.2,1.2v36.889a1.2,1.2,0,0,0,1.2,1.2h25.074a1.2,1.2,0,0,0,1.2-1.2v-28.483C8664.162-1642.183,8661.13-1642.242,8661.094-1642.242Z" transform="translate(-143.319 -0.647)" fill="#e9efff"/>
    <path id="Path_101666" data-name="Path 101666" d="M8646.051-1611.176v-36.889a1.2,1.2,0,0,1,1.2-1.2H8638.6a1.2,1.2,0,0,0-1.2,1.2v36.889a1.2,1.2,0,0,0,1.2,1.2h8.652A1.2,1.2,0,0,1,8646.051-1611.176Z" transform="translate(-143.32 -0.646)" fill="#d3dcfb"/>
    <path id="Path_101667" data-name="Path 101667" d="M8704.672-1643.332l-4.694-4.694a4.218,4.218,0,0,0-2.982-1.235h-2.083s3.83.058,3.83,3.772v2.195a1.2,1.2,0,0,0,1.2,1.2h2.2s3.771.031,3.771,3.567v-1.82A4.216,4.216,0,0,0,8704.672-1643.332Z" transform="translate(-184.36 -0.647)" fill="#d3dcfb"/>
    <g id="Group_55598" data-name="Group 55598" transform="translate(8497.688 -1639.456)">
      <path id="Path_101668" data-name="Path 101668" d="M8653-1607.437a1.3,1.3,0,0,1-.926-.384l-1.692-1.692a1.31,1.31,0,0,1,0-1.851,1.309,1.309,0,0,1,1.852,0l.767.766,1.79-1.79a1.309,1.309,0,0,1,1.852,0,1.308,1.308,0,0,1,0,1.852l-2.716,2.716a1.3,1.3,0,0,1-.926.384Z" transform="translate(-8649.998 1612.772)" fill="#81c140"/>
    </g>
    <g id="Group_55599" data-name="Group 55599" transform="translate(8497.687 -1631.008)">
      <path id="Path_101669" data-name="Path 101669" d="M8653-1577.944a1.307,1.307,0,0,1-.926-.383l-1.691-1.692a1.308,1.308,0,0,1,0-1.852,1.309,1.309,0,0,1,1.852,0l.766.766,1.79-1.79a1.309,1.309,0,0,1,1.852,0,1.31,1.31,0,0,1,0,1.852l-2.716,2.716a1.3,1.3,0,0,1-.926.384Z" transform="translate(-8649.997 1583.279)" fill="#81c140"/>
    </g>
    <g id="Group_55600" data-name="Group 55600" transform="translate(8497.687 -1622.56)">
      <path id="Path_101670" data-name="Path 101670" d="M8653-1548.45a1.305,1.305,0,0,1-.926-.384l-1.691-1.692a1.308,1.308,0,0,1,0-1.851,1.309,1.309,0,0,1,1.852,0l.766.766,1.79-1.79a1.309,1.309,0,0,1,1.852,0,1.31,1.31,0,0,1,0,1.851l-2.716,2.716A1.3,1.3,0,0,1,8653-1548.45Z" transform="translate(-8649.997 1553.785)" fill="#81c140"/>
    </g>
    <g id="Group_55602" data-name="Group 55602" transform="translate(8506.503 -1639.495)">
      <g id="Group_55601" data-name="Group 55601" transform="translate(0 0)">
        <path id="Path_101671" data-name="Path 101671" d="M8690.737-1610.289h-8.652a1.309,1.309,0,0,1-1.31-1.309,1.309,1.309,0,0,1,1.31-1.309h8.652a1.309,1.309,0,0,1,1.31,1.309A1.309,1.309,0,0,1,8690.737-1610.289Z" transform="translate(-8680.775 1612.908)" fill="#bec8f7"/>
      </g>
    </g>
    <g id="Group_55604" data-name="Group 55604" transform="translate(8506.503 -1631.083)">
      <g id="Group_55603" data-name="Group 55603" transform="translate(0 0)">
        <path id="Path_101672" data-name="Path 101672" d="M8690.737-1580.922h-8.652a1.309,1.309,0,0,1-1.31-1.309,1.309,1.309,0,0,1,1.31-1.309h8.652a1.309,1.309,0,0,1,1.31,1.309A1.309,1.309,0,0,1,8690.737-1580.922Z" transform="translate(-8680.775 1583.541)" fill="#bec8f7"/>
      </g>
    </g>
    <g id="Group_55606" data-name="Group 55606" transform="translate(8506.503 -1622.672)">
      <g id="Group_55605" data-name="Group 55605" transform="translate(0 0)">
        <path id="Path_101673" data-name="Path 101673" d="M8690.737-1551.556h-8.652a1.309,1.309,0,0,1-1.31-1.309,1.309,1.309,0,0,1,1.31-1.309h8.652a1.309,1.309,0,0,1,1.31,1.309A1.309,1.309,0,0,1,8690.737-1551.556Z" transform="translate(-8680.775 1554.175)" fill="#bec8f7"/>
      </g>
    </g>
    <g id="Group_55608" data-name="Group 55608" transform="translate(8506.503 -1635.464)">
      <g id="Group_55607" data-name="Group 55607">
        <path id="Path_101674" data-name="Path 101674" d="M8686.7-1596.215h-4.614a1.309,1.309,0,0,1-1.31-1.309,1.309,1.309,0,0,1,1.31-1.309h4.614a1.309,1.309,0,0,1,1.309,1.309A1.309,1.309,0,0,1,8686.7-1596.215Z" transform="translate(-8680.775 1598.834)" fill="#bec8f7"/>
      </g>
    </g>
    <g id="Group_55610" data-name="Group 55610" transform="translate(8506.503 -1627.052)">
      <g id="Group_55609" data-name="Group 55609">
        <path id="Path_101675" data-name="Path 101675" d="M8686.7-1566.849h-4.614a1.309,1.309,0,0,1-1.31-1.31,1.309,1.309,0,0,1,1.31-1.309h4.614a1.309,1.309,0,0,1,1.309,1.309A1.309,1.309,0,0,1,8686.7-1566.849Z" transform="translate(-8680.775 1569.468)" fill="#bec8f7"/>
      </g>
    </g>
    <g id="Group_55611" data-name="Group 55611" transform="translate(8506.503 -1618.641)">
      <path id="Path_101676" data-name="Path 101676" d="M8686.7-1537.483h-4.614a1.309,1.309,0,0,1-1.31-1.31,1.309,1.309,0,0,1,1.31-1.309h4.614a1.309,1.309,0,0,1,1.309,1.309A1.309,1.309,0,0,1,8686.7-1537.483Z" transform="translate(-8680.775 1540.102)" fill="#bec8f7"/>
    </g>
    <path id="Path_101677" data-name="Path 101677" d="M8616.557-1584.514a2.081,2.081,0,0,0-2.214.063,6.947,6.947,0,0,1,.021,2.047l-.583,4.252q0,.514-.031,1.009c1.424.429,2.131-.849,2.25-1.726a6.676,6.676,0,0,1,.251-1.113c.379-1.182,1.745-3.214.307-4.533Z" transform="translate(-126.445 -46.635)" fill="#fcad6d"/>
    <path id="Path_101678" data-name="Path 101678" d="M8615.309-1571.26a2.315,2.315,0,0,1-1.149-.305l-.379,2.759c0,.343-.011.679-.03,1.01a1.8,1.8,0,0,0,2.249-1.726,6.583,6.583,0,0,1,.252-1.113c.1-.311.267-.68.434-1.079a2.311,2.311,0,0,1-1.376.454Z" transform="translate(-126.446 -55.982)" fill="#fd995b"/>
    <path id="Path_101679" data-name="Path 101679" d="M8526.141-1584.514a2.079,2.079,0,0,1,2.213.063,6.98,6.98,0,0,0-.021,2.047l.584,4.252c0,.343.011.679.03,1.009-1.423.429-2.13-.849-2.249-1.726a6.676,6.676,0,0,0-.251-1.113c-.38-1.182-1.746-3.214-.307-4.533Z" transform="translate(-63.471 -46.635)" fill="#fcad6d"/>
    <path id="Path_101680" data-name="Path 101680" d="M8529.821-1571.573a2.309,2.309,0,0,1-1.146.3,2.313,2.313,0,0,1-1.382-.458c.167.4.335.771.436,1.083a6.482,6.482,0,0,1,.251,1.113c.119.877.826,2.155,2.25,1.726q-.031-.5-.03-1.01Z" transform="translate(-64.754 -55.973)" fill="#fd995b"/>
    <path id="Path_101681" data-name="Path 101681" d="M8557.66-1613.217a5.672,5.672,0,0,0-.5-1.017,3.045,3.045,0,0,1-.462-1.865c.137-1.881.063-5.561-2.406-6.672-2.1-.944-4.672-.4-6.313.148a5.216,5.216,0,0,1-3.287,0c-1.642-.546-4.215-1.093-6.313-.148-2.477,1.115-2.543,4.812-2.405,6.688a3.027,3.027,0,0,1-.462,1.849,5.6,5.6,0,0,0-.494.985,6.816,6.816,0,0,0-.385,3.392l.584,4.253a15.623,15.623,0,0,0,6.04,12.426,8.281,8.281,0,0,0,5.079,1.737,8.279,8.279,0,0,0,5.079-1.737,15.624,15.624,0,0,0,6.04-12.426l.584-4.252A6.805,6.805,0,0,0,8557.66-1613.217Z" transform="translate(-69.94 -19.184)" fill="#f9ba8f"/>
    <g id="Group_55612" data-name="Group 55612" transform="translate(8464.622 -1642.467)">
      <path id="Path_101682" data-name="Path 101682" d="M8548.639-1593.178a15.624,15.624,0,0,1-6.04-12.426l-.584-4.253a6.805,6.805,0,0,1,.385-3.392,5.689,5.689,0,0,1,.493-.985,3.019,3.019,0,0,0,.463-1.849c-.127-1.735-.078-5.025,1.888-6.392a5.19,5.19,0,0,1-.557-.147c-1.642-.546-4.215-1.093-6.313-.148-2.477,1.115-2.543,4.812-2.405,6.688a3.026,3.026,0,0,1-.463,1.849,5.689,5.689,0,0,0-.493.985,6.805,6.805,0,0,0-.385,3.392l.584,4.253a15.624,15.624,0,0,0,6.04,12.426,8.283,8.283,0,0,0,5.079,1.736,8.288,8.288,0,0,0,3.693-.868,8.239,8.239,0,0,1-1.385-.869Z" transform="translate(-8534.562 1623.284)" fill="#fcad6d"/>
    </g>
    <path id="Path_101683" data-name="Path 101683" d="M8556.947-1398.854H8531.1v1.448a1.846,1.846,0,0,1-1.843,1.844h-32.424a1.845,1.845,0,0,1-1.844-1.844v-1.448h-7.075a40.61,40.61,0,0,0,12.589,7.111h48.332a6.666,6.666,0,0,0,1.9-.268l.01,0,4.228-1.26a4.513,4.513,0,0,0,3.225-4.325,1.253,1.253,0,0,0-1.252-1.254Z" transform="translate(-36.653 -179.328)" fill="#e9efff"/>
    <path id="Path_101684" data-name="Path 101684" d="M8487.913-1398.854a40.61,40.61,0,0,0,12.589,7.111h10.682a2.235,2.235,0,0,1,0-3.555l-.127-.264h-14.225a1.845,1.845,0,0,1-1.844-1.844v-1.448Z" transform="translate(-36.653 -179.328)" fill="#d3dcfb"/>
    <path id="Path_101685" data-name="Path 101685" d="M8511.694-1398.854v1.448a2.113,2.113,0,0,0,2.106,2.107h32.424a2.113,2.113,0,0,0,2.107-2.107v-1.448Z" transform="translate(-53.622 -179.328)" fill="#d3dcfb"/>
    <path id="Path_101686" data-name="Path 101686" d="M8526.047-1397.406v-1.448h-14.353v1.448a2.113,2.113,0,0,0,2.106,2.107h14.353a2.113,2.113,0,0,1-2.106-2.107Z" transform="translate(-53.622 -179.328)" fill="#bec8f7"/>
    <path id="Path_101687" data-name="Path 101687" d="M8697-1649.261h-2.083s3.83.058,3.83,3.772v2.2a1.2,1.2,0,0,0,1.2,1.2h.886c-1.2-3.047,1.431-3.651,1.431-3.651l-2.278-2.278A4.215,4.215,0,0,0,8697-1649.261Z" transform="translate(-184.36 -0.647)" fill="#bec8f7"/>
    <circle id="Ellipse_4116" data-name="Ellipse 4116" cx="1.798" cy="1.798" r="1.798" transform="translate(8444.083 -1632.552)" fill="#cc3d60"/>
    <circle id="Ellipse_4117" data-name="Ellipse 4117" cx="1.798" cy="1.798" r="1.798" transform="translate(8448.82 -1629.241) rotate(-81.894)" fill="#ffc93c"/>
    <path id="Path_101688" data-name="Path 101688" d="M8501.181-1586.891a1.8,1.8,0,0,1-1.8,1.8,1.8,1.8,0,0,1-1.8-1.8,1.8,1.8,0,0,1,1.8-1.8A1.8,1.8,0,0,1,8501.181-1586.891Z" transform="translate(-43.555 -43.869)" fill="#81c140"/>
  </g>
</svg>
